%TF.GenerationSoftware,tscircuit,circuit-json-to-gerber,0.0.103*%
%TF.CreationDate,2026-09-06T11:44:54.880Z*%
%TF.SameCoordinates,Original*%
%TF.FileFunction,Copper,L2,Bot*%
%TF.FilePolarity,Positive*%
%FSLAX46Y46*%
%MOMM*%
G04 Gerber Fmt 4.6, Leading zero omitted, Abs format (unit mm)*
G04 Created by tscircuit (builder) date 2026-09-06T11:44:54.880Z*
G01*
%LPD*%
G75*
G04 APERTURE MACROS START*
%AMHORZPILL*
0 Horizontal pill (stadium) shape macro*
0 Parameters:*
0 $1 = Total width*
0 $2 = Total height*
0 $3 = Circle diameter (equal to height)*
0 $4 = Circle center offset
0 21 = Center Line(Exposure, Width, Height, Center X, Center Y, Rotation)*
0 1 = Circle(Exposure, Diameter, Center X, Center Y, Rotation)*
21,1,$1-$3,$2,0.0,0.0,0.0*
1,1,$3,0.0-$4,0.0*
1,1,$3,$4,0.0*%
%AMVERTPILL*
0 Vertical pill (stadium) shape macro*
0 Parameters:*
0 $1 = Total width*
0 $2 = Total height*
0 $3 = Circle diameter (equal to width)*
0 $4 = Circle center offset
0 21 = Center Line(Exposure, Width, Height, Center X, Center Y, Rotation)*
21,1,$1,$2-$3,0.0,0.0,0.0*
1,1,$3,0.0,0.0-$4*
1,1,$3,0.0,$4*%
%AMROUNDRECT*
0 Rectangle with rounded corners*
0 $1 Corner radius*
0 $2 $3 $4 $5 $6 $7 $8 $9 X,Y Position of each corner*
0 Polygon box body*
4,1,4,$2,$3,$4,$5,$6,$7,$8,$9,$2,$3,0*
0 Circles for rounded corners*
1,1,$1+$1,$2,$3*
1,1,$1+$1,$4,$5*
1,1,$1+$1,$6,$7*
1,1,$1+$1,$8,$9*
0 Rectangles between the rounded corners*
20,1,$1+$1,$2,$3,$4,$5,0*
20,1,$1+$1,$4,$5,$6,$7,0*
20,1,$1+$1,$6,$7,$8,$9,0*
20,1,$1+$1,$8,$9,$2,$3,0*%
G04 APERTURE MACROS END*
G04 aperture START LIST*
%ADD10C,0.150000*%
%ADD11C,0.600000*%
%ADD12C,0.800000*%
%ADD13C,0.000000*%
%ADD14C,0.100000*%
%ADD15C,0.045000*%
%ADD16C,0.056063*%
%ADD17C,0.063000*%
%ADD18C,0.120000*%
%ADD19C,0.036000*%
%ADD20R,1.500000X1.500000*%
%ADD21C,1.500000*%
%ADD22C,0.599999*%
%ADD23VERTPILL,1.199998X1.799996X1.199998X0.299999*%
%ADD24HORZPILL,1.799996X1.199998X1.199998X0.299999*%
%ADD25VERTPILL,1.199998X1.999996X1.199998X0.399999*%
%ADD26HORZPILL,1.999996X1.199998X1.199998X0.399999*%
%ADD27C,0.090000*%
%ADD28C,0.039803*%
%ADD29C,0.040462*%
%ADD30C,0.033000*%
%ADD31C,2.700000*%
%ADD32C,0.600000*%
%ADD33C,0.400000*%
%ADD34C,0.072000*%
%ADD35C,0.450000*%
%ADD36C,0.001000*%
%TD*%
G04 aperture END LIST*
D36*
G36*
X031600000Y024600000D02*
G01*
X-31600000Y024600000D01*
G01*
X-31600000Y-24600000D01*
G01*
X031600000Y-24600000D01*
G01*
X031600000Y024600000D01*
G37*
%LPC*%
D36*
G36*
X-29000000Y020450000D02*
G01*
X-28697610Y020479783D01*
G01*
X-28406841Y020567987D01*
G01*
X-28138866Y020711222D01*
G01*
X-27903984Y020903984D01*
G01*
X-27711222Y021138866D01*
G01*
X-27567987Y021406841D01*
G01*
X-27479783Y021697610D01*
G01*
X-27450000Y022000000D01*
G01*
X-27479783Y022302390D01*
G01*
X-27567987Y022593159D01*
G01*
X-27711222Y022861134D01*
G01*
X-27903984Y023096016D01*
G01*
X-28138866Y023288778D01*
G01*
X-28406841Y023432013D01*
G01*
X-28697610Y023520217D01*
G01*
X-29000000Y023550000D01*
G01*
X-29302390Y023520217D01*
G01*
X-29593159Y023432013D01*
G01*
X-29861134Y023288778D01*
G01*
X-30096016Y023096016D01*
G01*
X-30288778Y022861134D01*
G01*
X-30432013Y022593159D01*
G01*
X-30520217Y022302390D01*
G01*
X-30550000Y022000000D01*
G01*
X-30520217Y021697610D01*
G01*
X-30432013Y021406841D01*
G01*
X-30288778Y021138866D01*
G01*
X-30096016Y020903984D01*
G01*
X-29861134Y020711222D01*
G01*
X-29593159Y020567987D01*
G01*
X-29302390Y020479783D01*
G01*
X-29000000Y020450000D01*
G37*
D36*
G36*
X029000000Y020450000D02*
G01*
X029302390Y020479783D01*
G01*
X029593159Y020567987D01*
G01*
X029861134Y020711222D01*
G01*
X030096016Y020903984D01*
G01*
X030288778Y021138866D01*
G01*
X030432013Y021406841D01*
G01*
X030520217Y021697610D01*
G01*
X030550000Y022000000D01*
G01*
X030520217Y022302390D01*
G01*
X030432013Y022593159D01*
G01*
X030288778Y022861134D01*
G01*
X030096016Y023096016D01*
G01*
X029861134Y023288778D01*
G01*
X029593159Y023432013D01*
G01*
X029302390Y023520217D01*
G01*
X029000000Y023550000D01*
G01*
X028697610Y023520217D01*
G01*
X028406841Y023432013D01*
G01*
X028138866Y023288778D01*
G01*
X027903984Y023096016D01*
G01*
X027711222Y022861134D01*
G01*
X027567987Y022593159D01*
G01*
X027479783Y022302390D01*
G01*
X027450000Y022000000D01*
G01*
X027479783Y021697610D01*
G01*
X027567987Y021406841D01*
G01*
X027711222Y021138866D01*
G01*
X027903984Y020903984D01*
G01*
X028138866Y020711222D01*
G01*
X028406841Y020567987D01*
G01*
X028697610Y020479783D01*
G01*
X029000000Y020450000D01*
G37*
D36*
G36*
X015874889Y022324131D02*
G01*
X016074889Y022324131D01*
G01*
X016074889Y022474130D01*
G01*
X016086418Y022591184D01*
G01*
X016120561Y022703740D01*
G01*
X016176007Y022807472D01*
G01*
X016250625Y022898393D01*
G01*
X016341547Y022973011D01*
G01*
X016445278Y023028457D01*
G01*
X016524888Y023052606D01*
G01*
X016524888Y023259355D01*
G01*
X016518816Y023258757D01*
G01*
X016368742Y023213233D01*
G01*
X016230432Y023139305D01*
G01*
X016109203Y023039815D01*
G01*
X016009713Y022918586D01*
G01*
X015935785Y022780276D01*
G01*
X015890261Y022630202D01*
G01*
X015874889Y022474130D01*
G01*
X015874889Y022324131D01*
G37*
D36*
G36*
X017274887Y022324131D02*
G01*
X017474887Y022324131D01*
G01*
X017474887Y022474130D01*
G01*
X017459515Y022630202D01*
G01*
X017413991Y022780276D01*
G01*
X017340063Y022918586D01*
G01*
X017240573Y023039815D01*
G01*
X017119344Y023139305D01*
G01*
X016981034Y023213233D01*
G01*
X016830960Y023258757D01*
G01*
X016824888Y023259355D01*
G01*
X016824888Y023052606D01*
G01*
X016904498Y023028457D01*
G01*
X017008229Y022973011D01*
G01*
X017099151Y022898393D01*
G01*
X017173769Y022807472D01*
G01*
X017229215Y022703740D01*
G01*
X017263358Y022591184D01*
G01*
X017274887Y022474130D01*
G01*
X017274887Y022324131D01*
G37*
D36*
G36*
X024525113Y022324131D02*
G01*
X024725113Y022324131D01*
G01*
X024725113Y022474130D01*
G01*
X024736642Y022591184D01*
G01*
X024770785Y022703740D01*
G01*
X024826231Y022807472D01*
G01*
X024900849Y022898393D01*
G01*
X024991771Y022973011D01*
G01*
X025095502Y023028457D01*
G01*
X025175112Y023052606D01*
G01*
X025175112Y023259355D01*
G01*
X025169040Y023258757D01*
G01*
X025018966Y023213233D01*
G01*
X024880656Y023139305D01*
G01*
X024759427Y023039815D01*
G01*
X024659937Y022918586D01*
G01*
X024586009Y022780276D01*
G01*
X024540485Y022630202D01*
G01*
X024525113Y022474130D01*
G01*
X024525113Y022324131D01*
G37*
D36*
G36*
X025925111Y022324131D02*
G01*
X026125111Y022324131D01*
G01*
X026125111Y022474130D01*
G01*
X026109739Y022630202D01*
G01*
X026064215Y022780276D01*
G01*
X025990287Y022918586D01*
G01*
X025890797Y023039815D01*
G01*
X025769568Y023139305D01*
G01*
X025631258Y023213233D01*
G01*
X025481184Y023258757D01*
G01*
X025475112Y023259355D01*
G01*
X025475112Y023052606D01*
G01*
X025554722Y023028457D01*
G01*
X025658453Y022973011D01*
G01*
X025749375Y022898393D01*
G01*
X025823993Y022807472D01*
G01*
X025879439Y022703740D01*
G01*
X025913582Y022591184D01*
G01*
X025925111Y022474130D01*
G01*
X025925111Y022324131D01*
G37*
D36*
G36*
X016524888Y021088906D02*
G01*
X016524888Y021295655D01*
G01*
X016445278Y021319805D01*
G01*
X016341547Y021375251D01*
G01*
X016250625Y021449868D01*
G01*
X016176007Y021540790D01*
G01*
X016120561Y021644522D01*
G01*
X016086418Y021757077D01*
G01*
X016074889Y021874131D01*
G01*
X016074889Y022024131D01*
G01*
X015874889Y022024131D01*
G01*
X015874889Y021874131D01*
G01*
X015890261Y021718059D01*
G01*
X015935785Y021567985D01*
G01*
X016009713Y021429676D01*
G01*
X016109203Y021308447D01*
G01*
X016230432Y021208957D01*
G01*
X016368742Y021135029D01*
G01*
X016518816Y021089504D01*
G01*
X016524888Y021088906D01*
G37*
D36*
G36*
X016824888Y021088906D02*
G01*
X016830960Y021089504D01*
G01*
X016981034Y021135029D01*
G01*
X017119344Y021208957D01*
G01*
X017240573Y021308447D01*
G01*
X017340063Y021429676D01*
G01*
X017413991Y021567985D01*
G01*
X017459515Y021718059D01*
G01*
X017474887Y021874131D01*
G01*
X017474887Y022024131D01*
G01*
X017274887Y022024131D01*
G01*
X017274887Y021874131D01*
G01*
X017263358Y021757077D01*
G01*
X017229215Y021644522D01*
G01*
X017173769Y021540790D01*
G01*
X017099151Y021449868D01*
G01*
X017008229Y021375251D01*
G01*
X016904498Y021319805D01*
G01*
X016824888Y021295655D01*
G01*
X016824888Y021088906D01*
G37*
D36*
G36*
X025175112Y021088906D02*
G01*
X025175112Y021295655D01*
G01*
X025095502Y021319805D01*
G01*
X024991771Y021375251D01*
G01*
X024900849Y021449868D01*
G01*
X024826231Y021540790D01*
G01*
X024770785Y021644522D01*
G01*
X024736642Y021757077D01*
G01*
X024725113Y021874131D01*
G01*
X024725113Y022024131D01*
G01*
X024525113Y022024131D01*
G01*
X024525113Y021874131D01*
G01*
X024540485Y021718059D01*
G01*
X024586009Y021567985D01*
G01*
X024659937Y021429676D01*
G01*
X024759427Y021308447D01*
G01*
X024880656Y021208957D01*
G01*
X025018966Y021135029D01*
G01*
X025169040Y021089504D01*
G01*
X025175112Y021088906D01*
G37*
D36*
G36*
X025475112Y021088906D02*
G01*
X025481184Y021089504D01*
G01*
X025631258Y021135029D01*
G01*
X025769568Y021208957D01*
G01*
X025890797Y021308447D01*
G01*
X025990287Y021429676D01*
G01*
X026064215Y021567985D01*
G01*
X026109739Y021718059D01*
G01*
X026125111Y021874131D01*
G01*
X026125111Y022024131D01*
G01*
X025925111Y022024131D01*
G01*
X025925111Y021874131D01*
G01*
X025913582Y021757077D01*
G01*
X025879439Y021644522D01*
G01*
X025823993Y021540790D01*
G01*
X025749375Y021449868D01*
G01*
X025658453Y021375251D01*
G01*
X025554722Y021319805D01*
G01*
X025475112Y021295655D01*
G01*
X025475112Y021088906D01*
G37*
D36*
G36*
X010280000Y020050000D02*
G01*
X012180000Y020050000D01*
G01*
X012180000Y021950000D01*
G01*
X010280000Y021950000D01*
G01*
X010280000Y020050000D01*
G37*
D36*
G36*
X012834774Y021150000D02*
G01*
X013035528Y021150000D01*
G01*
X013077090Y021287013D01*
G01*
X013146398Y021416678D01*
G01*
X013239670Y021530330D01*
G01*
X013353322Y021623602D01*
G01*
X013482987Y021692910D01*
G01*
X013620000Y021734472D01*
G01*
X013620000Y021935226D01*
G01*
X013584664Y021931746D01*
G01*
X013406451Y021877686D01*
G01*
X013242208Y021789896D01*
G01*
X013098249Y021671751D01*
G01*
X012980104Y021527792D01*
G01*
X012892314Y021363549D01*
G01*
X012838254Y021185336D01*
G01*
X012834774Y021150000D01*
G37*
D36*
G36*
X014504472Y021150000D02*
G01*
X014705226Y021150000D01*
G01*
X014701746Y021185336D01*
G01*
X014647686Y021363549D01*
G01*
X014559896Y021527792D01*
G01*
X014441751Y021671751D01*
G01*
X014297792Y021789896D01*
G01*
X014133549Y021877686D01*
G01*
X013955336Y021931746D01*
G01*
X013920000Y021935226D01*
G01*
X013920000Y021734472D01*
G01*
X014057013Y021692910D01*
G01*
X014186678Y021623602D01*
G01*
X014300330Y021530330D01*
G01*
X014393602Y021416678D01*
G01*
X014462910Y021287013D01*
G01*
X014504472Y021150000D01*
G37*
D36*
G36*
X-24700000Y019050000D02*
G01*
X-22800000Y019050000D01*
G01*
X-22800000Y020950000D01*
G01*
X-24700000Y020950000D01*
G01*
X-24700000Y019050000D01*
G37*
D36*
G36*
X-13220000Y019050000D02*
G01*
X-11320000Y019050000D01*
G01*
X-11320000Y020950000D01*
G01*
X-13220000Y020950000D01*
G01*
X-13220000Y019050000D01*
G37*
D36*
G36*
X-21185226Y020150000D02*
G01*
X-20984472Y020150000D01*
G01*
X-20942910Y020287013D01*
G01*
X-20873602Y020416678D01*
G01*
X-20780330Y020530330D01*
G01*
X-20666678Y020623602D01*
G01*
X-20537013Y020692910D01*
G01*
X-20400000Y020734472D01*
G01*
X-20400000Y020935226D01*
G01*
X-20435336Y020931746D01*
G01*
X-20613549Y020877686D01*
G01*
X-20777792Y020789896D01*
G01*
X-20921751Y020671751D01*
G01*
X-21039896Y020527792D01*
G01*
X-21127686Y020363549D01*
G01*
X-21181746Y020185336D01*
G01*
X-21185226Y020150000D01*
G37*
D36*
G36*
X-19515528Y020150000D02*
G01*
X-19314774Y020150000D01*
G01*
X-19318254Y020185336D01*
G01*
X-19372314Y020363549D01*
G01*
X-19460104Y020527792D01*
G01*
X-19578249Y020671751D01*
G01*
X-19722208Y020789896D01*
G01*
X-19886451Y020877686D01*
G01*
X-20064664Y020931746D01*
G01*
X-20100000Y020935226D01*
G01*
X-20100000Y020734472D01*
G01*
X-19962987Y020692910D01*
G01*
X-19833322Y020623602D01*
G01*
X-19719670Y020530330D01*
G01*
X-19626398Y020416678D01*
G01*
X-19557090Y020287013D01*
G01*
X-19515528Y020150000D01*
G37*
D36*
G36*
X-10665226Y020150000D02*
G01*
X-10464472Y020150000D01*
G01*
X-10422910Y020287013D01*
G01*
X-10353602Y020416678D01*
G01*
X-10260330Y020530330D01*
G01*
X-10146678Y020623602D01*
G01*
X-10017013Y020692910D01*
G01*
X-09880000Y020734472D01*
G01*
X-09880000Y020935226D01*
G01*
X-09915336Y020931746D01*
G01*
X-10093549Y020877686D01*
G01*
X-10257792Y020789896D01*
G01*
X-10401751Y020671751D01*
G01*
X-10519896Y020527792D01*
G01*
X-10607686Y020363549D01*
G01*
X-10661746Y020185336D01*
G01*
X-10665226Y020150000D01*
G37*
D36*
G36*
X-08995528Y020150000D02*
G01*
X-08794774Y020150000D01*
G01*
X-08798254Y020185336D01*
G01*
X-08852314Y020363549D01*
G01*
X-08940104Y020527792D01*
G01*
X-09058249Y020671751D01*
G01*
X-09202208Y020789896D01*
G01*
X-09366451Y020877686D01*
G01*
X-09544664Y020931746D01*
G01*
X-09580000Y020935226D01*
G01*
X-09580000Y020734472D01*
G01*
X-09442987Y020692910D01*
G01*
X-09313322Y020623602D01*
G01*
X-09199670Y020530330D01*
G01*
X-09106398Y020416678D01*
G01*
X-09037090Y020287013D01*
G01*
X-08995528Y020150000D01*
G37*
D36*
G36*
X013620000Y020064774D02*
G01*
X013620000Y020265528D01*
G01*
X013482987Y020307090D01*
G01*
X013353322Y020376398D01*
G01*
X013239670Y020469670D01*
G01*
X013146398Y020583322D01*
G01*
X013077090Y020712987D01*
G01*
X013035528Y020850000D01*
G01*
X012834774Y020850000D01*
G01*
X012838254Y020814664D01*
G01*
X012892314Y020636451D01*
G01*
X012980104Y020472208D01*
G01*
X013098249Y020328249D01*
G01*
X013242208Y020210104D01*
G01*
X013406451Y020122314D01*
G01*
X013584664Y020068254D01*
G01*
X013620000Y020064774D01*
G37*
D36*
G36*
X013920000Y020064774D02*
G01*
X013955336Y020068254D01*
G01*
X014133549Y020122314D01*
G01*
X014297792Y020210104D01*
G01*
X014441751Y020328249D01*
G01*
X014559896Y020472208D01*
G01*
X014647686Y020636451D01*
G01*
X014701746Y020814664D01*
G01*
X014705226Y020850000D01*
G01*
X014504472Y020850000D01*
G01*
X014462910Y020712987D01*
G01*
X014393602Y020583322D01*
G01*
X014300330Y020469670D01*
G01*
X014186678Y020376398D01*
G01*
X014057013Y020307090D01*
G01*
X013920000Y020265528D01*
G01*
X013920000Y020064774D01*
G37*
D36*
G36*
X028196000Y017306000D02*
G01*
X028278913Y017314166D01*
G01*
X028358640Y017338351D01*
G01*
X028432117Y017377625D01*
G01*
X028496520Y017430480D01*
G01*
X028549375Y017494883D01*
G01*
X028588649Y017568360D01*
G01*
X028612834Y017648087D01*
G01*
X028621000Y017731000D01*
G01*
X028612834Y017813913D01*
G01*
X028588649Y017893640D01*
G01*
X028549375Y017967117D01*
G01*
X028496520Y018031520D01*
G01*
X028438009Y018079539D01*
G01*
X028438009Y018271754D01*
G01*
X028432725Y018325404D01*
G01*
X028417076Y018376992D01*
G01*
X028391663Y018424536D01*
G01*
X028357463Y018466208D01*
G01*
X027369638Y019454034D01*
G01*
X027327965Y019488234D01*
G01*
X027280421Y019513647D01*
G01*
X027228833Y019529296D01*
G01*
X027175183Y019534580D01*
G01*
X025654329Y019534580D01*
G01*
X024821764Y020367144D01*
G01*
X024825000Y020400000D01*
G01*
X024816834Y020482913D01*
G01*
X024792649Y020562640D01*
G01*
X024753375Y020636117D01*
G01*
X024700520Y020700520D01*
G01*
X024636117Y020753375D01*
G01*
X024562640Y020792649D01*
G01*
X024482913Y020816834D01*
G01*
X024400000Y020825000D01*
G01*
X024317087Y020816834D01*
G01*
X024237360Y020792649D01*
G01*
X024163883Y020753375D01*
G01*
X024099480Y020700520D01*
G01*
X024046625Y020636117D01*
G01*
X024007351Y020562640D01*
G01*
X023983166Y020482913D01*
G01*
X023975000Y020400000D01*
G01*
X023983166Y020317087D01*
G01*
X024007351Y020237360D01*
G01*
X024046625Y020163883D01*
G01*
X024099480Y020099480D01*
G01*
X024163883Y020046625D01*
G01*
X024237360Y020007351D01*
G01*
X024317087Y019983166D01*
G01*
X024400000Y019975000D01*
G01*
X024432856Y019978236D01*
G01*
X025345966Y019065125D01*
G01*
X025387638Y019030926D01*
G01*
X025435182Y019005513D01*
G01*
X025475112Y018993400D01*
G01*
X025475112Y018972782D01*
G01*
X025554722Y018948633D01*
G01*
X025658453Y018893187D01*
G01*
X025749375Y018818569D01*
G01*
X025823993Y018727647D01*
G01*
X025879439Y018623916D01*
G01*
X025913582Y018511360D01*
G01*
X025925111Y018394306D01*
G01*
X025925111Y018144307D01*
G01*
X026125111Y018144307D01*
G01*
X026125111Y018394306D01*
G01*
X026109739Y018550378D01*
G01*
X026064215Y018700452D01*
G01*
X025990287Y018838762D01*
G01*
X025890797Y018959991D01*
G01*
X025860835Y018984580D01*
G01*
X027061274Y018984580D01*
G01*
X027888009Y018157846D01*
G01*
X027888009Y018022417D01*
G01*
X027842625Y017967117D01*
G01*
X027803351Y017893640D01*
G01*
X027779166Y017813913D01*
G01*
X027771000Y017731000D01*
G01*
X027779166Y017648087D01*
G01*
X027803351Y017568360D01*
G01*
X027842625Y017494883D01*
G01*
X027895480Y017430480D01*
G01*
X027959883Y017377625D01*
G01*
X028033360Y017338351D01*
G01*
X028113087Y017314166D01*
G01*
X028196000Y017306000D01*
G37*
D36*
G36*
X-20400000Y019064774D02*
G01*
X-20400000Y019265528D01*
G01*
X-20537013Y019307090D01*
G01*
X-20666678Y019376398D01*
G01*
X-20780330Y019469670D01*
G01*
X-20873602Y019583322D01*
G01*
X-20942910Y019712987D01*
G01*
X-20984472Y019850000D01*
G01*
X-21185226Y019850000D01*
G01*
X-21181746Y019814664D01*
G01*
X-21127686Y019636451D01*
G01*
X-21039896Y019472208D01*
G01*
X-20921751Y019328249D01*
G01*
X-20777792Y019210104D01*
G01*
X-20613549Y019122314D01*
G01*
X-20435336Y019068254D01*
G01*
X-20400000Y019064774D01*
G37*
D36*
G36*
X-20100000Y019064774D02*
G01*
X-20064664Y019068254D01*
G01*
X-19886451Y019122314D01*
G01*
X-19722208Y019210104D01*
G01*
X-19578249Y019328249D01*
G01*
X-19460104Y019472208D01*
G01*
X-19372314Y019636451D01*
G01*
X-19318254Y019814664D01*
G01*
X-19314774Y019850000D01*
G01*
X-19515528Y019850000D01*
G01*
X-19557090Y019712987D01*
G01*
X-19626398Y019583322D01*
G01*
X-19719670Y019469670D01*
G01*
X-19833322Y019376398D01*
G01*
X-19962987Y019307090D01*
G01*
X-20100000Y019265528D01*
G01*
X-20100000Y019064774D01*
G37*
D36*
G36*
X-09880000Y019064774D02*
G01*
X-09880000Y019265528D01*
G01*
X-10017013Y019307090D01*
G01*
X-10146678Y019376398D01*
G01*
X-10260330Y019469670D01*
G01*
X-10353602Y019583322D01*
G01*
X-10422910Y019712987D01*
G01*
X-10464472Y019850000D01*
G01*
X-10665226Y019850000D01*
G01*
X-10661746Y019814664D01*
G01*
X-10607686Y019636451D01*
G01*
X-10519896Y019472208D01*
G01*
X-10401751Y019328249D01*
G01*
X-10257792Y019210104D01*
G01*
X-10093549Y019122314D01*
G01*
X-09915336Y019068254D01*
G01*
X-09880000Y019064774D01*
G37*
D36*
G36*
X-09580000Y019064774D02*
G01*
X-09544664Y019068254D01*
G01*
X-09366451Y019122314D01*
G01*
X-09202208Y019210104D01*
G01*
X-09058249Y019328249D01*
G01*
X-08940104Y019472208D01*
G01*
X-08852314Y019636451D01*
G01*
X-08798254Y019814664D01*
G01*
X-08794774Y019850000D01*
G01*
X-08995528Y019850000D01*
G01*
X-09037090Y019712987D01*
G01*
X-09106398Y019583322D01*
G01*
X-09199670Y019469670D01*
G01*
X-09313322Y019376398D01*
G01*
X-09442987Y019307090D01*
G01*
X-09580000Y019265528D01*
G01*
X-09580000Y019064774D01*
G37*
D36*
G36*
X025876000Y011480000D02*
G01*
X025958913Y011488166D01*
G01*
X026038640Y011512351D01*
G01*
X026112117Y011551625D01*
G01*
X026176520Y011604480D01*
G01*
X026229375Y011668883D01*
G01*
X026268649Y011742360D01*
G01*
X026292834Y011822087D01*
G01*
X026301000Y011905000D01*
G01*
X026292834Y011987913D01*
G01*
X026268649Y012067640D01*
G01*
X026229375Y012141117D01*
G01*
X026176520Y012205520D01*
G01*
X026112117Y012258375D01*
G01*
X026038640Y012297649D01*
G01*
X025958913Y012321834D01*
G01*
X025876000Y012330000D01*
G01*
X025793087Y012321834D01*
G01*
X025713360Y012297649D01*
G01*
X025639883Y012258375D01*
G01*
X025575480Y012205520D01*
G01*
X025554536Y012180000D01*
G01*
X024070339Y012180000D01*
G01*
X023057542Y013192798D01*
G01*
X023059144Y013209061D01*
G01*
X023058326Y013217372D01*
G01*
X023594454Y013753500D01*
G01*
X023628654Y013795173D01*
G01*
X023654067Y013842717D01*
G01*
X023669716Y013894305D01*
G01*
X023675000Y013947955D01*
G01*
X023675000Y018050441D01*
G01*
X023708577Y018032494D01*
G01*
X023802373Y018004041D01*
G01*
X023899918Y017994433D01*
G01*
X023997463Y018004041D01*
G01*
X024091259Y018032494D01*
G01*
X024177703Y018078698D01*
G01*
X024253471Y018140880D01*
G01*
X024315652Y018216648D01*
G01*
X024361857Y018303091D01*
G01*
X024390310Y018396888D01*
G01*
X024399917Y018494433D01*
G01*
X024390310Y018591978D01*
G01*
X024361857Y018685774D01*
G01*
X024315652Y018772218D01*
G01*
X024253471Y018847986D01*
G01*
X024177703Y018910167D01*
G01*
X024091259Y018956372D01*
G01*
X023997463Y018984825D01*
G01*
X023899918Y018994432D01*
G01*
X023802373Y018984825D01*
G01*
X023757253Y018971138D01*
G01*
X023792649Y019037360D01*
G01*
X023816834Y019117087D01*
G01*
X023825000Y019200000D01*
G01*
X023816834Y019282913D01*
G01*
X023792649Y019362640D01*
G01*
X023753375Y019436117D01*
G01*
X023700520Y019500520D01*
G01*
X023636117Y019553375D01*
G01*
X023562640Y019592649D01*
G01*
X023482913Y019616834D01*
G01*
X023400000Y019625000D01*
G01*
X023317087Y019616834D01*
G01*
X023237360Y019592649D01*
G01*
X023163883Y019553375D01*
G01*
X023099480Y019500520D01*
G01*
X023046625Y019436117D01*
G01*
X023007351Y019362640D01*
G01*
X022983166Y019282913D01*
G01*
X022975000Y019200000D01*
G01*
X022983166Y019117087D01*
G01*
X023007351Y019037360D01*
G01*
X023046625Y018963883D01*
G01*
X023099480Y018899480D01*
G01*
X023125000Y018878536D01*
G01*
X023125000Y014061863D01*
G01*
X022691544Y013628407D01*
G01*
X022634144Y013634061D01*
G01*
X022551231Y013625894D01*
G01*
X022471504Y013601710D01*
G01*
X022398027Y013562435D01*
G01*
X022333624Y013509581D01*
G01*
X022280769Y013445178D01*
G01*
X022241495Y013371701D01*
G01*
X022217310Y013291974D01*
G01*
X022209144Y013209061D01*
G01*
X022217310Y013126147D01*
G01*
X022241495Y013046420D01*
G01*
X022280769Y012972943D01*
G01*
X022333624Y012908540D01*
G01*
X022398027Y012855686D01*
G01*
X022471504Y012816412D01*
G01*
X022551231Y012792227D01*
G01*
X022634144Y012784061D01*
G01*
X022683591Y012788931D01*
G01*
X023761976Y011710546D01*
G01*
X023803649Y011676346D01*
G01*
X023851192Y011650933D01*
G01*
X023902781Y011635284D01*
G01*
X023956430Y011630000D01*
G01*
X025554536Y011630000D01*
G01*
X025575480Y011604480D01*
G01*
X025639883Y011551625D01*
G01*
X025713360Y011512351D01*
G01*
X025793087Y011488166D01*
G01*
X025876000Y011480000D01*
G37*
D36*
G36*
X015874889Y018144307D02*
G01*
X016074889Y018144307D01*
G01*
X016074889Y018394306D01*
G01*
X016086418Y018511360D01*
G01*
X016120561Y018623916D01*
G01*
X016176007Y018727647D01*
G01*
X016250625Y018818569D01*
G01*
X016341547Y018893187D01*
G01*
X016445278Y018948633D01*
G01*
X016524888Y018972782D01*
G01*
X016524888Y019179531D01*
G01*
X016518816Y019178933D01*
G01*
X016368742Y019133409D01*
G01*
X016230432Y019059481D01*
G01*
X016109203Y018959991D01*
G01*
X016009713Y018838762D01*
G01*
X015935785Y018700452D01*
G01*
X015890261Y018550378D01*
G01*
X015874889Y018394306D01*
G01*
X015874889Y018144307D01*
G37*
D36*
G36*
X017274887Y018144307D02*
G01*
X017474887Y018144307D01*
G01*
X017474887Y018394306D01*
G01*
X017459515Y018550378D01*
G01*
X017413991Y018700452D01*
G01*
X017340063Y018838762D01*
G01*
X017240573Y018959991D01*
G01*
X017119344Y019059481D01*
G01*
X016981034Y019133409D01*
G01*
X016830960Y019178933D01*
G01*
X016824888Y019179531D01*
G01*
X016824888Y018972782D01*
G01*
X016904498Y018948633D01*
G01*
X017008229Y018893187D01*
G01*
X017099151Y018818569D01*
G01*
X017173769Y018727647D01*
G01*
X017229215Y018623916D01*
G01*
X017263358Y018511360D01*
G01*
X017274887Y018394306D01*
G01*
X017274887Y018144307D01*
G37*
D36*
G36*
X024525113Y018144307D02*
G01*
X024725113Y018144307D01*
G01*
X024725113Y018394306D01*
G01*
X024736642Y018511360D01*
G01*
X024770785Y018623916D01*
G01*
X024826231Y018727647D01*
G01*
X024900849Y018818569D01*
G01*
X024991771Y018893187D01*
G01*
X025095502Y018948633D01*
G01*
X025175112Y018972782D01*
G01*
X025175112Y019179531D01*
G01*
X025169040Y019178933D01*
G01*
X025018966Y019133409D01*
G01*
X024880656Y019059481D01*
G01*
X024759427Y018959991D01*
G01*
X024659937Y018838762D01*
G01*
X024586009Y018700452D01*
G01*
X024540485Y018550378D01*
G01*
X024525113Y018394306D01*
G01*
X024525113Y018144307D01*
G37*
D36*
G36*
X018100082Y017994433D02*
G01*
X018197627Y018004041D01*
G01*
X018291423Y018032494D01*
G01*
X018377867Y018078698D01*
G01*
X018453635Y018140880D01*
G01*
X018515816Y018216648D01*
G01*
X018562021Y018303091D01*
G01*
X018590474Y018396888D01*
G01*
X018600081Y018494433D01*
G01*
X018590474Y018591978D01*
G01*
X018562021Y018685774D01*
G01*
X018515816Y018772218D01*
G01*
X018453635Y018847986D01*
G01*
X018377867Y018910167D01*
G01*
X018291423Y018956372D01*
G01*
X018197627Y018984825D01*
G01*
X018100082Y018994432D01*
G01*
X018002537Y018984825D01*
G01*
X017908741Y018956372D01*
G01*
X017822297Y018910167D01*
G01*
X017746529Y018847986D01*
G01*
X017684348Y018772218D01*
G01*
X017638143Y018685774D01*
G01*
X017609690Y018591978D01*
G01*
X017600083Y018494433D01*
G01*
X017609690Y018396888D01*
G01*
X017638143Y018303091D01*
G01*
X017684348Y018216648D01*
G01*
X017746529Y018140880D01*
G01*
X017822297Y018078698D01*
G01*
X017908741Y018032494D01*
G01*
X018002537Y018004041D01*
G01*
X018100082Y017994433D01*
G37*
D36*
G36*
X019340000Y013595000D02*
G01*
X019422913Y013603166D01*
G01*
X019502640Y013627351D01*
G01*
X019576117Y013666625D01*
G01*
X019640520Y013719480D01*
G01*
X019693375Y013783883D01*
G01*
X019732649Y013857360D01*
G01*
X019756834Y013937087D01*
G01*
X019765000Y014020000D01*
G01*
X019761764Y014052855D01*
G01*
X021060908Y015352000D01*
G01*
X021411536Y015352000D01*
G01*
X021432480Y015326480D01*
G01*
X021496883Y015273625D01*
G01*
X021570360Y015234351D01*
G01*
X021650087Y015210166D01*
G01*
X021733000Y015202000D01*
G01*
X021815913Y015210166D01*
G01*
X021895640Y015234351D01*
G01*
X021969117Y015273625D01*
G01*
X022033520Y015326480D01*
G01*
X022086375Y015390883D01*
G01*
X022125649Y015464360D01*
G01*
X022149834Y015544087D01*
G01*
X022158000Y015627000D01*
G01*
X022149834Y015709913D01*
G01*
X022125649Y015789640D01*
G01*
X022086375Y015863117D01*
G01*
X022033520Y015927520D01*
G01*
X021969117Y015980375D01*
G01*
X021895640Y016019649D01*
G01*
X021815913Y016043834D01*
G01*
X021733000Y016052000D01*
G01*
X021650087Y016043834D01*
G01*
X021570360Y016019649D01*
G01*
X021496883Y015980375D01*
G01*
X021432480Y015927520D01*
G01*
X021411536Y015902000D01*
G01*
X020947000Y015902000D01*
G01*
X020902575Y015897625D01*
G01*
X021130075Y016125125D01*
G01*
X021955806Y016125125D01*
G01*
X021966625Y016104883D01*
G01*
X022019480Y016040480D01*
G01*
X022083883Y015987625D01*
G01*
X022157360Y015948351D01*
G01*
X022237087Y015924166D01*
G01*
X022320000Y015916000D01*
G01*
X022402913Y015924166D01*
G01*
X022482640Y015948351D01*
G01*
X022556117Y015987625D01*
G01*
X022620520Y016040480D01*
G01*
X022673375Y016104883D01*
G01*
X022712649Y016178360D01*
G01*
X022736834Y016258087D01*
G01*
X022745000Y016341000D01*
G01*
X022736834Y016423913D01*
G01*
X022712649Y016503640D01*
G01*
X022673375Y016577117D01*
G01*
X022620520Y016641520D01*
G01*
X022556117Y016694375D01*
G01*
X022482640Y016733649D01*
G01*
X022402913Y016757834D01*
G01*
X022320000Y016766000D01*
G01*
X022237087Y016757834D01*
G01*
X022157360Y016733649D01*
G01*
X022083883Y016694375D01*
G01*
X022060427Y016675125D01*
G01*
X021016166Y016675125D01*
G01*
X020962516Y016669841D01*
G01*
X020910928Y016654192D01*
G01*
X020863384Y016628779D01*
G01*
X020821712Y016594579D01*
G01*
X018905705Y014678573D01*
G01*
X018309169Y014678573D01*
G01*
X018323375Y014695883D01*
G01*
X018362649Y014769360D01*
G01*
X018386834Y014849087D01*
G01*
X018389582Y014876984D01*
G01*
X018879812Y014876984D01*
G01*
X018933461Y014882268D01*
G01*
X018985049Y014897917D01*
G01*
X019032593Y014923330D01*
G01*
X019074266Y014957530D01*
G01*
X022029240Y017912504D01*
G01*
X022063440Y017954177D01*
G01*
X022088853Y018001721D01*
G01*
X022104502Y018053309D01*
G01*
X022109580Y018104863D01*
G01*
X022135306Y018125976D01*
G01*
X022188160Y018190379D01*
G01*
X022227435Y018263856D01*
G01*
X022251620Y018343583D01*
G01*
X022259786Y018426497D01*
G01*
X022251620Y018509410D01*
G01*
X022227435Y018589137D01*
G01*
X022188160Y018662614D01*
G01*
X022135306Y018727017D01*
G01*
X022070903Y018779871D01*
G01*
X021997426Y018819146D01*
G01*
X021917699Y018843330D01*
G01*
X021834786Y018851497D01*
G01*
X021751872Y018843330D01*
G01*
X021672145Y018819146D01*
G01*
X021598668Y018779871D01*
G01*
X021534265Y018727017D01*
G01*
X021481411Y018662614D01*
G01*
X021442137Y018589137D01*
G01*
X021417952Y018509410D01*
G01*
X021409786Y018426497D01*
G01*
X021417952Y018343583D01*
G01*
X021442137Y018263856D01*
G01*
X021481411Y018190379D01*
G01*
X021502996Y018164078D01*
G01*
X019260061Y015921143D01*
G01*
X019256834Y015953913D01*
G01*
X019232649Y016033640D01*
G01*
X019193375Y016107117D01*
G01*
X019140520Y016171520D01*
G01*
X019076117Y016224375D01*
G01*
X019002640Y016263649D01*
G01*
X018922913Y016287834D01*
G01*
X018840000Y016296000D01*
G01*
X018757087Y016287834D01*
G01*
X018677360Y016263649D01*
G01*
X018603883Y016224375D01*
G01*
X018539480Y016171520D01*
G01*
X018518536Y016146000D01*
G01*
X016939257Y016146000D01*
G01*
X016926520Y016161520D01*
G01*
X016862117Y016214375D01*
G01*
X016788640Y016253649D01*
G01*
X016708913Y016277834D01*
G01*
X016626000Y016286000D01*
G01*
X016543087Y016277834D01*
G01*
X016463360Y016253649D01*
G01*
X016389883Y016214375D01*
G01*
X016325480Y016161520D01*
G01*
X016272625Y016097117D01*
G01*
X016233351Y016023640D01*
G01*
X016209166Y015943913D01*
G01*
X016209061Y015942847D01*
G01*
X015987764Y016164144D01*
G01*
X015991000Y016197000D01*
G01*
X015982834Y016279913D01*
G01*
X015958649Y016359640D01*
G01*
X015919375Y016433117D01*
G01*
X015866520Y016497520D01*
G01*
X015802117Y016550375D01*
G01*
X015728640Y016589649D01*
G01*
X015648913Y016613834D01*
G01*
X015566000Y016622000D01*
G01*
X015483087Y016613834D01*
G01*
X015403360Y016589649D01*
G01*
X015329883Y016550375D01*
G01*
X015265480Y016497520D01*
G01*
X015212625Y016433117D01*
G01*
X015173351Y016359640D01*
G01*
X015149166Y016279913D01*
G01*
X015141000Y016197000D01*
G01*
X015149166Y016114087D01*
G01*
X015173351Y016034360D01*
G01*
X015212625Y015960883D01*
G01*
X015265480Y015896480D01*
G01*
X015329883Y015843625D01*
G01*
X015403360Y015804351D01*
G01*
X015483087Y015780166D01*
G01*
X015566000Y015772000D01*
G01*
X015598856Y015775236D01*
G01*
X017093644Y014280447D01*
G01*
X016232462Y014280447D01*
G01*
X016007764Y014505144D01*
G01*
X016011000Y014538000D01*
G01*
X016002834Y014620913D01*
G01*
X015978649Y014700640D01*
G01*
X015939375Y014774117D01*
G01*
X015886520Y014838520D01*
G01*
X015822117Y014891375D01*
G01*
X015748640Y014930649D01*
G01*
X015668913Y014954834D01*
G01*
X015586000Y014963000D01*
G01*
X015503087Y014954834D01*
G01*
X015423360Y014930649D01*
G01*
X015349883Y014891375D01*
G01*
X015285480Y014838520D01*
G01*
X015232625Y014774117D01*
G01*
X015193351Y014700640D01*
G01*
X015169166Y014620913D01*
G01*
X015161000Y014538000D01*
G01*
X015169166Y014455087D01*
G01*
X015193351Y014375360D01*
G01*
X015232625Y014301883D01*
G01*
X015285480Y014237480D01*
G01*
X015349883Y014184625D01*
G01*
X015423360Y014145351D01*
G01*
X015503087Y014121166D01*
G01*
X015586000Y014113000D01*
G01*
X015618856Y014116236D01*
G01*
X015924098Y013810993D01*
G01*
X015965771Y013776793D01*
G01*
X016013315Y013751381D01*
G01*
X016064903Y013735731D01*
G01*
X016118553Y013730447D01*
G01*
X019030479Y013730447D01*
G01*
X019039480Y013719480D01*
G01*
X019103883Y013666625D01*
G01*
X019177360Y013627351D01*
G01*
X019257087Y013603166D01*
G01*
X019340000Y013595000D01*
G37*
D36*
G36*
X016524888Y016809083D02*
G01*
X016524888Y017015832D01*
G01*
X016445278Y017039981D01*
G01*
X016341547Y017095427D01*
G01*
X016250625Y017170044D01*
G01*
X016176007Y017260966D01*
G01*
X016120561Y017364698D01*
G01*
X016086418Y017477254D01*
G01*
X016074889Y017594308D01*
G01*
X016074889Y017844307D01*
G01*
X015874889Y017844307D01*
G01*
X015874889Y017594308D01*
G01*
X015890261Y017438236D01*
G01*
X015935785Y017288161D01*
G01*
X016009713Y017149852D01*
G01*
X016109203Y017028623D01*
G01*
X016230432Y016929133D01*
G01*
X016368742Y016855205D01*
G01*
X016518816Y016809681D01*
G01*
X016524888Y016809083D01*
G37*
D36*
G36*
X016824888Y016809083D02*
G01*
X016830960Y016809681D01*
G01*
X016981034Y016855205D01*
G01*
X017119344Y016929133D01*
G01*
X017240573Y017028623D01*
G01*
X017340063Y017149852D01*
G01*
X017413991Y017288161D01*
G01*
X017459515Y017438236D01*
G01*
X017474887Y017594308D01*
G01*
X017474887Y017844307D01*
G01*
X017274887Y017844307D01*
G01*
X017274887Y017594308D01*
G01*
X017263358Y017477254D01*
G01*
X017229215Y017364698D01*
G01*
X017173769Y017260966D01*
G01*
X017099151Y017170044D01*
G01*
X017008229Y017095427D01*
G01*
X016904498Y017039981D01*
G01*
X016824888Y017015832D01*
G01*
X016824888Y016809083D01*
G37*
D36*
G36*
X025175112Y016809083D02*
G01*
X025175112Y017015832D01*
G01*
X025095502Y017039981D01*
G01*
X024991771Y017095427D01*
G01*
X024900849Y017170044D01*
G01*
X024826231Y017260966D01*
G01*
X024770785Y017364698D01*
G01*
X024736642Y017477254D01*
G01*
X024725113Y017594308D01*
G01*
X024725113Y017844307D01*
G01*
X024525113Y017844307D01*
G01*
X024525113Y017594308D01*
G01*
X024540485Y017438236D01*
G01*
X024586009Y017288161D01*
G01*
X024659937Y017149852D01*
G01*
X024759427Y017028623D01*
G01*
X024880656Y016929133D01*
G01*
X025018966Y016855205D01*
G01*
X025169040Y016809681D01*
G01*
X025175112Y016809083D01*
G37*
D36*
G36*
X025475112Y016809083D02*
G01*
X025481184Y016809681D01*
G01*
X025631258Y016855205D01*
G01*
X025769568Y016929133D01*
G01*
X025890797Y017028623D01*
G01*
X025990287Y017149852D01*
G01*
X026064215Y017288161D01*
G01*
X026109739Y017438236D01*
G01*
X026125111Y017594308D01*
G01*
X026125111Y017844307D01*
G01*
X025925111Y017844307D01*
G01*
X025925111Y017594308D01*
G01*
X025913582Y017477254D01*
G01*
X025879439Y017364698D01*
G01*
X025823993Y017260966D01*
G01*
X025749375Y017170044D01*
G01*
X025658453Y017095427D01*
G01*
X025554722Y017039981D01*
G01*
X025475112Y017015832D01*
G01*
X025475112Y016809083D01*
G37*
D36*
G36*
X-12200000Y004175000D02*
G01*
X-12117087Y004183166D01*
G01*
X-12037360Y004207351D01*
G01*
X-11963883Y004246625D01*
G01*
X-11899480Y004299480D01*
G01*
X-11878536Y004325000D01*
G01*
X-08130000Y004325000D01*
G01*
X-08076350Y004330284D01*
G01*
X-08024762Y004345933D01*
G01*
X-07977218Y004371346D01*
G01*
X-07935546Y004405546D01*
G01*
X-06175157Y006165935D01*
G01*
X-06093549Y006122314D01*
G01*
X-05915336Y006068254D01*
G01*
X-05730000Y006050000D01*
G01*
X-05544664Y006068254D01*
G01*
X-05366451Y006122314D01*
G01*
X-05202208Y006210104D01*
G01*
X-05058249Y006328249D01*
G01*
X-04940104Y006472208D01*
G01*
X-04852314Y006636451D01*
G01*
X-04798254Y006814664D01*
G01*
X-04780000Y007000000D01*
G01*
X-04798254Y007185336D01*
G01*
X-04852314Y007363549D01*
G01*
X-04940104Y007527792D01*
G01*
X-05056856Y007670054D01*
G01*
X-03863144Y007670054D01*
G01*
X-03979896Y007527792D01*
G01*
X-04067686Y007363549D01*
G01*
X-04121746Y007185336D01*
G01*
X-04140000Y007000000D01*
G01*
X-04121746Y006814664D01*
G01*
X-04067686Y006636451D01*
G01*
X-03979896Y006472208D01*
G01*
X-03861751Y006328249D01*
G01*
X-03717792Y006210104D01*
G01*
X-03553549Y006122314D01*
G01*
X-03375336Y006068254D01*
G01*
X-03190000Y006050000D01*
G01*
X-03004664Y006068254D01*
G01*
X-02826451Y006122314D01*
G01*
X-02662208Y006210104D01*
G01*
X-02518249Y006328249D01*
G01*
X-02400104Y006472208D01*
G01*
X-02312314Y006636451D01*
G01*
X-02258254Y006814664D01*
G01*
X-02240000Y007000000D01*
G01*
X-02258254Y007185336D01*
G01*
X-02312314Y007363549D01*
G01*
X-02400104Y007527792D01*
G01*
X-02516856Y007670054D01*
G01*
X002066037Y007670054D01*
G01*
X003903236Y005832856D01*
G01*
X003900000Y005800000D01*
G01*
X003908166Y005717087D01*
G01*
X003932351Y005637360D01*
G01*
X003971625Y005563883D01*
G01*
X004024480Y005499480D01*
G01*
X004088883Y005446625D01*
G01*
X004162360Y005407351D01*
G01*
X004242087Y005383166D01*
G01*
X004325000Y005375000D01*
G01*
X004407913Y005383166D01*
G01*
X004487640Y005407351D01*
G01*
X004561117Y005446625D01*
G01*
X004625520Y005499480D01*
G01*
X004678375Y005563883D01*
G01*
X004694787Y005594587D01*
G01*
X004756883Y005543625D01*
G01*
X004830360Y005504351D01*
G01*
X004910087Y005480166D01*
G01*
X004993000Y005472000D01*
G01*
X005075913Y005480166D01*
G01*
X005155640Y005504351D01*
G01*
X005229117Y005543625D01*
G01*
X005293520Y005596480D01*
G01*
X005346375Y005660883D01*
G01*
X005385649Y005734360D01*
G01*
X005409834Y005814087D01*
G01*
X005418000Y005897000D01*
G01*
X005409834Y005979913D01*
G01*
X005385649Y006059640D01*
G01*
X005346375Y006133117D01*
G01*
X005293520Y006197520D01*
G01*
X005229117Y006250375D01*
G01*
X005155640Y006289649D01*
G01*
X005075913Y006313834D01*
G01*
X004993000Y006322000D01*
G01*
X004960145Y006318764D01*
G01*
X004887642Y006391267D01*
G01*
X004845970Y006425466D01*
G01*
X004798426Y006450879D01*
G01*
X004746838Y006466528D01*
G01*
X004693188Y006471812D01*
G01*
X004677638Y006471812D01*
G01*
X004505723Y006471812D01*
G01*
X004178776Y006798759D01*
G01*
X005282332Y006798759D01*
G01*
X005285374Y006795717D01*
G01*
X005279000Y006731000D01*
G01*
X005287166Y006648087D01*
G01*
X005311351Y006568360D01*
G01*
X005350625Y006494883D01*
G01*
X005403480Y006430480D01*
G01*
X005467883Y006377625D01*
G01*
X005541360Y006338351D01*
G01*
X005621087Y006314166D01*
G01*
X005704000Y006306000D01*
G01*
X005786913Y006314166D01*
G01*
X005866640Y006338351D01*
G01*
X005940117Y006377625D01*
G01*
X006004520Y006430480D01*
G01*
X006057375Y006494883D01*
G01*
X006096649Y006568360D01*
G01*
X006120834Y006648087D01*
G01*
X006129000Y006731000D01*
G01*
X006120834Y006813913D01*
G01*
X006096649Y006893640D01*
G01*
X006057375Y006967117D01*
G01*
X006004520Y007031520D01*
G01*
X005940117Y007084375D01*
G01*
X005866640Y007123649D01*
G01*
X005786913Y007147834D01*
G01*
X005704000Y007156000D01*
G01*
X005703007Y007155902D01*
G01*
X005590695Y007268214D01*
G01*
X005549023Y007302413D01*
G01*
X005537188Y007308739D01*
G01*
X006305416Y007308739D01*
G01*
X006359066Y007314023D01*
G01*
X006410654Y007329672D01*
G01*
X006458198Y007355084D01*
G01*
X006499871Y007389284D01*
G01*
X006569201Y007458614D01*
G01*
X010194454Y011083868D01*
G01*
X010228654Y011125540D01*
G01*
X010254067Y011173084D01*
G01*
X010269716Y011224672D01*
G01*
X010275000Y011278322D01*
G01*
X010275000Y012078536D01*
G01*
X010300520Y012099480D01*
G01*
X010353375Y012163883D01*
G01*
X010392649Y012237360D01*
G01*
X010416834Y012317087D01*
G01*
X010425000Y012400000D01*
G01*
X010416834Y012482913D01*
G01*
X010392649Y012562640D01*
G01*
X010365930Y012612628D01*
G01*
X014925739Y012612628D01*
G01*
X014935344Y012600925D01*
G01*
X016599502Y010936767D01*
G01*
X016583166Y010882913D01*
G01*
X016575000Y010800000D01*
G01*
X016583166Y010717087D01*
G01*
X016607351Y010637360D01*
G01*
X016646625Y010563883D01*
G01*
X016699480Y010499480D01*
G01*
X016763883Y010446625D01*
G01*
X016837360Y010407351D01*
G01*
X016917087Y010383166D01*
G01*
X017000000Y010375000D01*
G01*
X017082913Y010383166D01*
G01*
X017162640Y010407351D01*
G01*
X017236117Y010446625D01*
G01*
X017300520Y010499480D01*
G01*
X017353375Y010563883D01*
G01*
X017392649Y010637360D01*
G01*
X017416834Y010717087D01*
G01*
X017425000Y010800000D01*
G01*
X017416834Y010882913D01*
G01*
X017392649Y010962640D01*
G01*
X017353375Y011036117D01*
G01*
X017300520Y011100520D01*
G01*
X017236117Y011153375D01*
G01*
X017162640Y011192649D01*
G01*
X017103496Y011210590D01*
G01*
X015402432Y012911654D01*
G01*
X015399514Y012941278D01*
G01*
X015383865Y012992866D01*
G01*
X015358452Y013040410D01*
G01*
X015324253Y013082083D01*
G01*
X015282580Y013116282D01*
G01*
X015235036Y013141695D01*
G01*
X015183448Y013157344D01*
G01*
X015129798Y013162628D01*
G01*
X009370407Y013162628D01*
G01*
X009380752Y013171118D01*
G01*
X009433607Y013235521D01*
G01*
X009472881Y013308998D01*
G01*
X009497066Y013388725D01*
G01*
X009505232Y013471638D01*
G01*
X009497414Y013551016D01*
G01*
X009503701Y013571741D01*
G01*
X009508985Y013625391D01*
G01*
X009508985Y016156181D01*
G01*
X009508985Y016232117D01*
G01*
X009503701Y016285767D01*
G01*
X009488052Y016337355D01*
G01*
X009462639Y016384899D01*
G01*
X009428439Y016426572D01*
G01*
X009127557Y016727454D01*
G01*
X009085884Y016761654D01*
G01*
X009038340Y016787067D01*
G01*
X008986752Y016802716D01*
G01*
X008933102Y016808000D01*
G01*
X008601464Y016808000D01*
G01*
X008580520Y016833520D01*
G01*
X008516117Y016886375D01*
G01*
X008442640Y016925649D01*
G01*
X008362913Y016949834D01*
G01*
X008280000Y016958000D01*
G01*
X008197087Y016949834D01*
G01*
X008117360Y016925649D01*
G01*
X008043883Y016886375D01*
G01*
X007979480Y016833520D01*
G01*
X007926625Y016769117D01*
G01*
X007887351Y016695640D01*
G01*
X007863166Y016615913D01*
G01*
X007855000Y016533000D01*
G01*
X007863166Y016450087D01*
G01*
X007887351Y016370360D01*
G01*
X007926625Y016296883D01*
G01*
X007979480Y016232480D01*
G01*
X008043883Y016179625D01*
G01*
X008117360Y016140351D01*
G01*
X008197087Y016116166D01*
G01*
X008280000Y016108000D01*
G01*
X008347894Y016114687D01*
G01*
X008343000Y016065000D01*
G01*
X008346236Y016032144D01*
G01*
X007544670Y015230579D01*
G01*
X007559696Y015280112D01*
G01*
X007567862Y015363025D01*
G01*
X007559696Y015445939D01*
G01*
X007535511Y015525666D01*
G01*
X007496237Y015599143D01*
G01*
X007443382Y015663546D01*
G01*
X007378979Y015716400D01*
G01*
X007305503Y015755674D01*
G01*
X007225775Y015779859D01*
G01*
X007142862Y015788025D01*
G01*
X007059949Y015779859D01*
G01*
X006980222Y015755674D01*
G01*
X006906745Y015716400D01*
G01*
X006842342Y015663546D01*
G01*
X006789487Y015599143D01*
G01*
X006765903Y015555020D01*
G01*
X006050460Y015570782D01*
G01*
X006050448Y015570253D01*
G01*
X006044403Y015570849D01*
G01*
X005999859Y015566461D01*
G01*
X005982878Y015622439D01*
G01*
X005943604Y015695916D01*
G01*
X005890750Y015760319D01*
G01*
X005826347Y015813173D01*
G01*
X005752870Y015852448D01*
G01*
X005673143Y015876632D01*
G01*
X005590230Y015884799D01*
G01*
X005507316Y015876632D01*
G01*
X005427589Y015852448D01*
G01*
X005354112Y015813173D01*
G01*
X005289709Y015760319D01*
G01*
X005236855Y015695916D01*
G01*
X005197581Y015622439D01*
G01*
X005173396Y015542712D01*
G01*
X005165691Y015464480D01*
G01*
X005089852Y015388642D01*
G01*
X005046968Y015411564D01*
G01*
X004967241Y015435749D01*
G01*
X004884328Y015443915D01*
G01*
X004801414Y015435749D01*
G01*
X004721687Y015411564D01*
G01*
X004648210Y015372290D01*
G01*
X004583807Y015319436D01*
G01*
X004530953Y015255033D01*
G01*
X004491679Y015181556D01*
G01*
X004467494Y015101829D01*
G01*
X004459328Y015018915D01*
G01*
X004467494Y014936002D01*
G01*
X004491679Y014856275D01*
G01*
X004530953Y014782798D01*
G01*
X004583807Y014718395D01*
G01*
X004648210Y014665541D01*
G01*
X004721687Y014626266D01*
G01*
X004801414Y014602082D01*
G01*
X004884328Y014593915D01*
G01*
X004962937Y014601658D01*
G01*
X003472484Y013108462D01*
G01*
X-01094477Y013092147D01*
G01*
X-01114480Y013116520D01*
G01*
X-01178883Y013169375D01*
G01*
X-01252360Y013208649D01*
G01*
X-01332087Y013232834D01*
G01*
X-01415000Y013241000D01*
G01*
X-01497913Y013232834D01*
G01*
X-01577640Y013208649D01*
G01*
X-01651117Y013169375D01*
G01*
X-01715520Y013116520D01*
G01*
X-01768375Y013052117D01*
G01*
X-01807649Y012978640D01*
G01*
X-01831834Y012898913D01*
G01*
X-01840000Y012816000D01*
G01*
X-01831834Y012733087D01*
G01*
X-01807649Y012653360D01*
G01*
X-01768375Y012579883D01*
G01*
X-01715520Y012515480D01*
G01*
X-01651117Y012462625D01*
G01*
X-01577640Y012423351D01*
G01*
X-01497913Y012399166D01*
G01*
X-01415000Y012391000D01*
G01*
X-01332087Y012399166D01*
G01*
X-01252360Y012423351D01*
G01*
X-01178883Y012462625D01*
G01*
X-01114480Y012515480D01*
G01*
X-01092592Y012542150D01*
G01*
X003587929Y012558871D01*
G01*
X003587929Y012558966D01*
G01*
X003640597Y012564153D01*
G01*
X003692185Y012579802D01*
G01*
X003739729Y012605215D01*
G01*
X003781401Y012639415D01*
G01*
X003781562Y012639612D01*
G01*
X003781580Y012639594D01*
G01*
X004541001Y013400413D01*
G01*
X004553028Y011955898D01*
G01*
X003619573Y011022443D01*
G01*
X003619573Y011486664D01*
G01*
X003943144Y011810236D01*
G01*
X003976000Y011807000D01*
G01*
X004058913Y011815166D01*
G01*
X004138640Y011839351D01*
G01*
X004212117Y011878625D01*
G01*
X004276520Y011931480D01*
G01*
X004329375Y011995883D01*
G01*
X004368649Y012069360D01*
G01*
X004392834Y012149087D01*
G01*
X004401000Y012232000D01*
G01*
X004392834Y012314913D01*
G01*
X004368649Y012394640D01*
G01*
X004329375Y012468117D01*
G01*
X004276520Y012532520D01*
G01*
X004212117Y012585375D01*
G01*
X004138640Y012624649D01*
G01*
X004058913Y012648834D01*
G01*
X003976000Y012657000D01*
G01*
X003893087Y012648834D01*
G01*
X003813360Y012624649D01*
G01*
X003739883Y012585375D01*
G01*
X003675480Y012532520D01*
G01*
X003622625Y012468117D01*
G01*
X003583351Y012394640D01*
G01*
X003559166Y012314913D01*
G01*
X003551000Y012232000D01*
G01*
X003554236Y012199144D01*
G01*
X003150119Y011795028D01*
G01*
X003115919Y011753355D01*
G01*
X003090506Y011705811D01*
G01*
X003074857Y011654223D01*
G01*
X003069573Y011600573D01*
G01*
X003069573Y008002217D01*
G01*
X003069573Y007907962D01*
G01*
X002492144Y008485391D01*
G01*
X002450472Y008519590D01*
G01*
X002402928Y008545003D01*
G01*
X002351340Y008560652D01*
G01*
X002297690Y008565936D01*
G01*
X-05812414Y008565936D01*
G01*
X-07163404Y009916926D01*
G01*
X-07205077Y009951126D01*
G01*
X-07252621Y009976539D01*
G01*
X-07304209Y009992188D01*
G01*
X-07357859Y009997472D01*
G01*
X-16680493Y009997472D01*
G01*
X-16734143Y009992188D01*
G01*
X-16785731Y009976539D01*
G01*
X-16833275Y009951126D01*
G01*
X-16874948Y009916926D01*
G01*
X-18889872Y007902002D01*
G01*
X-18922727Y007905238D01*
G01*
X-19005641Y007897072D01*
G01*
X-19085368Y007872887D01*
G01*
X-19158845Y007833612D01*
G01*
X-19223248Y007780758D01*
G01*
X-19276102Y007716355D01*
G01*
X-19315376Y007642878D01*
G01*
X-19339561Y007563151D01*
G01*
X-19347727Y007480238D01*
G01*
X-19339561Y007397324D01*
G01*
X-19315376Y007317597D01*
G01*
X-19276102Y007244120D01*
G01*
X-19223248Y007179717D01*
G01*
X-19158845Y007126863D01*
G01*
X-19085368Y007087589D01*
G01*
X-19005641Y007063404D01*
G01*
X-18922727Y007055238D01*
G01*
X-18839814Y007063404D01*
G01*
X-18760087Y007087589D01*
G01*
X-18686610Y007126863D01*
G01*
X-18622207Y007179717D01*
G01*
X-18569353Y007244120D01*
G01*
X-18530079Y007317597D01*
G01*
X-18505894Y007397324D01*
G01*
X-18497727Y007480238D01*
G01*
X-18500963Y007513093D01*
G01*
X-16566585Y009447472D01*
G01*
X-15562216Y009447472D01*
G01*
X-15611905Y009432399D01*
G01*
X-15659449Y009406987D01*
G01*
X-15701122Y009372787D01*
G01*
X-16102145Y008971764D01*
G01*
X-16135000Y008975000D01*
G01*
X-16217913Y008966834D01*
G01*
X-16297640Y008942649D01*
G01*
X-16371117Y008903375D01*
G01*
X-16435520Y008850520D01*
G01*
X-16488375Y008786117D01*
G01*
X-16527649Y008712640D01*
G01*
X-16551834Y008632913D01*
G01*
X-16560000Y008550000D01*
G01*
X-16551834Y008467087D01*
G01*
X-16527649Y008387360D01*
G01*
X-16488375Y008313883D01*
G01*
X-16435520Y008249480D01*
G01*
X-16371117Y008196625D01*
G01*
X-16297640Y008157351D01*
G01*
X-16217913Y008133166D01*
G01*
X-16135000Y008125000D01*
G01*
X-16052087Y008133166D01*
G01*
X-15972360Y008157351D01*
G01*
X-15898883Y008196625D01*
G01*
X-15834480Y008249480D01*
G01*
X-15781625Y008313883D01*
G01*
X-15742351Y008387360D01*
G01*
X-15718166Y008467087D01*
G01*
X-15710000Y008550000D01*
G01*
X-15713236Y008582855D01*
G01*
X-15392759Y008903332D01*
G01*
X-11887061Y008903332D01*
G01*
X-11866117Y008877812D01*
G01*
X-11801714Y008824958D01*
G01*
X-11728237Y008785684D01*
G01*
X-11648510Y008761499D01*
G01*
X-11565596Y008753332D01*
G01*
X-11482683Y008761499D01*
G01*
X-11402956Y008785684D01*
G01*
X-11329479Y008824958D01*
G01*
X-11265076Y008877812D01*
G01*
X-11212222Y008942215D01*
G01*
X-11172948Y009015692D01*
G01*
X-11148763Y009095419D01*
G01*
X-11140596Y009178332D01*
G01*
X-11148763Y009261246D01*
G01*
X-11172948Y009340973D01*
G01*
X-11212222Y009414450D01*
G01*
X-11239322Y009447472D01*
G01*
X-07471767Y009447472D01*
G01*
X-06244349Y008220054D01*
G01*
X-14989158Y008220054D01*
G01*
X-15042808Y008214770D01*
G01*
X-15094396Y008199120D01*
G01*
X-15141940Y008173708D01*
G01*
X-15183612Y008139508D01*
G01*
X-17637568Y005685552D01*
G01*
X-18961330Y005685552D01*
G01*
X-18970539Y005694761D01*
G01*
X-18965000Y005751000D01*
G01*
X-18973166Y005833913D01*
G01*
X-18997351Y005913640D01*
G01*
X-19036625Y005987117D01*
G01*
X-19089480Y006051520D01*
G01*
X-19153883Y006104375D01*
G01*
X-19227360Y006143649D01*
G01*
X-19307087Y006167834D01*
G01*
X-19390000Y006176000D01*
G01*
X-19472913Y006167834D01*
G01*
X-19552640Y006143649D01*
G01*
X-19626117Y006104375D01*
G01*
X-19690520Y006051520D01*
G01*
X-19743375Y005987117D01*
G01*
X-19782649Y005913640D01*
G01*
X-19806834Y005833913D01*
G01*
X-19815000Y005751000D01*
G01*
X-19806834Y005668087D01*
G01*
X-19782649Y005588360D01*
G01*
X-19743375Y005514883D01*
G01*
X-19690520Y005450480D01*
G01*
X-19626117Y005397625D01*
G01*
X-19552640Y005358351D01*
G01*
X-19472913Y005334166D01*
G01*
X-19390000Y005326000D01*
G01*
X-19380528Y005326933D01*
G01*
X-19269693Y005216097D01*
G01*
X-19228020Y005181897D01*
G01*
X-19180476Y005156485D01*
G01*
X-19128888Y005140836D01*
G01*
X-19075238Y005135552D01*
G01*
X-17523660Y005135552D01*
G01*
X-17470010Y005140836D01*
G01*
X-17418422Y005156485D01*
G01*
X-17370878Y005181897D01*
G01*
X-17329206Y005216097D01*
G01*
X-14875249Y007670054D01*
G01*
X-11760000Y007670054D01*
G01*
X-11760000Y006050000D01*
G01*
X-09860000Y006050000D01*
G01*
X-09860000Y007670054D01*
G01*
X-08943144Y007670054D01*
G01*
X-09059896Y007527792D01*
G01*
X-09147686Y007363549D01*
G01*
X-09201746Y007185336D01*
G01*
X-09205226Y007150000D01*
G01*
X-09004472Y007150000D01*
G01*
X-08962910Y007287013D01*
G01*
X-08893602Y007416678D01*
G01*
X-08800330Y007530330D01*
G01*
X-08686678Y007623602D01*
G01*
X-08599773Y007670054D01*
G01*
X-07940227Y007670054D01*
G01*
X-07853322Y007623602D01*
G01*
X-07739670Y007530330D01*
G01*
X-07646398Y007416678D01*
G01*
X-07577090Y007287013D01*
G01*
X-07535528Y007150000D01*
G01*
X-07334774Y007150000D01*
G01*
X-07338254Y007185336D01*
G01*
X-07392314Y007363549D01*
G01*
X-07480104Y007527792D01*
G01*
X-07596856Y007670054D01*
G01*
X-06403144Y007670054D01*
G01*
X-06519896Y007527792D01*
G01*
X-06607686Y007363549D01*
G01*
X-06661746Y007185336D01*
G01*
X-06680000Y007000000D01*
G01*
X-06661746Y006814664D01*
G01*
X-06607686Y006636451D01*
G01*
X-06564065Y006554843D01*
G01*
X-08243908Y004875000D01*
G01*
X-11878536Y004875000D01*
G01*
X-11899480Y004900520D01*
G01*
X-11963883Y004953375D01*
G01*
X-12037360Y004992649D01*
G01*
X-12117087Y005016834D01*
G01*
X-12200000Y005025000D01*
G01*
X-12282913Y005016834D01*
G01*
X-12362640Y004992649D01*
G01*
X-12436117Y004953375D01*
G01*
X-12500520Y004900520D01*
G01*
X-12553375Y004836117D01*
G01*
X-12592649Y004762640D01*
G01*
X-12616834Y004682913D01*
G01*
X-12625000Y004600000D01*
G01*
X-12616834Y004517087D01*
G01*
X-12592649Y004437360D01*
G01*
X-12553375Y004363883D01*
G01*
X-12500520Y004299480D01*
G01*
X-12436117Y004246625D01*
G01*
X-12362640Y004207351D01*
G01*
X-12282913Y004183166D01*
G01*
X-12200000Y004175000D01*
G37*
D36*
G36*
X-01800000Y014375000D02*
G01*
X-01717087Y014383166D01*
G01*
X-01637360Y014407351D01*
G01*
X-01563883Y014446625D01*
G01*
X-01499480Y014499480D01*
G01*
X-01446625Y014563883D01*
G01*
X-01407351Y014637360D01*
G01*
X-01383166Y014717087D01*
G01*
X-01375000Y014800000D01*
G01*
X-01383166Y014882913D01*
G01*
X-01407351Y014962640D01*
G01*
X-01446625Y015036117D01*
G01*
X-01499480Y015100520D01*
G01*
X-01563883Y015153375D01*
G01*
X-01637360Y015192649D01*
G01*
X-01717087Y015216834D01*
G01*
X-01800000Y015225000D01*
G01*
X-01833171Y015221733D01*
G01*
X-02156892Y015545454D01*
G01*
X-02198565Y015579654D01*
G01*
X-02246109Y015605067D01*
G01*
X-02297697Y015620716D01*
G01*
X-02351346Y015626000D01*
G01*
X-05231536Y015626000D01*
G01*
X-05252480Y015651520D01*
G01*
X-05316883Y015704375D01*
G01*
X-05390360Y015743649D01*
G01*
X-05470087Y015767834D01*
G01*
X-05553000Y015776000D01*
G01*
X-05635913Y015767834D01*
G01*
X-05715640Y015743649D01*
G01*
X-05789117Y015704375D01*
G01*
X-05853520Y015651520D01*
G01*
X-05906375Y015587117D01*
G01*
X-05945649Y015513640D01*
G01*
X-05969834Y015433913D01*
G01*
X-05978000Y015351000D01*
G01*
X-05969834Y015268087D01*
G01*
X-05945649Y015188360D01*
G01*
X-05906375Y015114883D01*
G01*
X-05853520Y015050480D01*
G01*
X-05789117Y014997625D01*
G01*
X-05715640Y014958351D01*
G01*
X-05635913Y014934166D01*
G01*
X-05553000Y014926000D01*
G01*
X-05470087Y014934166D01*
G01*
X-05390360Y014958351D01*
G01*
X-05316883Y014997625D01*
G01*
X-05252480Y015050480D01*
G01*
X-05231536Y015076000D01*
G01*
X-02465255Y015076000D01*
G01*
X-02221795Y014832540D01*
G01*
X-02225000Y014800000D01*
G01*
X-02216834Y014717087D01*
G01*
X-02192649Y014637360D01*
G01*
X-02153375Y014563883D01*
G01*
X-02100520Y014499480D01*
G01*
X-02036117Y014446625D01*
G01*
X-01962640Y014407351D01*
G01*
X-01882913Y014383166D01*
G01*
X-01800000Y014375000D01*
G37*
D36*
G36*
X-07029515Y012035426D02*
G01*
X-06946601Y012043592D01*
G01*
X-06866874Y012067777D01*
G01*
X-06793397Y012107052D01*
G01*
X-06728994Y012159906D01*
G01*
X-06708050Y012185426D01*
G01*
X-06681431Y012185426D01*
G01*
X-06627781Y012190710D01*
G01*
X-06576193Y012206359D01*
G01*
X-06528649Y012231772D01*
G01*
X-06486976Y012265972D01*
G01*
X-06050277Y012702671D01*
G01*
X-06013000Y012699000D01*
G01*
X-05930087Y012707166D01*
G01*
X-05850360Y012731351D01*
G01*
X-05776883Y012770625D01*
G01*
X-05712480Y012823480D01*
G01*
X-05659625Y012887883D01*
G01*
X-05620351Y012961360D01*
G01*
X-05596166Y013041087D01*
G01*
X-05588000Y013124000D01*
G01*
X-05596166Y013206913D01*
G01*
X-05620351Y013286640D01*
G01*
X-05659625Y013360117D01*
G01*
X-05712480Y013424520D01*
G01*
X-05776883Y013477375D01*
G01*
X-05850360Y013516649D01*
G01*
X-05930087Y013540834D01*
G01*
X-06013000Y013549000D01*
G01*
X-06095913Y013540834D01*
G01*
X-06175640Y013516649D01*
G01*
X-06249117Y013477375D01*
G01*
X-06313520Y013424520D01*
G01*
X-06366375Y013360117D01*
G01*
X-06405649Y013286640D01*
G01*
X-06429834Y013206913D01*
G01*
X-06438000Y013124000D01*
G01*
X-06435200Y013095566D01*
G01*
X-06751417Y012779349D01*
G01*
X-06793397Y012813801D01*
G01*
X-06866874Y012853075D01*
G01*
X-06946601Y012877260D01*
G01*
X-07029515Y012885426D01*
G01*
X-07112428Y012877260D01*
G01*
X-07192155Y012853075D01*
G01*
X-07265632Y012813801D01*
G01*
X-07330035Y012760947D01*
G01*
X-07382889Y012696544D01*
G01*
X-07422164Y012623067D01*
G01*
X-07446348Y012543340D01*
G01*
X-07454515Y012460426D01*
G01*
X-07446348Y012377513D01*
G01*
X-07422164Y012297786D01*
G01*
X-07382889Y012224309D01*
G01*
X-07330035Y012159906D01*
G01*
X-07265632Y012107052D01*
G01*
X-07192155Y012067777D01*
G01*
X-07112428Y012043592D01*
G01*
X-07029515Y012035426D01*
G37*
D36*
G36*
X-28000000Y008800000D02*
G01*
X-27814664Y008818254D01*
G01*
X-27636451Y008872314D01*
G01*
X-27472208Y008960104D01*
G01*
X-27328249Y009078249D01*
G01*
X-27210104Y009222208D01*
G01*
X-27122314Y009386451D01*
G01*
X-27068254Y009564664D01*
G01*
X-27050000Y009750000D01*
G01*
X-27068254Y009935336D01*
G01*
X-27122314Y010113549D01*
G01*
X-27210104Y010277792D01*
G01*
X-27328249Y010421751D01*
G01*
X-27472208Y010539896D01*
G01*
X-27636451Y010627686D01*
G01*
X-27814664Y010681746D01*
G01*
X-28000000Y010700000D01*
G01*
X-28185336Y010681746D01*
G01*
X-28363549Y010627686D01*
G01*
X-28527792Y010539896D01*
G01*
X-28671751Y010421751D01*
G01*
X-28789896Y010277792D01*
G01*
X-28877686Y010113549D01*
G01*
X-28931746Y009935336D01*
G01*
X-28950000Y009750000D01*
G01*
X-28931746Y009564664D01*
G01*
X-28877686Y009386451D01*
G01*
X-28789896Y009222208D01*
G01*
X-28671751Y009078249D01*
G01*
X-28527792Y008960104D01*
G01*
X-28363549Y008872314D01*
G01*
X-28185336Y008818254D01*
G01*
X-28000000Y008800000D01*
G37*
D36*
G36*
X-25824000Y007603000D02*
G01*
X-25706946Y007614529D01*
G01*
X-25594390Y007648672D01*
G01*
X-25490658Y007704118D01*
G01*
X-25399736Y007778736D01*
G01*
X-24774736Y008403736D01*
G01*
X-24700118Y008494658D01*
G01*
X-24644672Y008598390D01*
G01*
X-24610529Y008710946D01*
G01*
X-24599000Y008828000D01*
G01*
X-24599000Y008863000D01*
G01*
X-24610529Y008980054D01*
G01*
X-24644672Y009092610D01*
G01*
X-24700118Y009196342D01*
G01*
X-24774736Y009287264D01*
G01*
X-24865658Y009361882D01*
G01*
X-24969390Y009417328D01*
G01*
X-25081946Y009451471D01*
G01*
X-25199000Y009463000D01*
G01*
X-25316054Y009451471D01*
G01*
X-25428610Y009417328D01*
G01*
X-25532342Y009361882D01*
G01*
X-25623264Y009287264D01*
G01*
X-25697882Y009196342D01*
G01*
X-25719350Y009156178D01*
G01*
X-26248264Y008627264D01*
G01*
X-26322882Y008536342D01*
G01*
X-26378328Y008432610D01*
G01*
X-26412471Y008320054D01*
G01*
X-26424000Y008203000D01*
G01*
X-26412471Y008085946D01*
G01*
X-26378328Y007973390D01*
G01*
X-26322882Y007869658D01*
G01*
X-26248264Y007778736D01*
G01*
X-26157342Y007704118D01*
G01*
X-26053610Y007648672D01*
G01*
X-25941054Y007614529D01*
G01*
X-25824000Y007603000D01*
G37*
D36*
G36*
X-28950000Y005300000D02*
G01*
X-27050000Y005300000D01*
G01*
X-27050000Y005750000D01*
G01*
X-24910325Y005750000D01*
G01*
X-24812779Y005759607D01*
G01*
X-24718983Y005788060D01*
G01*
X-24632539Y005834265D01*
G01*
X-24556771Y005896447D01*
G01*
X-22984261Y007468957D01*
G01*
X-22547187Y007854495D01*
G01*
X-22548571Y007856064D01*
G01*
X-22524389Y007875910D01*
G01*
X-22462208Y007951678D01*
G01*
X-22416003Y008038121D01*
G01*
X-22387550Y008131918D01*
G01*
X-22377943Y008229463D01*
G01*
X-22387550Y008327008D01*
G01*
X-22416003Y008420805D01*
G01*
X-22462208Y008507248D01*
G01*
X-22524389Y008583016D01*
G01*
X-22600158Y008645198D01*
G01*
X-22686601Y008691403D01*
G01*
X-22780398Y008719856D01*
G01*
X-22877943Y008729463D01*
G01*
X-22975488Y008719856D01*
G01*
X-23069285Y008691403D01*
G01*
X-23155728Y008645198D01*
G01*
X-23207314Y008602862D01*
G01*
X-23208698Y008604431D01*
G01*
X-23657510Y008208538D01*
G01*
X-23656126Y008206969D01*
G01*
X-23680308Y008187124D01*
G01*
X-25117431Y006750000D01*
G01*
X-27050000Y006750000D01*
G01*
X-27050000Y007200000D01*
G01*
X-28950000Y007200000D01*
G01*
X-28950000Y005300000D01*
G37*
D36*
G36*
X024430000Y-21950000D02*
G01*
X024615336Y-21931746D01*
G01*
X024793549Y-21877686D01*
G01*
X024957792Y-21789896D01*
G01*
X025101751Y-21671751D01*
G01*
X025219896Y-21527792D01*
G01*
X025307686Y-21363549D01*
G01*
X025361746Y-21185336D01*
G01*
X025380000Y-21000000D01*
G01*
X025361746Y-20814664D01*
G01*
X025307686Y-20636451D01*
G01*
X025219896Y-20472208D01*
G01*
X025101751Y-20328249D01*
G01*
X024957792Y-20210104D01*
G01*
X024793549Y-20122314D01*
G01*
X024615336Y-20068254D01*
G01*
X024430000Y-20050000D01*
G01*
X024244664Y-20068254D01*
G01*
X024066451Y-20122314D01*
G01*
X023984843Y-20165935D01*
G01*
X022601605Y-18782696D01*
G01*
X022601605Y-18762648D01*
G01*
X022601605Y-16674505D01*
G01*
X022742208Y-16789896D01*
G01*
X022906451Y-16877686D01*
G01*
X023084664Y-16931746D01*
G01*
X023270000Y-16950000D01*
G01*
X023455336Y-16931746D01*
G01*
X023633549Y-16877686D01*
G01*
X023797792Y-16789896D01*
G01*
X023941751Y-16671751D01*
G01*
X024059896Y-16527792D01*
G01*
X024147686Y-16363549D01*
G01*
X024201746Y-16185336D01*
G01*
X024220000Y-16000000D01*
G01*
X024201746Y-15814664D01*
G01*
X024147686Y-15636451D01*
G01*
X024059896Y-15472208D01*
G01*
X023941751Y-15328249D01*
G01*
X023797792Y-15210104D01*
G01*
X023633549Y-15122314D01*
G01*
X023545000Y-15095453D01*
G01*
X023545000Y-11317458D01*
G01*
X024241432Y-10735763D01*
G01*
X024240590Y-10734755D01*
G01*
X024259597Y-10719156D01*
G01*
X024293797Y-10677484D01*
G01*
X024319209Y-10629940D01*
G01*
X024334858Y-10578352D01*
G01*
X024338623Y-10540126D01*
G01*
X024339706Y-10540187D01*
G01*
X024353564Y-10294485D01*
G01*
X024352481Y-10294424D01*
G01*
X024353867Y-10280354D01*
G01*
X024353997Y-10280355D01*
G01*
X024354997Y-10077355D01*
G01*
X024354867Y-10077354D01*
G01*
X024355000Y-10076000D01*
G01*
X024355000Y-09771000D01*
G01*
X024355000Y-09568000D01*
G01*
X024349716Y-09514350D01*
G01*
X024336439Y-09470582D01*
G01*
X024337075Y-09470340D01*
G01*
X024254904Y-09254036D01*
G01*
X024916775Y-09254036D01*
G01*
X024970425Y-09248752D01*
G01*
X025022013Y-09233103D01*
G01*
X025069557Y-09207691D01*
G01*
X025111229Y-09173491D01*
G01*
X025145429Y-09131818D01*
G01*
X025170842Y-09084274D01*
G01*
X025186491Y-09032686D01*
G01*
X025191775Y-08979036D01*
G01*
X025191775Y-05012976D01*
G01*
X026114038Y-04090712D01*
G01*
X026148238Y-04049040D01*
G01*
X026173651Y-04001496D01*
G01*
X026189300Y-03949908D01*
G01*
X026194584Y-03896258D01*
G01*
X026189300Y-03842608D01*
G01*
X026173651Y-03791020D01*
G01*
X026148238Y-03743476D01*
G01*
X026114038Y-03701804D01*
G01*
X024349863Y-01937628D01*
G01*
X024308190Y-01903428D01*
G01*
X024260646Y-01878016D01*
G01*
X024209058Y-01862367D01*
G01*
X024155408Y-01857083D01*
G01*
X018645726Y-01857083D01*
G01*
X018624782Y-01831562D01*
G01*
X018560379Y-01778708D01*
G01*
X018486902Y-01739434D01*
G01*
X018407175Y-01715249D01*
G01*
X018324262Y-01707083D01*
G01*
X018241348Y-01715249D01*
G01*
X018161621Y-01739434D01*
G01*
X018088144Y-01778708D01*
G01*
X018023741Y-01831562D01*
G01*
X017973960Y-01892221D01*
G01*
X014153210Y-01892221D01*
G01*
X010150980Y002110009D01*
G01*
X010154216Y002142865D01*
G01*
X010146049Y002225778D01*
G01*
X010121865Y002305505D01*
G01*
X010110813Y002326181D01*
G01*
X014163831Y002326181D01*
G01*
X016642849Y-00152838D01*
G01*
X016684522Y-00187038D01*
G01*
X016732066Y-00212451D01*
G01*
X016783654Y-00228100D01*
G01*
X016837304Y-00233384D01*
G01*
X019769889Y-00233384D01*
G01*
X021031345Y-01494840D01*
G01*
X021037351Y-01514640D01*
G01*
X021076625Y-01588117D01*
G01*
X021129480Y-01652520D01*
G01*
X021193883Y-01705375D01*
G01*
X021267360Y-01744649D01*
G01*
X021347087Y-01768834D01*
G01*
X021430000Y-01777000D01*
G01*
X021512913Y-01768834D01*
G01*
X021592640Y-01744649D01*
G01*
X021666117Y-01705375D01*
G01*
X021730520Y-01652520D01*
G01*
X021783375Y-01588117D01*
G01*
X021822649Y-01514640D01*
G01*
X021846834Y-01434913D01*
G01*
X021855000Y-01352000D01*
G01*
X021846834Y-01269087D01*
G01*
X021822649Y-01189360D01*
G01*
X021783375Y-01115883D01*
G01*
X021730520Y-01051480D01*
G01*
X021666117Y-00998625D01*
G01*
X021592640Y-00959351D01*
G01*
X021512913Y-00935166D01*
G01*
X021430000Y-00927000D01*
G01*
X021347087Y-00935166D01*
G01*
X021272204Y-00957882D01*
G01*
X020078252Y000236070D01*
G01*
X020036579Y000270270D01*
G01*
X019989036Y000295683D01*
G01*
X019937447Y000311332D01*
G01*
X019883798Y000316616D01*
G01*
X016951212Y000316616D01*
G01*
X014472193Y002795635D01*
G01*
X014430521Y002829835D01*
G01*
X014382977Y002855248D01*
G01*
X014331389Y002870897D01*
G01*
X014277739Y002876181D01*
G01*
X011508609Y002876181D01*
G01*
X011540297Y002914793D01*
G01*
X011579572Y002988270D01*
G01*
X011593724Y003034923D01*
G01*
X011669649Y003011891D01*
G01*
X011752562Y003003725D01*
G01*
X011835475Y003011891D01*
G01*
X011915202Y003036076D01*
G01*
X011988679Y003075350D01*
G01*
X012053082Y003128205D01*
G01*
X012074026Y003153725D01*
G01*
X014611133Y003153725D01*
G01*
X014664783Y003159009D01*
G01*
X014716371Y003174658D01*
G01*
X014763915Y003200071D01*
G01*
X014805587Y003234271D01*
G01*
X015203097Y003631780D01*
G01*
X015209141Y003570409D01*
G01*
X015233326Y003490682D01*
G01*
X015272600Y003417205D01*
G01*
X015325454Y003352802D01*
G01*
X015389857Y003299948D01*
G01*
X015439883Y003273208D01*
G01*
X017474236Y001238855D01*
G01*
X017471000Y001206000D01*
G01*
X017479166Y001123087D01*
G01*
X017503351Y001043360D01*
G01*
X017542625Y000969883D01*
G01*
X017595480Y000905480D01*
G01*
X017659883Y000852625D01*
G01*
X017733360Y000813351D01*
G01*
X017813087Y000789166D01*
G01*
X017896000Y000781000D01*
G01*
X017978913Y000789166D01*
G01*
X018058640Y000813351D01*
G01*
X018132117Y000852625D01*
G01*
X018196520Y000905480D01*
G01*
X018249375Y000969883D01*
G01*
X018288649Y001043360D01*
G01*
X018312834Y001123087D01*
G01*
X018321000Y001206000D01*
G01*
X018312834Y001288913D01*
G01*
X018288649Y001368640D01*
G01*
X018249375Y001442117D01*
G01*
X018196520Y001506520D01*
G01*
X018132117Y001559375D01*
G01*
X018058640Y001598649D01*
G01*
X017978913Y001622834D01*
G01*
X017896000Y001631000D01*
G01*
X017863145Y001627764D01*
G01*
X016012215Y003478694D01*
G01*
X016018623Y003490682D01*
G01*
X016042808Y003570409D01*
G01*
X016050975Y003653322D01*
G01*
X016042808Y003736236D01*
G01*
X016018623Y003815963D01*
G01*
X015979349Y003889440D01*
G01*
X015926495Y003953843D01*
G01*
X015862092Y004006697D01*
G01*
X015788615Y004045971D01*
G01*
X015708888Y004070156D01*
G01*
X015647517Y004076200D01*
G01*
X016059950Y004488633D01*
G01*
X016156003Y004488633D01*
G01*
X019395643Y001248993D01*
G01*
X019392000Y001212000D01*
G01*
X019400166Y001129087D01*
G01*
X019424351Y001049360D01*
G01*
X019463625Y000975883D01*
G01*
X019516480Y000911480D01*
G01*
X019580883Y000858625D01*
G01*
X019654360Y000819351D01*
G01*
X019734087Y000795166D01*
G01*
X019817000Y000787000D01*
G01*
X019899913Y000795166D01*
G01*
X019979640Y000819351D01*
G01*
X020053117Y000858625D01*
G01*
X020117520Y000911480D01*
G01*
X020170375Y000975883D01*
G01*
X020209649Y001049360D01*
G01*
X020233834Y001129087D01*
G01*
X020242000Y001212000D01*
G01*
X020233834Y001294913D01*
G01*
X020209649Y001374640D01*
G01*
X020170375Y001448117D01*
G01*
X020117520Y001512520D01*
G01*
X020053117Y001565375D01*
G01*
X019979640Y001604649D01*
G01*
X019899913Y001628834D01*
G01*
X019817000Y001637000D01*
G01*
X019788282Y001634172D01*
G01*
X016464365Y004958088D01*
G01*
X016422693Y004992288D01*
G01*
X016375149Y005017700D01*
G01*
X016323561Y005033349D01*
G01*
X016269911Y005038633D01*
G01*
X015946041Y005038633D01*
G01*
X015892392Y005033349D01*
G01*
X015840803Y005017700D01*
G01*
X015793260Y004992288D01*
G01*
X015751587Y004958088D01*
G01*
X014497225Y003703725D01*
G01*
X012074026Y003703725D01*
G01*
X012053082Y003729245D01*
G01*
X011988679Y003782100D01*
G01*
X011915202Y003821374D01*
G01*
X011835475Y003845559D01*
G01*
X011752562Y003853725D01*
G01*
X011669649Y003845559D01*
G01*
X011589922Y003821374D01*
G01*
X011516445Y003782100D01*
G01*
X011461923Y003737354D01*
G01*
X011461923Y004393619D01*
G01*
X011465782Y004394790D01*
G01*
X011539259Y004434064D01*
G01*
X011603662Y004486919D01*
G01*
X011656516Y004551322D01*
G01*
X011660893Y004559510D01*
G01*
X011709901Y004499794D01*
G01*
X011733140Y004480722D01*
G01*
X011725289Y004471155D01*
G01*
X011686014Y004397678D01*
G01*
X011661829Y004317951D01*
G01*
X011653663Y004235038D01*
G01*
X011661829Y004152125D01*
G01*
X011686014Y004072397D01*
G01*
X011725289Y003998921D01*
G01*
X011778143Y003934518D01*
G01*
X011842546Y003881663D01*
G01*
X011916023Y003842389D01*
G01*
X011995750Y003818204D01*
G01*
X012078663Y003810038D01*
G01*
X012161577Y003818204D01*
G01*
X012241304Y003842389D01*
G01*
X012314781Y003881663D01*
G01*
X012379184Y003934518D01*
G01*
X012432038Y003998921D01*
G01*
X012471312Y004072397D01*
G01*
X012495497Y004152125D01*
G01*
X012503663Y004235038D01*
G01*
X012500427Y004267893D01*
G01*
X012641524Y004408990D01*
G01*
X012675724Y004450662D01*
G01*
X012701136Y004498206D01*
G01*
X012716785Y004549794D01*
G01*
X012722069Y004603444D01*
G01*
X012722069Y006257524D01*
G01*
X012739834Y006316087D01*
G01*
X012748000Y006399000D01*
G01*
X012739834Y006481913D01*
G01*
X012715649Y006561640D01*
G01*
X012676375Y006635117D01*
G01*
X012623520Y006699520D01*
G01*
X012559117Y006752375D01*
G01*
X012485640Y006791649D01*
G01*
X012405913Y006815834D01*
G01*
X012323000Y006824000D01*
G01*
X012240087Y006815834D01*
G01*
X012160360Y006791649D01*
G01*
X012086883Y006752375D01*
G01*
X012022480Y006699520D01*
G01*
X011969625Y006635117D01*
G01*
X011930351Y006561640D01*
G01*
X011906166Y006481913D01*
G01*
X011898000Y006399000D01*
G01*
X011906166Y006316087D01*
G01*
X011930351Y006236360D01*
G01*
X011969625Y006162883D01*
G01*
X012022480Y006098480D01*
G01*
X012086883Y006045625D01*
G01*
X012160360Y006006351D01*
G01*
X012172069Y006002799D01*
G01*
X012172069Y005455847D01*
G01*
X010043220Y007584696D01*
G01*
X010001547Y007618896D01*
G01*
X009954003Y007644309D01*
G01*
X009902415Y007659958D01*
G01*
X009848765Y007665242D01*
G01*
X009442809Y007665242D01*
G01*
X009389159Y007659958D01*
G01*
X009337571Y007644309D01*
G01*
X009290027Y007618896D01*
G01*
X009248355Y007584696D01*
G01*
X008652801Y006989143D01*
G01*
X008633186Y006965241D01*
G01*
X008567644Y006930209D01*
G01*
X008503241Y006877355D01*
G01*
X008503049Y006877121D01*
G01*
X007110567Y006877121D01*
G01*
X007089622Y006902642D01*
G01*
X007025219Y006955496D01*
G01*
X006951742Y006994770D01*
G01*
X006872015Y007018955D01*
G01*
X006789102Y007027121D01*
G01*
X006706189Y007018955D01*
G01*
X006626461Y006994770D01*
G01*
X006552985Y006955496D01*
G01*
X006488582Y006902642D01*
G01*
X006435727Y006838239D01*
G01*
X006396453Y006764762D01*
G01*
X006372268Y006685035D01*
G01*
X006364102Y006602121D01*
G01*
X006372268Y006519208D01*
G01*
X006396453Y006439481D01*
G01*
X006435727Y006366004D01*
G01*
X006488582Y006301601D01*
G01*
X006514102Y006280657D01*
G01*
X006514102Y002055086D01*
G01*
X006519386Y002001436D01*
G01*
X006535035Y001949848D01*
G01*
X006560448Y001902304D01*
G01*
X006594648Y001860631D01*
G01*
X006794710Y001660569D01*
G01*
X006786749Y001579742D01*
G01*
X006794915Y001496829D01*
G01*
X006797521Y001488239D01*
G01*
X006047007Y002238753D01*
G01*
X006005335Y002272953D01*
G01*
X005957791Y002298365D01*
G01*
X005906203Y002314014D01*
G01*
X005852553Y002319298D01*
G01*
X005537878Y002319298D01*
G01*
X005193215Y002663961D01*
G01*
X005201000Y002743000D01*
G01*
X005192834Y002825913D01*
G01*
X005168649Y002905640D01*
G01*
X005129375Y002979117D01*
G01*
X005076520Y003043520D01*
G01*
X005012117Y003096375D01*
G01*
X004938640Y003135649D01*
G01*
X004858913Y003159834D01*
G01*
X004839535Y003161743D01*
G01*
X005205355Y003527563D01*
G01*
X005239554Y003569235D01*
G01*
X005264967Y003616779D01*
G01*
X005280616Y003668367D01*
G01*
X005285900Y003722017D01*
G01*
X005285900Y004246833D01*
G01*
X005341520Y004292480D01*
G01*
X005394375Y004356883D01*
G01*
X005433649Y004430360D01*
G01*
X005457834Y004510087D01*
G01*
X005466000Y004593000D01*
G01*
X005457834Y004675913D01*
G01*
X005433649Y004755640D01*
G01*
X005394375Y004829117D01*
G01*
X005341520Y004893520D01*
G01*
X005277117Y004946375D01*
G01*
X005203640Y004985649D01*
G01*
X005123913Y005009834D01*
G01*
X005041000Y005018000D01*
G01*
X004958087Y005009834D01*
G01*
X004878360Y004985649D01*
G01*
X004804883Y004946375D01*
G01*
X004747159Y004899002D01*
G01*
X004706520Y004948520D01*
G01*
X004642117Y005001375D01*
G01*
X004568640Y005040649D01*
G01*
X004488913Y005064834D01*
G01*
X004406000Y005073000D01*
G01*
X004323087Y005064834D01*
G01*
X004263892Y005046877D01*
G01*
X003480430Y005830339D01*
G01*
X003438757Y005864539D01*
G01*
X003391213Y005889952D01*
G01*
X003339625Y005905601D01*
G01*
X003285976Y005910885D01*
G01*
X001251037Y005910885D01*
G01*
X001197387Y005905601D01*
G01*
X001145799Y005889952D01*
G01*
X001098255Y005864539D01*
G01*
X001056583Y005830339D01*
G01*
X-01456654Y003317103D01*
G01*
X-03852005Y003317103D01*
G01*
X-03872949Y003342624D01*
G01*
X-03937352Y003395478D01*
G01*
X-04010829Y003434752D01*
G01*
X-04090556Y003458937D01*
G01*
X-04168112Y003466575D01*
G01*
X-04290991Y003589454D01*
G01*
X-04332663Y003623654D01*
G01*
X-04380207Y003649067D01*
G01*
X-04431795Y003664716D01*
G01*
X-04485445Y003670000D01*
G01*
X-08929536Y003670000D01*
G01*
X-08950480Y003695520D01*
G01*
X-09014883Y003748375D01*
G01*
X-09088360Y003787649D01*
G01*
X-09168087Y003811834D01*
G01*
X-09251000Y003820000D01*
G01*
X-09333913Y003811834D01*
G01*
X-09413640Y003787649D01*
G01*
X-09487117Y003748375D01*
G01*
X-09551520Y003695520D01*
G01*
X-09604375Y003631117D01*
G01*
X-09643649Y003557640D01*
G01*
X-09667834Y003477913D01*
G01*
X-09676000Y003395000D01*
G01*
X-09667834Y003312087D01*
G01*
X-09643649Y003232360D01*
G01*
X-09604375Y003158883D01*
G01*
X-09551520Y003094480D01*
G01*
X-09531539Y003078082D01*
G01*
X-13949823Y003078082D01*
G01*
X-13970767Y003103603D01*
G01*
X-14035170Y003156457D01*
G01*
X-14108647Y003195731D01*
G01*
X-14188374Y003219916D01*
G01*
X-14271288Y003228082D01*
G01*
X-14354201Y003219916D01*
G01*
X-14433928Y003195731D01*
G01*
X-14507405Y003156457D01*
G01*
X-14571808Y003103603D01*
G01*
X-14624662Y003039199D01*
G01*
X-14663937Y002965723D01*
G01*
X-14688122Y002885996D01*
G01*
X-14696288Y002803082D01*
G01*
X-14688122Y002720169D01*
G01*
X-14663937Y002640442D01*
G01*
X-14624662Y002566965D01*
G01*
X-14571808Y002502562D01*
G01*
X-14507405Y002449708D01*
G01*
X-14433928Y002410433D01*
G01*
X-14354201Y002386248D01*
G01*
X-14271288Y002378082D01*
G01*
X-14188374Y002386248D01*
G01*
X-14108647Y002410433D01*
G01*
X-14035170Y002449708D01*
G01*
X-13970767Y002502562D01*
G01*
X-13949823Y002528082D01*
G01*
X-09436431Y002528082D01*
G01*
X-07125000Y000216651D01*
G01*
X-07125000Y-00632189D01*
G01*
X-07119716Y-00685839D01*
G01*
X-07104067Y-00737427D01*
G01*
X-07078654Y-00784971D01*
G01*
X-07044454Y-00826643D01*
G01*
X-06742595Y-01128503D01*
G01*
X-06700923Y-01162702D01*
G01*
X-06653379Y-01188115D01*
G01*
X-06601791Y-01203764D01*
G01*
X-06548141Y-01209048D01*
G01*
X-03722051Y-01209048D01*
G01*
X-03736649Y-01236360D01*
G01*
X-03760834Y-01316087D01*
G01*
X-03769000Y-01399000D01*
G01*
X-03766398Y-01425414D01*
G01*
X-06466984Y-04126000D01*
G01*
X-18387536Y-04126000D01*
G01*
X-18408480Y-04100480D01*
G01*
X-18472883Y-04047625D01*
G01*
X-18546360Y-04008351D01*
G01*
X-18626087Y-03984166D01*
G01*
X-18709000Y-03976000D01*
G01*
X-18791913Y-03984166D01*
G01*
X-18871640Y-04008351D01*
G01*
X-18945117Y-04047625D01*
G01*
X-19009520Y-04100480D01*
G01*
X-19062375Y-04164883D01*
G01*
X-19101649Y-04238360D01*
G01*
X-19125834Y-04318087D01*
G01*
X-19134000Y-04401000D01*
G01*
X-19125834Y-04483913D01*
G01*
X-19101649Y-04563640D01*
G01*
X-19062375Y-04637117D01*
G01*
X-19009520Y-04701520D01*
G01*
X-18945117Y-04754375D01*
G01*
X-18871640Y-04793649D01*
G01*
X-18791913Y-04817834D01*
G01*
X-18709000Y-04826000D01*
G01*
X-18626087Y-04817834D01*
G01*
X-18546360Y-04793649D01*
G01*
X-18472883Y-04754375D01*
G01*
X-18408480Y-04701520D01*
G01*
X-18387536Y-04676000D01*
G01*
X-06353075Y-04676000D01*
G01*
X-06299425Y-04670716D01*
G01*
X-06247837Y-04655067D01*
G01*
X-06200293Y-04629654D01*
G01*
X-06158621Y-04595454D01*
G01*
X-03383297Y-01820130D01*
G01*
X-03344000Y-01824000D01*
G01*
X-03261087Y-01815834D01*
G01*
X-03181360Y-01791649D01*
G01*
X-03107883Y-01752375D01*
G01*
X-03043480Y-01699520D01*
G01*
X-02990625Y-01635117D01*
G01*
X-02951351Y-01561640D01*
G01*
X-02927166Y-01481913D01*
G01*
X-02919000Y-01399000D01*
G01*
X-02927166Y-01316087D01*
G01*
X-02951351Y-01236360D01*
G01*
X-02965949Y-01209048D01*
G01*
X-02319390Y-01209048D01*
G01*
X-02265740Y-01203764D01*
G01*
X-02214152Y-01188115D01*
G01*
X-02166608Y-01162702D01*
G01*
X-02124935Y-01128503D01*
G01*
X-01586548Y-00590116D01*
G01*
X-01552348Y-00548443D01*
G01*
X-01526936Y-00500899D01*
G01*
X-01511287Y-00449311D01*
G01*
X-01508295Y-00418933D01*
G01*
X-00578260Y000511102D01*
G01*
X-00538913Y000499166D01*
G01*
X-00456000Y000491000D01*
G01*
X-00373087Y000499166D01*
G01*
X-00293360Y000523351D01*
G01*
X-00219883Y000562625D01*
G01*
X-00155480Y000615480D01*
G01*
X-00102625Y000679883D01*
G01*
X-00063351Y000753360D01*
G01*
X-00039166Y000833087D01*
G01*
X-00031000Y000916000D01*
G01*
X-00039166Y000998913D01*
G01*
X-00063351Y001078640D01*
G01*
X-00102625Y001152117D01*
G01*
X-00155480Y001216520D01*
G01*
X-00219883Y001269375D01*
G01*
X-00293360Y001308649D01*
G01*
X-00373087Y001332834D01*
G01*
X-00456000Y001341000D01*
G01*
X-00538913Y001332834D01*
G01*
X-00618640Y001308649D01*
G01*
X-00692117Y001269375D01*
G01*
X-00756520Y001216520D01*
G01*
X-00809375Y001152117D01*
G01*
X-00848649Y001078640D01*
G01*
X-00872834Y000998913D01*
G01*
X-00873333Y000993847D01*
G01*
X-01975457Y-00108277D01*
G01*
X-02009657Y-00149950D01*
G01*
X-02035069Y-00197494D01*
G01*
X-02050719Y-00249082D01*
G01*
X-02053711Y-00279461D01*
G01*
X-02433298Y-00659048D01*
G01*
X-02507824Y-00659048D01*
G01*
X-02400104Y-00527792D01*
G01*
X-02312314Y-00363549D01*
G01*
X-02258254Y-00185336D01*
G01*
X-02240000Y000000000D01*
G01*
X-02258254Y000185336D01*
G01*
X-02312314Y000363549D01*
G01*
X-02400104Y000527792D01*
G01*
X-02518249Y000671751D01*
G01*
X-02662208Y000789896D01*
G01*
X-02826451Y000877686D01*
G01*
X-03004664Y000931746D01*
G01*
X-03190000Y000950000D01*
G01*
X-03375336Y000931746D01*
G01*
X-03553549Y000877686D01*
G01*
X-03717792Y000789896D01*
G01*
X-03861751Y000671751D01*
G01*
X-03979896Y000527792D01*
G01*
X-04067686Y000363549D01*
G01*
X-04121746Y000185336D01*
G01*
X-04140000Y000000000D01*
G01*
X-04121746Y-00185336D01*
G01*
X-04067686Y-00363549D01*
G01*
X-03979896Y-00527792D01*
G01*
X-03872176Y-00659048D01*
G01*
X-05047824Y-00659048D01*
G01*
X-04940104Y-00527792D01*
G01*
X-04852314Y-00363549D01*
G01*
X-04798254Y-00185336D01*
G01*
X-04780000Y000000000D01*
G01*
X-04798254Y000185336D01*
G01*
X-04852314Y000363549D01*
G01*
X-04940104Y000527792D01*
G01*
X-05058249Y000671751D01*
G01*
X-05202208Y000789896D01*
G01*
X-05366451Y000877686D01*
G01*
X-05544664Y000931746D01*
G01*
X-05730000Y000950000D01*
G01*
X-05915336Y000931746D01*
G01*
X-06093549Y000877686D01*
G01*
X-06257792Y000789896D01*
G01*
X-06401751Y000671751D01*
G01*
X-06519896Y000527792D01*
G01*
X-06586207Y000403734D01*
G01*
X-06595933Y000435798D01*
G01*
X-06621346Y000483341D01*
G01*
X-06655546Y000525014D01*
G01*
X-09122520Y002991988D01*
G01*
X-09088360Y003002351D01*
G01*
X-09014883Y003041625D01*
G01*
X-08950480Y003094480D01*
G01*
X-08929536Y003120000D01*
G01*
X-04599354Y003120000D01*
G01*
X-04591564Y003112210D01*
G01*
X-04598470Y003042103D01*
G01*
X-04590303Y002959190D01*
G01*
X-04566118Y002879463D01*
G01*
X-04526844Y002805986D01*
G01*
X-04473990Y002741583D01*
G01*
X-04409587Y002688729D01*
G01*
X-04336110Y002649454D01*
G01*
X-04256383Y002625269D01*
G01*
X-04173470Y002617103D01*
G01*
X-04090556Y002625269D01*
G01*
X-04010829Y002649454D01*
G01*
X-03937352Y002688729D01*
G01*
X-03872949Y002741583D01*
G01*
X-03852005Y002767103D01*
G01*
X-01342745Y002767103D01*
G01*
X-01289095Y002772387D01*
G01*
X-01237507Y002788036D01*
G01*
X-01189963Y002813449D01*
G01*
X-01148290Y002847649D01*
G01*
X000156653Y004152592D01*
G01*
X000168285Y004114247D01*
G01*
X000022546Y003968507D01*
G01*
X-00011654Y003926835D01*
G01*
X-00037067Y003879291D01*
G01*
X-00052716Y003827703D01*
G01*
X-00058000Y003774053D01*
G01*
X-00058000Y002504464D01*
G01*
X-00083520Y002483520D01*
G01*
X-00136375Y002419117D01*
G01*
X-00175649Y002345640D01*
G01*
X-00199834Y002265913D01*
G01*
X-00208000Y002183000D01*
G01*
X-00199834Y002100087D01*
G01*
X-00175649Y002020360D01*
G01*
X-00136375Y001946883D01*
G01*
X-00083520Y001882480D01*
G01*
X-00019117Y001829625D01*
G01*
X000054360Y001790351D01*
G01*
X000134087Y001766166D01*
G01*
X000217000Y001758000D01*
G01*
X000299913Y001766166D01*
G01*
X000379640Y001790351D01*
G01*
X000453117Y001829625D01*
G01*
X000517520Y001882480D01*
G01*
X000570375Y001946883D01*
G01*
X000609649Y002020360D01*
G01*
X000633834Y002100087D01*
G01*
X000642000Y002183000D01*
G01*
X000633834Y002265913D01*
G01*
X000609649Y002345640D01*
G01*
X000570375Y002419117D01*
G01*
X000517520Y002483520D01*
G01*
X000492000Y002504464D01*
G01*
X000492000Y003660145D01*
G01*
X000665988Y003834132D01*
G01*
X000732640Y003854351D01*
G01*
X000806117Y003893625D01*
G01*
X000870520Y003946480D01*
G01*
X000923375Y004010883D01*
G01*
X000962649Y004084360D01*
G01*
X000986834Y004164087D01*
G01*
X000995000Y004247000D01*
G01*
X000986834Y004329913D01*
G01*
X000962649Y004409640D01*
G01*
X000923375Y004483117D01*
G01*
X000870520Y004547520D01*
G01*
X000806117Y004600375D01*
G01*
X000732640Y004639649D01*
G01*
X000664407Y004660347D01*
G01*
X001364945Y005360885D01*
G01*
X003172067Y005360885D01*
G01*
X003998442Y004534509D01*
G01*
X004013351Y004485360D01*
G01*
X004052625Y004411883D01*
G01*
X004105480Y004347480D01*
G01*
X004169883Y004294625D01*
G01*
X004243360Y004255351D01*
G01*
X004321146Y004231755D01*
G01*
X004275440Y004217890D01*
G01*
X004201963Y004178616D01*
G01*
X004137560Y004125762D01*
G01*
X004114482Y004097641D01*
G01*
X004087239Y004094958D01*
G01*
X004035651Y004079308D01*
G01*
X003988107Y004053896D01*
G01*
X003946434Y004019696D01*
G01*
X003328572Y003401834D01*
G01*
X003294372Y003360161D01*
G01*
X003268960Y003312617D01*
G01*
X003253310Y003261029D01*
G01*
X003248026Y003207380D01*
G01*
X003248026Y002538868D01*
G01*
X003138806Y002648088D01*
G01*
X003097326Y003401755D01*
G01*
X003105520Y003408480D01*
G01*
X003158375Y003472883D01*
G01*
X003197649Y003546360D01*
G01*
X003221834Y003626087D01*
G01*
X003230000Y003709000D01*
G01*
X003221834Y003791913D01*
G01*
X003197649Y003871640D01*
G01*
X003158375Y003945117D01*
G01*
X003105520Y004009520D01*
G01*
X003041117Y004062375D01*
G01*
X002967640Y004101649D01*
G01*
X002887913Y004125834D01*
G01*
X002805000Y004134000D01*
G01*
X002722087Y004125834D01*
G01*
X002642360Y004101649D01*
G01*
X002568883Y004062375D01*
G01*
X002554516Y004050584D01*
G01*
X002554516Y004583491D01*
G01*
X002580036Y004604435D01*
G01*
X002632891Y004668838D01*
G01*
X002672165Y004742315D01*
G01*
X002696350Y004822042D01*
G01*
X002704516Y004904955D01*
G01*
X002696350Y004987869D01*
G01*
X002672165Y005067596D01*
G01*
X002632891Y005141072D01*
G01*
X002580036Y005205476D01*
G01*
X002515633Y005258330D01*
G01*
X002442156Y005297604D01*
G01*
X002362429Y005321789D01*
G01*
X002279516Y005329955D01*
G01*
X002196603Y005321789D01*
G01*
X002116875Y005297604D01*
G01*
X002043399Y005258330D01*
G01*
X001978996Y005205476D01*
G01*
X001926141Y005141072D01*
G01*
X001886867Y005067596D01*
G01*
X001862682Y004987869D01*
G01*
X001854516Y004904955D01*
G01*
X001862682Y004822042D01*
G01*
X001886867Y004742315D01*
G01*
X001926141Y004668838D01*
G01*
X001978996Y004604435D01*
G01*
X002004516Y004583491D01*
G01*
X002004516Y004146828D01*
G01*
X001818782Y003961094D01*
G01*
X001814634Y003956039D01*
G01*
X001766480Y003916520D01*
G01*
X001713625Y003852117D01*
G01*
X001674351Y003778640D01*
G01*
X001650166Y003698913D01*
G01*
X001642000Y003616000D01*
G01*
X001650166Y003533087D01*
G01*
X001674351Y003453360D01*
G01*
X001713625Y003379883D01*
G01*
X001766480Y003315480D01*
G01*
X001830883Y003262625D01*
G01*
X001904360Y003223351D01*
G01*
X001984087Y003199166D01*
G01*
X002067000Y003191000D01*
G01*
X002149913Y003199166D01*
G01*
X002229640Y003223351D01*
G01*
X002303117Y003262625D01*
G01*
X002367520Y003315480D01*
G01*
X002420375Y003379883D01*
G01*
X002459649Y003453360D01*
G01*
X002461808Y003460476D01*
G01*
X002504480Y003408480D01*
G01*
X002548094Y003372686D01*
G01*
X002595416Y002512873D01*
G01*
X002596483Y002512932D01*
G01*
X002600284Y002474336D01*
G01*
X002615933Y002422748D01*
G01*
X002641346Y002375204D01*
G01*
X002675546Y002333531D01*
G01*
X002722534Y002286543D01*
G01*
X002650360Y002264649D01*
G01*
X002576883Y002225375D01*
G01*
X002512480Y002172520D01*
G01*
X002459625Y002108117D01*
G01*
X002420351Y002034640D01*
G01*
X002396166Y001954913D01*
G01*
X002388000Y001872000D01*
G01*
X002396166Y001789087D01*
G01*
X002410492Y001741861D01*
G01*
X002283228Y001614597D01*
G01*
X002249028Y001572925D01*
G01*
X002223615Y001525381D01*
G01*
X002207966Y001473793D01*
G01*
X002202682Y001420143D01*
G01*
X002202682Y001345930D01*
G01*
X002202682Y-05953682D01*
G01*
X002207966Y-06007332D01*
G01*
X002223615Y-06058920D01*
G01*
X002249028Y-06106464D01*
G01*
X002283228Y-06148136D01*
G01*
X004492236Y-08357144D01*
G01*
X004489000Y-08390000D01*
G01*
X004497166Y-08472913D01*
G01*
X004521351Y-08552640D01*
G01*
X004560625Y-08626117D01*
G01*
X004613480Y-08690520D01*
G01*
X004677883Y-08743375D01*
G01*
X004751360Y-08782649D01*
G01*
X004831087Y-08806834D01*
G01*
X004914000Y-08815000D01*
G01*
X004996913Y-08806834D01*
G01*
X005076640Y-08782649D01*
G01*
X005150117Y-08743375D01*
G01*
X005214520Y-08690520D01*
G01*
X005267375Y-08626117D01*
G01*
X005306649Y-08552640D01*
G01*
X005330834Y-08472913D01*
G01*
X005339000Y-08390000D01*
G01*
X005330834Y-08307087D01*
G01*
X005306649Y-08227360D01*
G01*
X005267375Y-08153883D01*
G01*
X005214520Y-08089480D01*
G01*
X005150117Y-08036625D01*
G01*
X005076640Y-07997351D01*
G01*
X004996913Y-07973166D01*
G01*
X004914000Y-07965000D01*
G01*
X004881144Y-07968236D01*
G01*
X002752682Y-05839774D01*
G01*
X002752682Y-00656423D01*
G01*
X002807360Y-00685649D01*
G01*
X002887087Y-00709834D01*
G01*
X002970000Y-00718000D01*
G01*
X003052913Y-00709834D01*
G01*
X003132640Y-00685649D01*
G01*
X003206117Y-00646375D01*
G01*
X003270520Y-00593520D01*
G01*
X003302391Y-00554685D01*
G01*
X003327506Y-00547067D01*
G01*
X003375050Y-00521654D01*
G01*
X003416723Y-00487454D01*
G01*
X004650105Y000745928D01*
G01*
X004684305Y000787601D01*
G01*
X004709717Y000835144D01*
G01*
X004725366Y000886733D01*
G01*
X004730650Y000940382D01*
G01*
X004725366Y000994032D01*
G01*
X004709717Y001045620D01*
G01*
X004684305Y001093164D01*
G01*
X004650105Y001134837D01*
G01*
X004478815Y001306127D01*
G01*
X004478815Y002439743D01*
G01*
X004539883Y002389625D01*
G01*
X004613360Y002350351D01*
G01*
X004693087Y002326166D01*
G01*
X004759758Y002319600D01*
G01*
X005229514Y001849844D01*
G01*
X005271187Y001815644D01*
G01*
X005318731Y001790232D01*
G01*
X005370319Y001774582D01*
G01*
X005423969Y001769298D01*
G01*
X005490139Y001769298D01*
G01*
X005459625Y001732117D01*
G01*
X005420351Y001658640D01*
G01*
X005396166Y001578913D01*
G01*
X005388000Y001496000D01*
G01*
X005396166Y001413087D01*
G01*
X005420351Y001333360D01*
G01*
X005441470Y001293849D01*
G01*
X005441470Y-06042647D01*
G01*
X005446755Y-06096297D01*
G01*
X005462404Y-06147885D01*
G01*
X005487816Y-06195429D01*
G01*
X005522016Y-06237102D01*
G01*
X006925328Y-07640413D01*
G01*
X006925328Y-07854375D01*
G01*
X006876640Y-07828351D01*
G01*
X006796913Y-07804166D01*
G01*
X006714000Y-07796000D01*
G01*
X006631087Y-07804166D01*
G01*
X006551360Y-07828351D01*
G01*
X006477883Y-07867625D01*
G01*
X006413480Y-07920480D01*
G01*
X006360625Y-07984883D01*
G01*
X006321351Y-08058360D01*
G01*
X006297166Y-08138087D01*
G01*
X006289000Y-08221000D01*
G01*
X006297166Y-08303913D01*
G01*
X006297632Y-08305449D01*
G01*
X004332042Y-10271040D01*
G01*
X004257792Y-10210104D01*
G01*
X004093549Y-10122314D01*
G01*
X003915336Y-10068254D01*
G01*
X003730000Y-10050000D01*
G01*
X003544664Y-10068254D01*
G01*
X003366451Y-10122314D01*
G01*
X003202208Y-10210104D01*
G01*
X003058249Y-10328249D01*
G01*
X002940104Y-10472208D01*
G01*
X002852314Y-10636451D01*
G01*
X002798254Y-10814664D01*
G01*
X002780000Y-11000000D01*
G01*
X002798254Y-11185336D01*
G01*
X002852314Y-11363549D01*
G01*
X002940104Y-11527792D01*
G01*
X003058249Y-11671751D01*
G01*
X003202208Y-11789896D01*
G01*
X003366451Y-11877686D01*
G01*
X003544664Y-11931746D01*
G01*
X003730000Y-11950000D01*
G01*
X003915336Y-11931746D01*
G01*
X004093549Y-11877686D01*
G01*
X004257792Y-11789896D01*
G01*
X004401751Y-11671751D01*
G01*
X004519896Y-11527792D01*
G01*
X004607686Y-11363549D01*
G01*
X004661746Y-11185336D01*
G01*
X004680000Y-11000000D01*
G01*
X004661746Y-10814664D01*
G01*
X004639516Y-10741382D01*
G01*
X006737182Y-08643717D01*
G01*
X006796913Y-08637834D01*
G01*
X006876640Y-08613649D01*
G01*
X006925328Y-08587625D01*
G01*
X006925328Y-10314771D01*
G01*
X006797792Y-10210104D01*
G01*
X006633549Y-10122314D01*
G01*
X006455336Y-10068254D01*
G01*
X006270000Y-10050000D01*
G01*
X006084664Y-10068254D01*
G01*
X005906451Y-10122314D01*
G01*
X005742208Y-10210104D01*
G01*
X005598249Y-10328249D01*
G01*
X005480104Y-10472208D01*
G01*
X005392314Y-10636451D01*
G01*
X005338254Y-10814664D01*
G01*
X005320000Y-11000000D01*
G01*
X005338254Y-11185336D01*
G01*
X005392314Y-11363549D01*
G01*
X005480104Y-11527792D01*
G01*
X005598249Y-11671751D01*
G01*
X005742208Y-11789896D01*
G01*
X005906451Y-11877686D01*
G01*
X006084664Y-11931746D01*
G01*
X006270000Y-11950000D01*
G01*
X006455336Y-11931746D01*
G01*
X006633549Y-11877686D01*
G01*
X006797792Y-11789896D01*
G01*
X006925328Y-11685229D01*
G01*
X006925328Y-11707722D01*
G01*
X006895286Y-11737764D01*
G01*
X006455546Y-12177504D01*
G01*
X006421346Y-12219177D01*
G01*
X006395933Y-12266721D01*
G01*
X006380284Y-12318309D01*
G01*
X006375000Y-12371959D01*
G01*
X006375000Y-20095453D01*
G01*
X006286451Y-20122314D01*
G01*
X006122208Y-20210104D01*
G01*
X005978249Y-20328249D01*
G01*
X005860104Y-20472208D01*
G01*
X005772314Y-20636451D01*
G01*
X005718254Y-20814664D01*
G01*
X005700000Y-21000000D01*
G01*
X005718254Y-21185336D01*
G01*
X005772314Y-21363549D01*
G01*
X005860104Y-21527792D01*
G01*
X005978249Y-21671751D01*
G01*
X006122208Y-21789896D01*
G01*
X006286451Y-21877686D01*
G01*
X006464664Y-21931746D01*
G01*
X006650000Y-21950000D01*
G01*
X006835336Y-21931746D01*
G01*
X007013549Y-21877686D01*
G01*
X007177792Y-21789896D01*
G01*
X007321751Y-21671751D01*
G01*
X007439896Y-21527792D01*
G01*
X007527686Y-21363549D01*
G01*
X007581746Y-21185336D01*
G01*
X007600000Y-21000000D01*
G01*
X007581746Y-20814664D01*
G01*
X007527686Y-20636451D01*
G01*
X007439896Y-20472208D01*
G01*
X007321751Y-20328249D01*
G01*
X007177792Y-20210104D01*
G01*
X007013549Y-20122314D01*
G01*
X006925000Y-20095453D01*
G01*
X006925000Y-12485867D01*
G01*
X007101663Y-12309204D01*
G01*
X007099893Y-12327177D01*
G01*
X007108060Y-12410090D01*
G01*
X007132244Y-12489817D01*
G01*
X007171519Y-12563294D01*
G01*
X007224373Y-12627697D01*
G01*
X007288776Y-12680551D01*
G01*
X007362253Y-12719825D01*
G01*
X007441980Y-12744010D01*
G01*
X007524893Y-12752177D01*
G01*
X007607807Y-12744010D01*
G01*
X007687534Y-12719825D01*
G01*
X007761011Y-12680551D01*
G01*
X007825414Y-12627697D01*
G01*
X007878268Y-12563294D01*
G01*
X007917542Y-12489817D01*
G01*
X007941727Y-12410090D01*
G01*
X007949893Y-12327177D01*
G01*
X007941727Y-12244263D01*
G01*
X007917542Y-12164536D01*
G01*
X007878268Y-12091059D01*
G01*
X007825414Y-12026656D01*
G01*
X007799893Y-12005712D01*
G01*
X007799893Y-07435436D01*
G01*
X007796797Y-07403997D01*
G01*
X007828913Y-07400834D01*
G01*
X007908640Y-07376649D01*
G01*
X007982117Y-07337375D01*
G01*
X008046520Y-07284520D01*
G01*
X008099375Y-07220117D01*
G01*
X008138649Y-07146640D01*
G01*
X008162834Y-07066913D01*
G01*
X008171000Y-06984000D01*
G01*
X008167764Y-06951144D01*
G01*
X009266240Y-05852669D01*
G01*
X009300440Y-05810996D01*
G01*
X009325852Y-05763452D01*
G01*
X009341501Y-05711864D01*
G01*
X009346785Y-05658215D01*
G01*
X009346785Y-03280607D01*
G01*
X009378486Y-03254591D01*
G01*
X009431340Y-03190188D01*
G01*
X009443729Y-03167011D01*
G01*
X009447166Y-03201913D01*
G01*
X009471351Y-03281640D01*
G01*
X009510625Y-03355117D01*
G01*
X009563480Y-03419520D01*
G01*
X009627883Y-03472375D01*
G01*
X009701360Y-03511649D01*
G01*
X009781087Y-03535834D01*
G01*
X009864000Y-03544000D01*
G01*
X009946913Y-03535834D01*
G01*
X010026640Y-03511649D01*
G01*
X010100117Y-03472375D01*
G01*
X010164520Y-03419520D01*
G01*
X010217375Y-03355117D01*
G01*
X010256649Y-03281640D01*
G01*
X010275000Y-03221145D01*
G01*
X010275000Y-19526092D01*
G01*
X009635157Y-20165935D01*
G01*
X009553549Y-20122314D01*
G01*
X009375336Y-20068254D01*
G01*
X009190000Y-20050000D01*
G01*
X009004664Y-20068254D01*
G01*
X008826451Y-20122314D01*
G01*
X008662208Y-20210104D01*
G01*
X008518249Y-20328249D01*
G01*
X008400104Y-20472208D01*
G01*
X008312314Y-20636451D01*
G01*
X008258254Y-20814664D01*
G01*
X008240000Y-21000000D01*
G01*
X008258254Y-21185336D01*
G01*
X008312314Y-21363549D01*
G01*
X008400104Y-21527792D01*
G01*
X008518249Y-21671751D01*
G01*
X008662208Y-21789896D01*
G01*
X008826451Y-21877686D01*
G01*
X009004664Y-21931746D01*
G01*
X009190000Y-21950000D01*
G01*
X009375336Y-21931746D01*
G01*
X009553549Y-21877686D01*
G01*
X009717792Y-21789896D01*
G01*
X009861751Y-21671751D01*
G01*
X009979896Y-21527792D01*
G01*
X010067686Y-21363549D01*
G01*
X010121746Y-21185336D01*
G01*
X010140000Y-21000000D01*
G01*
X010121746Y-20814664D01*
G01*
X010067686Y-20636451D01*
G01*
X010024065Y-20554843D01*
G01*
X010744454Y-19834454D01*
G01*
X010778654Y-19792782D01*
G01*
X010804067Y-19745238D01*
G01*
X010819716Y-19693650D01*
G01*
X010825000Y-19640000D01*
G01*
X010825000Y-15950094D01*
G01*
X010850360Y-15963649D01*
G01*
X010930087Y-15987834D01*
G01*
X011013000Y-15996000D01*
G01*
X011095913Y-15987834D01*
G01*
X011175640Y-15963649D01*
G01*
X011249117Y-15924375D01*
G01*
X011313520Y-15871520D01*
G01*
X011366375Y-15807117D01*
G01*
X011405649Y-15733640D01*
G01*
X011429834Y-15653913D01*
G01*
X011438000Y-15571000D01*
G01*
X011429834Y-15488087D01*
G01*
X011405649Y-15408360D01*
G01*
X011366375Y-15334883D01*
G01*
X011313520Y-15270480D01*
G01*
X011288000Y-15249536D01*
G01*
X011288000Y-15010439D01*
G01*
X011292585Y-15012890D01*
G01*
X011372312Y-15037075D01*
G01*
X011412113Y-15040995D01*
G01*
X011455000Y-15083882D01*
G01*
X011455000Y-20095453D01*
G01*
X011366451Y-20122314D01*
G01*
X011202208Y-20210104D01*
G01*
X011058249Y-20328249D01*
G01*
X010940104Y-20472208D01*
G01*
X010852314Y-20636451D01*
G01*
X010798254Y-20814664D01*
G01*
X010780000Y-21000000D01*
G01*
X010798254Y-21185336D01*
G01*
X010852314Y-21363549D01*
G01*
X010940104Y-21527792D01*
G01*
X011058249Y-21671751D01*
G01*
X011202208Y-21789896D01*
G01*
X011366451Y-21877686D01*
G01*
X011544664Y-21931746D01*
G01*
X011730000Y-21950000D01*
G01*
X011915336Y-21931746D01*
G01*
X012093549Y-21877686D01*
G01*
X012257792Y-21789896D01*
G01*
X012401751Y-21671751D01*
G01*
X012519896Y-21527792D01*
G01*
X012607686Y-21363549D01*
G01*
X012661746Y-21185336D01*
G01*
X012680000Y-21000000D01*
G01*
X012661746Y-20814664D01*
G01*
X012607686Y-20636451D01*
G01*
X012519896Y-20472208D01*
G01*
X012401751Y-20328249D01*
G01*
X012257792Y-20210104D01*
G01*
X012093549Y-20122314D01*
G01*
X012005000Y-20095453D01*
G01*
X012005000Y-14969974D01*
G01*
X011999716Y-14916324D01*
G01*
X011984067Y-14864736D01*
G01*
X011958654Y-14817192D01*
G01*
X011924454Y-14775520D01*
G01*
X011867411Y-14718477D01*
G01*
X011872059Y-14703155D01*
G01*
X011880226Y-14620241D01*
G01*
X011872059Y-14537328D01*
G01*
X011856070Y-14484618D01*
G01*
X011973129Y-14484618D01*
G01*
X012028883Y-14530375D01*
G01*
X012102360Y-14569649D01*
G01*
X012182087Y-14593834D01*
G01*
X012265000Y-14602000D01*
G01*
X012347913Y-14593834D01*
G01*
X012427640Y-14569649D01*
G01*
X012501117Y-14530375D01*
G01*
X012565520Y-14477520D01*
G01*
X012618375Y-14413117D01*
G01*
X012657649Y-14339640D01*
G01*
X012681834Y-14259913D01*
G01*
X012690000Y-14177000D01*
G01*
X012681834Y-14094087D01*
G01*
X012657649Y-14014360D01*
G01*
X012618375Y-13940883D01*
G01*
X012565520Y-13876480D01*
G01*
X012501117Y-13823625D01*
G01*
X012427640Y-13784351D01*
G01*
X012347913Y-13760166D01*
G01*
X012265000Y-13752000D01*
G01*
X012182087Y-13760166D01*
G01*
X012102360Y-13784351D01*
G01*
X012028883Y-13823625D01*
G01*
X011964480Y-13876480D01*
G01*
X011916767Y-13934618D01*
G01*
X011280745Y-13934618D01*
G01*
X011227095Y-13939902D01*
G01*
X011175507Y-13955551D01*
G01*
X011127963Y-13980964D01*
G01*
X011086290Y-14015164D01*
G01*
X010928583Y-14172871D01*
G01*
X010825000Y-14276454D01*
G01*
X010825000Y-02313628D01*
G01*
X010825000Y-02251982D01*
G01*
X010819716Y-02198332D01*
G01*
X010804067Y-02146744D01*
G01*
X010778654Y-02099200D01*
G01*
X010744454Y-02057527D01*
G01*
X009903566Y-01216639D01*
G01*
X009958000Y-01222000D01*
G01*
X009970940Y-01220726D01*
G01*
X011038000Y-02287785D01*
G01*
X011038000Y-09269536D01*
G01*
X011012480Y-09290480D01*
G01*
X010959625Y-09354883D01*
G01*
X010920351Y-09428360D01*
G01*
X010896166Y-09508087D01*
G01*
X010888000Y-09591000D01*
G01*
X010896166Y-09673913D01*
G01*
X010920351Y-09753640D01*
G01*
X010959625Y-09827117D01*
G01*
X011012480Y-09891520D01*
G01*
X011076883Y-09944375D01*
G01*
X011150360Y-09983649D01*
G01*
X011230087Y-10007834D01*
G01*
X011313000Y-10016000D01*
G01*
X011395913Y-10007834D01*
G01*
X011475640Y-09983649D01*
G01*
X011549117Y-09944375D01*
G01*
X011613520Y-09891520D01*
G01*
X011666375Y-09827117D01*
G01*
X011705649Y-09753640D01*
G01*
X011729834Y-09673913D01*
G01*
X011738000Y-09591000D01*
G01*
X011729834Y-09508087D01*
G01*
X011705649Y-09428360D01*
G01*
X011666375Y-09354883D01*
G01*
X011613520Y-09290480D01*
G01*
X011588000Y-09269536D01*
G01*
X011588000Y-02173877D01*
G01*
X011582716Y-02120227D01*
G01*
X011567067Y-02068639D01*
G01*
X011541654Y-02021095D01*
G01*
X011507454Y-01979422D01*
G01*
X010377803Y-00849771D01*
G01*
X010383000Y-00797000D01*
G01*
X010374834Y-00714087D01*
G01*
X010350649Y-00634360D01*
G01*
X010311375Y-00560883D01*
G01*
X010258520Y-00496480D01*
G01*
X010194117Y-00443625D01*
G01*
X010120640Y-00404351D01*
G01*
X010040913Y-00380166D01*
G01*
X009958000Y-00372000D01*
G01*
X009875087Y-00380166D01*
G01*
X009795360Y-00404351D01*
G01*
X009721883Y-00443625D01*
G01*
X009657480Y-00496480D01*
G01*
X009604625Y-00560883D01*
G01*
X009565351Y-00634360D01*
G01*
X009546323Y-00697087D01*
G01*
X009516913Y-00688166D01*
G01*
X009434000Y-00680000D01*
G01*
X009351087Y-00688166D01*
G01*
X009271360Y-00712351D01*
G01*
X009197883Y-00751625D01*
G01*
X009133480Y-00804480D01*
G01*
X009080625Y-00868883D01*
G01*
X009041351Y-00942360D01*
G01*
X009017166Y-01022087D01*
G01*
X009012580Y-01068653D01*
G01*
X008352566Y-00408639D01*
G01*
X008355802Y-00375784D01*
G01*
X008347635Y-00292870D01*
G01*
X008323450Y-00213143D01*
G01*
X008284176Y-00139666D01*
G01*
X008231322Y-00075263D01*
G01*
X008166919Y-00022409D01*
G01*
X008093442Y000016865D01*
G01*
X008013715Y000041050D01*
G01*
X007930802Y000049216D01*
G01*
X007847888Y000041050D01*
G01*
X007768161Y000016865D01*
G01*
X007694684Y-00022409D01*
G01*
X007630281Y-00075263D01*
G01*
X007577427Y-00139666D01*
G01*
X007538153Y-00213143D01*
G01*
X007513968Y-00292870D01*
G01*
X007505802Y-00375784D01*
G01*
X007513968Y-00458697D01*
G01*
X007527289Y-00502609D01*
G01*
X007508360Y-00508351D01*
G01*
X007470000Y-00528855D01*
G01*
X007470000Y000701851D01*
G01*
X007464716Y000755501D01*
G01*
X007449067Y000807089D01*
G01*
X007423654Y000854633D01*
G01*
X007389454Y000896306D01*
G01*
X007120245Y001165515D01*
G01*
X007128836Y001162909D01*
G01*
X007211749Y001154742D01*
G01*
X007294662Y001162909D01*
G01*
X007374390Y001187094D01*
G01*
X007447866Y001226368D01*
G01*
X007512269Y001279222D01*
G01*
X007565124Y001343625D01*
G01*
X007604398Y001417102D01*
G01*
X007628583Y001496829D01*
G01*
X007636749Y001579742D01*
G01*
X007628583Y001662656D01*
G01*
X007604398Y001742383D01*
G01*
X007565124Y001815860D01*
G01*
X007512269Y001880263D01*
G01*
X007447866Y001933117D01*
G01*
X007374390Y001972391D01*
G01*
X007294662Y001996576D01*
G01*
X007230168Y002002928D01*
G01*
X007064102Y002168994D01*
G01*
X007064102Y006280657D01*
G01*
X007089622Y006301601D01*
G01*
X007110566Y006327121D01*
G01*
X008461545Y006327121D01*
G01*
X008503241Y006276314D01*
G01*
X008567644Y006223460D01*
G01*
X008641121Y006184186D01*
G01*
X008720848Y006160001D01*
G01*
X008803761Y006151835D01*
G01*
X008886675Y006160001D01*
G01*
X008966402Y006184186D01*
G01*
X009039879Y006223460D01*
G01*
X009104282Y006276314D01*
G01*
X009157136Y006340717D01*
G01*
X009196410Y006414194D01*
G01*
X009220595Y006493921D01*
G01*
X009228761Y006576835D01*
G01*
X009220595Y006659748D01*
G01*
X009196410Y006739475D01*
G01*
X009191025Y006749549D01*
G01*
X009556717Y007115242D01*
G01*
X009734857Y007115242D01*
G01*
X011000442Y005849657D01*
G01*
X010956883Y005826375D01*
G01*
X010892480Y005773520D01*
G01*
X010839625Y005709117D01*
G01*
X010800351Y005635640D01*
G01*
X010776166Y005555913D01*
G01*
X010768000Y005473000D01*
G01*
X010771016Y005442379D01*
G01*
X008676327Y003370230D01*
G01*
X008676427Y003370129D01*
G01*
X008675272Y003369181D01*
G01*
X008641073Y003327509D01*
G01*
X008615660Y003279965D01*
G01*
X008600011Y003228377D01*
G01*
X008594727Y003174727D01*
G01*
X008594727Y001682273D01*
G01*
X008600011Y001628623D01*
G01*
X008615660Y001577035D01*
G01*
X008641073Y001529491D01*
G01*
X008675272Y001487819D01*
G01*
X011991421Y-01828330D01*
G01*
X012033094Y-01862530D01*
G01*
X012080638Y-01887942D01*
G01*
X012121107Y-01900219D01*
G01*
X021615000Y-11394112D01*
G01*
X021615000Y-15660562D01*
G01*
X021607686Y-15636451D01*
G01*
X021519896Y-15472208D01*
G01*
X021401751Y-15328249D01*
G01*
X021257792Y-15210104D01*
G01*
X021093549Y-15122314D01*
G01*
X020915336Y-15068254D01*
G01*
X020880000Y-15064774D01*
G01*
X020880000Y-15265528D01*
G01*
X021017013Y-15307090D01*
G01*
X021146678Y-15376398D01*
G01*
X021260330Y-15469670D01*
G01*
X021353602Y-15583322D01*
G01*
X021422910Y-15712987D01*
G01*
X021464472Y-15850000D01*
G01*
X021615000Y-15850000D01*
G01*
X021615000Y-16150000D01*
G01*
X021464472Y-16150000D01*
G01*
X021422910Y-16287013D01*
G01*
X021353602Y-16416678D01*
G01*
X021260330Y-16530330D01*
G01*
X021146678Y-16623602D01*
G01*
X021017013Y-16692910D01*
G01*
X020880000Y-16734472D01*
G01*
X020880000Y-16935226D01*
G01*
X020915336Y-16931746D01*
G01*
X021093549Y-16877686D01*
G01*
X021257792Y-16789896D01*
G01*
X021401751Y-16671751D01*
G01*
X021519896Y-16527792D01*
G01*
X021607686Y-16363549D01*
G01*
X021615000Y-16339438D01*
G01*
X021615000Y-20095453D01*
G01*
X021526451Y-20122314D01*
G01*
X021362208Y-20210104D01*
G01*
X021218249Y-20328249D01*
G01*
X021100104Y-20472208D01*
G01*
X021012314Y-20636451D01*
G01*
X020958254Y-20814664D01*
G01*
X020940000Y-21000000D01*
G01*
X020958254Y-21185336D01*
G01*
X021012314Y-21363549D01*
G01*
X021100104Y-21527792D01*
G01*
X021218249Y-21671751D01*
G01*
X021362208Y-21789896D01*
G01*
X021526451Y-21877686D01*
G01*
X021704664Y-21931746D01*
G01*
X021890000Y-21950000D01*
G01*
X022075336Y-21931746D01*
G01*
X022253549Y-21877686D01*
G01*
X022417792Y-21789896D01*
G01*
X022561751Y-21671751D01*
G01*
X022679896Y-21527792D01*
G01*
X022767686Y-21363549D01*
G01*
X022821746Y-21185336D01*
G01*
X022840000Y-21000000D01*
G01*
X022821746Y-20814664D01*
G01*
X022767686Y-20636451D01*
G01*
X022679896Y-20472208D01*
G01*
X022561751Y-20328249D01*
G01*
X022417792Y-20210104D01*
G01*
X022253549Y-20122314D01*
G01*
X022165000Y-20095453D01*
G01*
X022165000Y-19123909D01*
G01*
X023595935Y-20554843D01*
G01*
X023552314Y-20636451D01*
G01*
X023498254Y-20814664D01*
G01*
X023480000Y-21000000D01*
G01*
X023498254Y-21185336D01*
G01*
X023552314Y-21363549D01*
G01*
X023640104Y-21527792D01*
G01*
X023758249Y-21671751D01*
G01*
X023902208Y-21789896D01*
G01*
X024066451Y-21877686D01*
G01*
X024244664Y-21931746D01*
G01*
X024430000Y-21950000D01*
G37*
D36*
G36*
X-08420000Y006064774D02*
G01*
X-08420000Y006265528D01*
G01*
X-08557013Y006307090D01*
G01*
X-08686678Y006376398D01*
G01*
X-08800330Y006469670D01*
G01*
X-08893602Y006583322D01*
G01*
X-08962910Y006712987D01*
G01*
X-09004472Y006850000D01*
G01*
X-09205226Y006850000D01*
G01*
X-09201746Y006814664D01*
G01*
X-09147686Y006636451D01*
G01*
X-09059896Y006472208D01*
G01*
X-08941751Y006328249D01*
G01*
X-08797792Y006210104D01*
G01*
X-08633549Y006122314D01*
G01*
X-08455336Y006068254D01*
G01*
X-08420000Y006064774D01*
G37*
D36*
G36*
X-08120000Y006064774D02*
G01*
X-08084664Y006068254D01*
G01*
X-07906451Y006122314D01*
G01*
X-07742208Y006210104D01*
G01*
X-07598249Y006328249D01*
G01*
X-07480104Y006472208D01*
G01*
X-07392314Y006636451D01*
G01*
X-07338254Y006814664D01*
G01*
X-07334774Y006850000D01*
G01*
X-07535528Y006850000D01*
G01*
X-07577090Y006712987D01*
G01*
X-07646398Y006583322D01*
G01*
X-07739670Y006469670D01*
G01*
X-07853322Y006376398D01*
G01*
X-07982987Y006307090D01*
G01*
X-08120000Y006265528D01*
G01*
X-08120000Y006064774D01*
G37*
D36*
G36*
X013528000Y-00131000D02*
G01*
X013610913Y-00122834D01*
G01*
X013690640Y-00098649D01*
G01*
X013764117Y-00059375D01*
G01*
X013828520Y-00006520D01*
G01*
X013881375Y000057883D01*
G01*
X013920649Y000131360D01*
G01*
X013944834Y000211087D01*
G01*
X013953000Y000294000D01*
G01*
X013944834Y000376913D01*
G01*
X013920649Y000456640D01*
G01*
X013881375Y000530117D01*
G01*
X013828520Y000594520D01*
G01*
X013764117Y000647375D01*
G01*
X013690640Y000686649D01*
G01*
X013610913Y000710834D01*
G01*
X013528000Y000719000D01*
G01*
X013496734Y000715921D01*
G01*
X013178201Y001034454D01*
G01*
X013136528Y001068654D01*
G01*
X013088984Y001094067D01*
G01*
X013037396Y001109716D01*
G01*
X013030221Y001110423D01*
G01*
X013005520Y001140520D01*
G01*
X012941117Y001193375D01*
G01*
X012867640Y001232649D01*
G01*
X012787913Y001256834D01*
G01*
X012705000Y001265000D01*
G01*
X012622087Y001256834D01*
G01*
X012542360Y001232649D01*
G01*
X012468883Y001193375D01*
G01*
X012404480Y001140520D01*
G01*
X012351625Y001076117D01*
G01*
X012312351Y001002640D01*
G01*
X012288166Y000922913D01*
G01*
X012280000Y000840000D01*
G01*
X012288166Y000757087D01*
G01*
X012312351Y000677360D01*
G01*
X012351625Y000603883D01*
G01*
X012404480Y000539480D01*
G01*
X012468883Y000486625D01*
G01*
X012542360Y000447351D01*
G01*
X012622087Y000423166D01*
G01*
X012705000Y000415000D01*
G01*
X012787913Y000423166D01*
G01*
X012867640Y000447351D01*
G01*
X012941117Y000486625D01*
G01*
X012945014Y000489824D01*
G01*
X013106392Y000328446D01*
G01*
X013103000Y000294000D01*
G01*
X013111166Y000211087D01*
G01*
X013135351Y000131360D01*
G01*
X013174625Y000057883D01*
G01*
X013227480Y-00006520D01*
G01*
X013291883Y-00059375D01*
G01*
X013365360Y-00098649D01*
G01*
X013445087Y-00122834D01*
G01*
X013528000Y-00131000D01*
G37*
D36*
G36*
X-11760000Y-00950000D02*
G01*
X-09860000Y-00950000D01*
G01*
X-09860000Y000950000D01*
G01*
X-11760000Y000950000D01*
G01*
X-11760000Y-00950000D01*
G37*
D36*
G36*
X-09205226Y000150000D02*
G01*
X-09004472Y000150000D01*
G01*
X-08962910Y000287013D01*
G01*
X-08893602Y000416678D01*
G01*
X-08800330Y000530330D01*
G01*
X-08686678Y000623602D01*
G01*
X-08557013Y000692910D01*
G01*
X-08420000Y000734472D01*
G01*
X-08420000Y000935226D01*
G01*
X-08455336Y000931746D01*
G01*
X-08633549Y000877686D01*
G01*
X-08797792Y000789896D01*
G01*
X-08941751Y000671751D01*
G01*
X-09059896Y000527792D01*
G01*
X-09147686Y000363549D01*
G01*
X-09201746Y000185336D01*
G01*
X-09205226Y000150000D01*
G37*
D36*
G36*
X-07535528Y000150000D02*
G01*
X-07334774Y000150000D01*
G01*
X-07338254Y000185336D01*
G01*
X-07392314Y000363549D01*
G01*
X-07480104Y000527792D01*
G01*
X-07598249Y000671751D01*
G01*
X-07742208Y000789896D01*
G01*
X-07906451Y000877686D01*
G01*
X-08084664Y000931746D01*
G01*
X-08120000Y000935226D01*
G01*
X-08120000Y000734472D01*
G01*
X-07982987Y000692910D01*
G01*
X-07853322Y000623602D01*
G01*
X-07739670Y000530330D01*
G01*
X-07646398Y000416678D01*
G01*
X-07577090Y000287013D01*
G01*
X-07535528Y000150000D01*
G37*
D36*
G36*
X-08420000Y-00935226D02*
G01*
X-08420000Y-00734472D01*
G01*
X-08557013Y-00692910D01*
G01*
X-08686678Y-00623602D01*
G01*
X-08800330Y-00530330D01*
G01*
X-08893602Y-00416678D01*
G01*
X-08962910Y-00287013D01*
G01*
X-09004472Y-00150000D01*
G01*
X-09205226Y-00150000D01*
G01*
X-09201746Y-00185336D01*
G01*
X-09147686Y-00363549D01*
G01*
X-09059896Y-00527792D01*
G01*
X-08941751Y-00671751D01*
G01*
X-08797792Y-00789896D01*
G01*
X-08633549Y-00877686D01*
G01*
X-08455336Y-00931746D01*
G01*
X-08420000Y-00935226D01*
G37*
D36*
G36*
X-08120000Y-00935226D02*
G01*
X-08084664Y-00931746D01*
G01*
X-07906451Y-00877686D01*
G01*
X-07742208Y-00789896D01*
G01*
X-07598249Y-00671751D01*
G01*
X-07480104Y-00527792D01*
G01*
X-07392314Y-00363549D01*
G01*
X-07338254Y-00185336D01*
G01*
X-07334774Y-00150000D01*
G01*
X-07535528Y-00150000D01*
G01*
X-07577090Y-00287013D01*
G01*
X-07646398Y-00416678D01*
G01*
X-07739670Y-00530330D01*
G01*
X-07853322Y-00623602D01*
G01*
X-07982987Y-00692910D01*
G01*
X-08120000Y-00734472D01*
G01*
X-08120000Y-00935226D01*
G37*
D36*
G36*
X014814000Y-01475000D02*
G01*
X014896913Y-01466834D01*
G01*
X014976640Y-01442649D01*
G01*
X015050117Y-01403375D01*
G01*
X015114520Y-01350520D01*
G01*
X015167375Y-01286117D01*
G01*
X015206649Y-01212640D01*
G01*
X015230834Y-01132913D01*
G01*
X015231676Y-01124361D01*
G01*
X018662567Y-01124361D01*
G01*
X018683511Y-01149881D01*
G01*
X018747915Y-01202736D01*
G01*
X018821391Y-01242010D01*
G01*
X018901118Y-01266195D01*
G01*
X018984032Y-01274361D01*
G01*
X019066945Y-01266195D01*
G01*
X019146672Y-01242010D01*
G01*
X019220149Y-01202736D01*
G01*
X019284552Y-01149881D01*
G01*
X019337406Y-01085478D01*
G01*
X019376681Y-01012002D01*
G01*
X019400866Y-00932274D01*
G01*
X019409032Y-00849361D01*
G01*
X019400866Y-00766448D01*
G01*
X019376681Y-00686721D01*
G01*
X019337406Y-00613244D01*
G01*
X019284552Y-00548841D01*
G01*
X019220149Y-00495986D01*
G01*
X019146672Y-00456712D01*
G01*
X019066945Y-00432527D01*
G01*
X018984032Y-00424361D01*
G01*
X018901118Y-00432527D01*
G01*
X018821391Y-00456712D01*
G01*
X018747915Y-00495986D01*
G01*
X018683511Y-00548841D01*
G01*
X018662567Y-00574361D01*
G01*
X015014639Y-00574361D01*
G01*
X014960989Y-00579645D01*
G01*
X014909401Y-00595294D01*
G01*
X014861857Y-00620707D01*
G01*
X014852059Y-00628748D01*
G01*
X014814000Y-00625000D01*
G01*
X014731087Y-00633166D01*
G01*
X014651360Y-00657351D01*
G01*
X014577883Y-00696625D01*
G01*
X014513480Y-00749480D01*
G01*
X014460625Y-00813883D01*
G01*
X014421351Y-00887360D01*
G01*
X014397166Y-00967087D01*
G01*
X014389000Y-01050000D01*
G01*
X014397166Y-01132913D01*
G01*
X014421351Y-01212640D01*
G01*
X014460625Y-01286117D01*
G01*
X014513480Y-01350520D01*
G01*
X014577883Y-01403375D01*
G01*
X014651360Y-01442649D01*
G01*
X014731087Y-01466834D01*
G01*
X014814000Y-01475000D01*
G37*
D36*
G36*
X-17200000Y-16025000D02*
G01*
X-17117087Y-16016834D01*
G01*
X-17037360Y-15992649D01*
G01*
X-16963883Y-15953375D01*
G01*
X-16899480Y-15900520D01*
G01*
X-16878536Y-15875000D01*
G01*
X-16140954Y-15875000D01*
G01*
X-16087304Y-15869716D01*
G01*
X-16035716Y-15854067D01*
G01*
X-15988172Y-15828654D01*
G01*
X-15946499Y-15794454D01*
G01*
X-09992257Y-09840212D01*
G01*
X-09962375Y-09896117D01*
G01*
X-09909520Y-09960520D01*
G01*
X-09845117Y-10013375D01*
G01*
X-09771640Y-10052649D01*
G01*
X-09691913Y-10076834D01*
G01*
X-09609000Y-10085000D01*
G01*
X-09526087Y-10076834D01*
G01*
X-09446360Y-10052649D01*
G01*
X-09372883Y-10013375D01*
G01*
X-09308480Y-09960520D01*
G01*
X-09255625Y-09896117D01*
G01*
X-09216351Y-09822640D01*
G01*
X-09192166Y-09742913D01*
G01*
X-09184000Y-09660000D01*
G01*
X-09187236Y-09627144D01*
G01*
X-05839629Y-06279537D01*
G01*
X-03627974Y-06279537D01*
G01*
X-03602025Y-06279537D01*
G01*
X-03548375Y-06274253D01*
G01*
X-03496787Y-06258604D01*
G01*
X-03449243Y-06233191D01*
G01*
X-03407570Y-06198991D01*
G01*
X-01502630Y-04294051D01*
G01*
X-01499640Y-04295649D01*
G01*
X-01419913Y-04319834D01*
G01*
X-01337000Y-04328000D01*
G01*
X-01254087Y-04319834D01*
G01*
X-01174360Y-04295649D01*
G01*
X-01100883Y-04256375D01*
G01*
X-01036480Y-04203520D01*
G01*
X-00983625Y-04139117D01*
G01*
X-00944351Y-04065640D01*
G01*
X-00920166Y-03985913D01*
G01*
X-00912000Y-03903000D01*
G01*
X-00920166Y-03820087D01*
G01*
X-00944351Y-03740360D01*
G01*
X-00983625Y-03666883D01*
G01*
X-01036480Y-03602480D01*
G01*
X-01100883Y-03549625D01*
G01*
X-01174360Y-03510351D01*
G01*
X-01176319Y-03509757D01*
G01*
X000609207Y-01724231D01*
G01*
X001091597Y-01724231D01*
G01*
X001145247Y-01718947D01*
G01*
X001196835Y-01703298D01*
G01*
X001198948Y-01702169D01*
G01*
X001250360Y-01729649D01*
G01*
X001330087Y-01753834D01*
G01*
X001413000Y-01762000D01*
G01*
X001495913Y-01753834D01*
G01*
X001575640Y-01729649D01*
G01*
X001649117Y-01690375D01*
G01*
X001713520Y-01637520D01*
G01*
X001766375Y-01573117D01*
G01*
X001805649Y-01499640D01*
G01*
X001829834Y-01419913D01*
G01*
X001838000Y-01337000D01*
G01*
X001829834Y-01254087D01*
G01*
X001805649Y-01174360D01*
G01*
X001766375Y-01100883D01*
G01*
X001713520Y-01036480D01*
G01*
X001649117Y-00983625D01*
G01*
X001575640Y-00944351D01*
G01*
X001495913Y-00920166D01*
G01*
X001413000Y-00912000D01*
G01*
X001330087Y-00920166D01*
G01*
X001250360Y-00944351D01*
G01*
X001176883Y-00983625D01*
G01*
X001112480Y-01036480D01*
G01*
X001059625Y-01100883D01*
G01*
X001056079Y-01107518D01*
G01*
X001047046Y-01112346D01*
G01*
X001005374Y-01146546D01*
G01*
X000977689Y-01174231D01*
G01*
X000495298Y-01174231D01*
G01*
X000441648Y-01179515D01*
G01*
X000390060Y-01195164D01*
G01*
X000342516Y-01220577D01*
G01*
X000300843Y-01254777D01*
G01*
X-03369379Y-04925000D01*
G01*
X-16878536Y-04925000D01*
G01*
X-16899480Y-04899480D01*
G01*
X-16963883Y-04846625D01*
G01*
X-17037360Y-04807351D01*
G01*
X-17117087Y-04783166D01*
G01*
X-17200000Y-04775000D01*
G01*
X-17282913Y-04783166D01*
G01*
X-17362640Y-04807351D01*
G01*
X-17436117Y-04846625D01*
G01*
X-17500520Y-04899480D01*
G01*
X-17553375Y-04963883D01*
G01*
X-17592649Y-05037360D01*
G01*
X-17616834Y-05117087D01*
G01*
X-17625000Y-05200000D01*
G01*
X-17616834Y-05282913D01*
G01*
X-17592649Y-05362640D01*
G01*
X-17553375Y-05436117D01*
G01*
X-17500520Y-05500520D01*
G01*
X-17436117Y-05553375D01*
G01*
X-17362640Y-05592649D01*
G01*
X-17282913Y-05616834D01*
G01*
X-17200000Y-05625000D01*
G01*
X-17117087Y-05616834D01*
G01*
X-17037360Y-05592649D01*
G01*
X-16963883Y-05553375D01*
G01*
X-16899480Y-05500520D01*
G01*
X-16878536Y-05475000D01*
G01*
X-06371854Y-05475000D01*
G01*
X-06385834Y-05521087D01*
G01*
X-06394000Y-05604000D01*
G01*
X-06391016Y-05634301D01*
G01*
X-06755078Y-05998363D01*
G01*
X-06814316Y-05998363D01*
G01*
X-06867966Y-06003647D01*
G01*
X-06919554Y-06019296D01*
G01*
X-06967098Y-06044708D01*
G01*
X-07008771Y-06078908D01*
G01*
X-10780696Y-09850833D01*
G01*
X-10775000Y-09793000D01*
G01*
X-10783166Y-09710087D01*
G01*
X-10807351Y-09630360D01*
G01*
X-10846625Y-09556883D01*
G01*
X-10899480Y-09492480D01*
G01*
X-10963883Y-09439625D01*
G01*
X-11037360Y-09400351D01*
G01*
X-11117087Y-09376166D01*
G01*
X-11200000Y-09368000D01*
G01*
X-11282913Y-09376166D01*
G01*
X-11362640Y-09400351D01*
G01*
X-11436117Y-09439625D01*
G01*
X-11500520Y-09492480D01*
G01*
X-11553375Y-09556883D01*
G01*
X-11592649Y-09630360D01*
G01*
X-11616834Y-09710087D01*
G01*
X-11625000Y-09793000D01*
G01*
X-11621823Y-09825253D01*
G01*
X-14567570Y-12771000D01*
G01*
X-18638536Y-12771000D01*
G01*
X-18659480Y-12745480D01*
G01*
X-18723883Y-12692625D01*
G01*
X-18797360Y-12653351D01*
G01*
X-18877087Y-12629166D01*
G01*
X-18960000Y-12621000D01*
G01*
X-19042913Y-12629166D01*
G01*
X-19122640Y-12653351D01*
G01*
X-19196117Y-12692625D01*
G01*
X-19260520Y-12745480D01*
G01*
X-19313375Y-12809883D01*
G01*
X-19352649Y-12883360D01*
G01*
X-19376834Y-12963087D01*
G01*
X-19385000Y-13046000D01*
G01*
X-19376834Y-13128913D01*
G01*
X-19352649Y-13208640D01*
G01*
X-19313375Y-13282117D01*
G01*
X-19260520Y-13346520D01*
G01*
X-19196117Y-13399375D01*
G01*
X-19122640Y-13438649D01*
G01*
X-19042913Y-13462834D01*
G01*
X-18960000Y-13471000D01*
G01*
X-18877087Y-13462834D01*
G01*
X-18797360Y-13438649D01*
G01*
X-18723883Y-13399375D01*
G01*
X-18659480Y-13346520D01*
G01*
X-18638536Y-13321000D01*
G01*
X-14453662Y-13321000D01*
G01*
X-14400012Y-13315716D01*
G01*
X-14348424Y-13300067D01*
G01*
X-14300880Y-13274654D01*
G01*
X-14259207Y-13240454D01*
G01*
X-11233458Y-10214705D01*
G01*
X-11200000Y-10218000D01*
G01*
X-11142167Y-10212304D01*
G01*
X-16254862Y-15325000D01*
G01*
X-16878536Y-15325000D01*
G01*
X-16899480Y-15299480D01*
G01*
X-16963883Y-15246625D01*
G01*
X-17037360Y-15207351D01*
G01*
X-17117087Y-15183166D01*
G01*
X-17200000Y-15175000D01*
G01*
X-17282913Y-15183166D01*
G01*
X-17362640Y-15207351D01*
G01*
X-17436117Y-15246625D01*
G01*
X-17500520Y-15299480D01*
G01*
X-17553375Y-15363883D01*
G01*
X-17592649Y-15437360D01*
G01*
X-17616834Y-15517087D01*
G01*
X-17625000Y-15600000D01*
G01*
X-17616834Y-15682913D01*
G01*
X-17592649Y-15762640D01*
G01*
X-17553375Y-15836117D01*
G01*
X-17500520Y-15900520D01*
G01*
X-17436117Y-15953375D01*
G01*
X-17362640Y-15992649D01*
G01*
X-17282913Y-16016834D01*
G01*
X-17200000Y-16025000D01*
G37*
D36*
G36*
X-28000000Y-03200000D02*
G01*
X-27814664Y-03181746D01*
G01*
X-27636451Y-03127686D01*
G01*
X-27472208Y-03039896D01*
G01*
X-27328249Y-02921751D01*
G01*
X-27210104Y-02777792D01*
G01*
X-27122314Y-02613549D01*
G01*
X-27068254Y-02435336D01*
G01*
X-27050000Y-02250000D01*
G01*
X-27068254Y-02064664D01*
G01*
X-27122314Y-01886451D01*
G01*
X-27210104Y-01722208D01*
G01*
X-27328249Y-01578249D01*
G01*
X-27472208Y-01460104D01*
G01*
X-27636451Y-01372314D01*
G01*
X-27814664Y-01318254D01*
G01*
X-28000000Y-01300000D01*
G01*
X-28185336Y-01318254D01*
G01*
X-28363549Y-01372314D01*
G01*
X-28527792Y-01460104D01*
G01*
X-28671751Y-01578249D01*
G01*
X-28789896Y-01722208D01*
G01*
X-28877686Y-01886451D01*
G01*
X-28931746Y-02064664D01*
G01*
X-28950000Y-02250000D01*
G01*
X-28931746Y-02435336D01*
G01*
X-28877686Y-02613549D01*
G01*
X-28789896Y-02777792D01*
G01*
X-28671751Y-02921751D01*
G01*
X-28527792Y-03039896D01*
G01*
X-28363549Y-03127686D01*
G01*
X-28185336Y-03181746D01*
G01*
X-28000000Y-03200000D01*
G37*
D36*
G36*
X-17076000Y-03010000D02*
G01*
X-16993087Y-03001834D01*
G01*
X-16913360Y-02977649D01*
G01*
X-16839883Y-02938375D01*
G01*
X-16775480Y-02885520D01*
G01*
X-16754536Y-02860000D01*
G01*
X-12897643Y-02860000D01*
G01*
X-12877520Y-02884520D01*
G01*
X-12813117Y-02937375D01*
G01*
X-12739640Y-02976649D01*
G01*
X-12659913Y-03000834D01*
G01*
X-12577000Y-03009000D01*
G01*
X-12494087Y-03000834D01*
G01*
X-12414360Y-02976649D01*
G01*
X-12340883Y-02937375D01*
G01*
X-12276480Y-02884520D01*
G01*
X-12223625Y-02820117D01*
G01*
X-12184351Y-02746640D01*
G01*
X-12160166Y-02666913D01*
G01*
X-12152000Y-02584000D01*
G01*
X-12160166Y-02501087D01*
G01*
X-12184351Y-02421360D01*
G01*
X-12223625Y-02347883D01*
G01*
X-12276480Y-02283480D01*
G01*
X-12340883Y-02230625D01*
G01*
X-12414360Y-02191351D01*
G01*
X-12494087Y-02167166D01*
G01*
X-12577000Y-02159000D01*
G01*
X-12659913Y-02167166D01*
G01*
X-12739640Y-02191351D01*
G01*
X-12813117Y-02230625D01*
G01*
X-12877520Y-02283480D01*
G01*
X-12899285Y-02310000D01*
G01*
X-16754536Y-02310000D01*
G01*
X-16775480Y-02284480D01*
G01*
X-16839883Y-02231625D01*
G01*
X-16913360Y-02192351D01*
G01*
X-16993087Y-02168166D01*
G01*
X-17076000Y-02160000D01*
G01*
X-17158913Y-02168166D01*
G01*
X-17238640Y-02192351D01*
G01*
X-17312117Y-02231625D01*
G01*
X-17376520Y-02284480D01*
G01*
X-17429375Y-02348883D01*
G01*
X-17468649Y-02422360D01*
G01*
X-17492834Y-02502087D01*
G01*
X-17501000Y-02585000D01*
G01*
X-17492834Y-02667913D01*
G01*
X-17468649Y-02747640D01*
G01*
X-17429375Y-02821117D01*
G01*
X-17376520Y-02885520D01*
G01*
X-17312117Y-02938375D01*
G01*
X-17238640Y-02977649D01*
G01*
X-17158913Y-03001834D01*
G01*
X-17076000Y-03010000D01*
G37*
D36*
G36*
X-08628000Y-04038000D02*
G01*
X-08545087Y-04029834D01*
G01*
X-08465360Y-04005649D01*
G01*
X-08391883Y-03966375D01*
G01*
X-08327480Y-03913520D01*
G01*
X-08306536Y-03888000D01*
G01*
X-07728261Y-03888000D01*
G01*
X-07674611Y-03882716D01*
G01*
X-07623023Y-03867067D01*
G01*
X-07575479Y-03841654D01*
G01*
X-07533807Y-03807454D01*
G01*
X-07424726Y-03698374D01*
G01*
X-07419913Y-03699834D01*
G01*
X-07337000Y-03708000D01*
G01*
X-07254087Y-03699834D01*
G01*
X-07174360Y-03675649D01*
G01*
X-07100883Y-03636375D01*
G01*
X-07036480Y-03583520D01*
G01*
X-06983625Y-03519117D01*
G01*
X-06944351Y-03445640D01*
G01*
X-06920166Y-03365913D01*
G01*
X-06912000Y-03283000D01*
G01*
X-06920166Y-03200087D01*
G01*
X-06944351Y-03120360D01*
G01*
X-06983625Y-03046883D01*
G01*
X-07036480Y-02982480D01*
G01*
X-07100883Y-02929625D01*
G01*
X-07174360Y-02890351D01*
G01*
X-07254087Y-02866166D01*
G01*
X-07337000Y-02858000D01*
G01*
X-07419913Y-02866166D01*
G01*
X-07499640Y-02890351D01*
G01*
X-07573117Y-02929625D01*
G01*
X-07637520Y-02982480D01*
G01*
X-07690375Y-03046883D01*
G01*
X-07729649Y-03120360D01*
G01*
X-07753834Y-03200087D01*
G01*
X-07759250Y-03255081D01*
G01*
X-07842169Y-03338000D01*
G01*
X-08306536Y-03338000D01*
G01*
X-08327480Y-03312480D01*
G01*
X-08391883Y-03259625D01*
G01*
X-08465360Y-03220351D01*
G01*
X-08545087Y-03196166D01*
G01*
X-08628000Y-03188000D01*
G01*
X-08710913Y-03196166D01*
G01*
X-08790640Y-03220351D01*
G01*
X-08864117Y-03259625D01*
G01*
X-08928520Y-03312480D01*
G01*
X-08981375Y-03376883D01*
G01*
X-09020649Y-03450360D01*
G01*
X-09044834Y-03530087D01*
G01*
X-09053000Y-03613000D01*
G01*
X-09044834Y-03695913D01*
G01*
X-09020649Y-03775640D01*
G01*
X-08981375Y-03849117D01*
G01*
X-08928520Y-03913520D01*
G01*
X-08864117Y-03966375D01*
G01*
X-08790640Y-04005649D01*
G01*
X-08710913Y-04029834D01*
G01*
X-08628000Y-04038000D01*
G37*
D36*
G36*
X014270000Y-21950000D02*
G01*
X014455336Y-21931746D01*
G01*
X014633549Y-21877686D01*
G01*
X014797792Y-21789896D01*
G01*
X014941751Y-21671751D01*
G01*
X015059896Y-21527792D01*
G01*
X015147686Y-21363549D01*
G01*
X015201746Y-21185336D01*
G01*
X015220000Y-21000000D01*
G01*
X015201746Y-20814664D01*
G01*
X015147686Y-20636451D01*
G01*
X015059896Y-20472208D01*
G01*
X014941751Y-20328249D01*
G01*
X014797792Y-20210104D01*
G01*
X014633549Y-20122314D01*
G01*
X014545000Y-20095453D01*
G01*
X014545000Y-07606867D01*
G01*
X014598249Y-07671751D01*
G01*
X014742208Y-07789896D01*
G01*
X014906451Y-07877686D01*
G01*
X015084664Y-07931746D01*
G01*
X015120000Y-07935226D01*
G01*
X015120000Y-07734472D01*
G01*
X014982987Y-07692910D01*
G01*
X014853322Y-07623602D01*
G01*
X014739670Y-07530330D01*
G01*
X014646398Y-07416678D01*
G01*
X014577090Y-07287013D01*
G01*
X014545000Y-07181225D01*
G01*
X014545000Y-06818775D01*
G01*
X014577090Y-06712987D01*
G01*
X014646398Y-06583322D01*
G01*
X014739670Y-06469670D01*
G01*
X014853322Y-06376398D01*
G01*
X014982987Y-06307090D01*
G01*
X015120000Y-06265528D01*
G01*
X015120000Y-06064774D01*
G01*
X015084664Y-06068254D01*
G01*
X014906451Y-06122314D01*
G01*
X014742208Y-06210104D01*
G01*
X014598249Y-06328249D01*
G01*
X014545000Y-06393133D01*
G01*
X014545000Y-05049000D01*
G01*
X014539716Y-04995350D01*
G01*
X014524067Y-04943762D01*
G01*
X014498654Y-04896218D01*
G01*
X014464454Y-04854546D01*
G01*
X013840764Y-04230856D01*
G01*
X013844000Y-04198000D01*
G01*
X013835834Y-04115087D01*
G01*
X013811649Y-04035360D01*
G01*
X013772375Y-03961883D01*
G01*
X013719520Y-03897480D01*
G01*
X013655117Y-03844625D01*
G01*
X013581640Y-03805351D01*
G01*
X013501913Y-03781166D01*
G01*
X013419000Y-03773000D01*
G01*
X013336087Y-03781166D01*
G01*
X013256360Y-03805351D01*
G01*
X013182883Y-03844625D01*
G01*
X013118480Y-03897480D01*
G01*
X013065625Y-03961883D01*
G01*
X013026351Y-04035360D01*
G01*
X013002166Y-04115087D01*
G01*
X012994000Y-04198000D01*
G01*
X013002166Y-04280913D01*
G01*
X013026351Y-04360640D01*
G01*
X013065625Y-04434117D01*
G01*
X013118480Y-04498520D01*
G01*
X013182883Y-04551375D01*
G01*
X013256360Y-04590649D01*
G01*
X013336087Y-04614834D01*
G01*
X013419000Y-04623000D01*
G01*
X013451856Y-04619764D01*
G01*
X013995000Y-05162908D01*
G01*
X013995000Y-20095453D01*
G01*
X013906451Y-20122314D01*
G01*
X013742208Y-20210104D01*
G01*
X013598249Y-20328249D01*
G01*
X013480104Y-20472208D01*
G01*
X013392314Y-20636451D01*
G01*
X013338254Y-20814664D01*
G01*
X013320000Y-21000000D01*
G01*
X013338254Y-21185336D01*
G01*
X013392314Y-21363549D01*
G01*
X013480104Y-21527792D01*
G01*
X013598249Y-21671751D01*
G01*
X013742208Y-21789896D01*
G01*
X013906451Y-21877686D01*
G01*
X014084664Y-21931746D01*
G01*
X014270000Y-21950000D01*
G37*
D36*
G36*
X-28950000Y-06700000D02*
G01*
X-27050000Y-06700000D01*
G01*
X-27050000Y-05865000D01*
G01*
X-27048250Y-05865000D01*
G01*
X-26481500Y-05865000D01*
G01*
X-25914750Y-05865000D01*
G01*
X-25348000Y-05865000D01*
G01*
X-25250455Y-05855393D01*
G01*
X-25156658Y-05826940D01*
G01*
X-25070215Y-05780735D01*
G01*
X-24994447Y-05718553D01*
G01*
X-24932265Y-05642785D01*
G01*
X-24886060Y-05556342D01*
G01*
X-24857607Y-05462545D01*
G01*
X-24848000Y-05365000D01*
G01*
X-24857607Y-05267455D01*
G01*
X-24886060Y-05173658D01*
G01*
X-24932265Y-05087215D01*
G01*
X-24994447Y-05011447D01*
G01*
X-25070215Y-04949265D01*
G01*
X-25156658Y-04903060D01*
G01*
X-25250455Y-04874607D01*
G01*
X-25348000Y-04865000D01*
G01*
X-25914750Y-04865000D01*
G01*
X-26481500Y-04865000D01*
G01*
X-27048250Y-04865000D01*
G01*
X-27050000Y-04865000D01*
G01*
X-27050000Y-04800000D01*
G01*
X-28950000Y-04800000D01*
G01*
X-28950000Y-06700000D01*
G37*
D36*
G36*
X-03508000Y-15575000D02*
G01*
X-03425087Y-15566834D01*
G01*
X-03345360Y-15542649D01*
G01*
X-03271883Y-15503375D01*
G01*
X-03207480Y-15450520D01*
G01*
X-03154625Y-15386117D01*
G01*
X-03115351Y-15312640D01*
G01*
X-03091166Y-15232913D01*
G01*
X-03083000Y-15150000D01*
G01*
X-03091166Y-15067087D01*
G01*
X-03115351Y-14987360D01*
G01*
X-03154625Y-14913883D01*
G01*
X-03207480Y-14849480D01*
G01*
X-03233000Y-14828536D01*
G01*
X-03233000Y-10459997D01*
G01*
X001036049Y-06190948D01*
G01*
X001037360Y-06191649D01*
G01*
X001117087Y-06215834D01*
G01*
X001200000Y-06224000D01*
G01*
X001282913Y-06215834D01*
G01*
X001362640Y-06191649D01*
G01*
X001436117Y-06152375D01*
G01*
X001500520Y-06099520D01*
G01*
X001553375Y-06035117D01*
G01*
X001592649Y-05961640D01*
G01*
X001616834Y-05881913D01*
G01*
X001625000Y-05799000D01*
G01*
X001616834Y-05716087D01*
G01*
X001592649Y-05636360D01*
G01*
X001553375Y-05562883D01*
G01*
X001500520Y-05498480D01*
G01*
X001436117Y-05445625D01*
G01*
X001362640Y-05406351D01*
G01*
X001282913Y-05382166D01*
G01*
X001200000Y-05374000D01*
G01*
X001117087Y-05382166D01*
G01*
X001037360Y-05406351D01*
G01*
X000963883Y-05445625D01*
G01*
X000899480Y-05498480D01*
G01*
X000846625Y-05562883D01*
G01*
X000807351Y-05636360D01*
G01*
X000804970Y-05644209D01*
G01*
X-03702454Y-10151634D01*
G01*
X-03736654Y-10193306D01*
G01*
X-03762067Y-10240850D01*
G01*
X-03777716Y-10292438D01*
G01*
X-03783000Y-10346088D01*
G01*
X-03783000Y-14828536D01*
G01*
X-03808520Y-14849480D01*
G01*
X-03861375Y-14913883D01*
G01*
X-03900649Y-14987360D01*
G01*
X-03924834Y-15067087D01*
G01*
X-03933000Y-15150000D01*
G01*
X-03924834Y-15232913D01*
G01*
X-03900649Y-15312640D01*
G01*
X-03861375Y-15386117D01*
G01*
X-03808520Y-15450520D01*
G01*
X-03744117Y-15503375D01*
G01*
X-03670640Y-15542649D01*
G01*
X-03590913Y-15566834D01*
G01*
X-03508000Y-15575000D01*
G37*
D36*
G36*
X011780000Y-07950000D02*
G01*
X013680000Y-07950000D01*
G01*
X013680000Y-06050000D01*
G01*
X011780000Y-06050000D01*
G01*
X011780000Y-07950000D01*
G37*
D36*
G36*
X016004472Y-06850000D02*
G01*
X016205226Y-06850000D01*
G01*
X016201746Y-06814664D01*
G01*
X016147686Y-06636451D01*
G01*
X016059896Y-06472208D01*
G01*
X015941751Y-06328249D01*
G01*
X015797792Y-06210104D01*
G01*
X015633549Y-06122314D01*
G01*
X015455336Y-06068254D01*
G01*
X015420000Y-06064774D01*
G01*
X015420000Y-06265528D01*
G01*
X015557013Y-06307090D01*
G01*
X015686678Y-06376398D01*
G01*
X015800330Y-06469670D01*
G01*
X015893602Y-06583322D01*
G01*
X015962910Y-06712987D01*
G01*
X016004472Y-06850000D01*
G37*
D36*
G36*
X-05589000Y-08227000D02*
G01*
X-05506087Y-08218834D01*
G01*
X-05426360Y-08194649D01*
G01*
X-05352883Y-08155375D01*
G01*
X-05288480Y-08102520D01*
G01*
X-05235625Y-08038117D01*
G01*
X-05196351Y-07964640D01*
G01*
X-05194463Y-07958416D01*
G01*
X-04434600Y-07198554D01*
G01*
X-04359000Y-07206000D01*
G01*
X-04276087Y-07197834D01*
G01*
X-04196360Y-07173649D01*
G01*
X-04122883Y-07134375D01*
G01*
X-04058480Y-07081520D01*
G01*
X-04005625Y-07017117D01*
G01*
X-03966351Y-06943640D01*
G01*
X-03942166Y-06863913D01*
G01*
X-03934000Y-06781000D01*
G01*
X-03942166Y-06698087D01*
G01*
X-03966351Y-06618360D01*
G01*
X-04005625Y-06544883D01*
G01*
X-04058480Y-06480480D01*
G01*
X-04122883Y-06427625D01*
G01*
X-04196360Y-06388351D01*
G01*
X-04276087Y-06364166D01*
G01*
X-04359000Y-06356000D01*
G01*
X-04441913Y-06364166D01*
G01*
X-04521640Y-06388351D01*
G01*
X-04595117Y-06427625D01*
G01*
X-04659520Y-06480480D01*
G01*
X-04712375Y-06544883D01*
G01*
X-04751649Y-06618360D01*
G01*
X-04775834Y-06698087D01*
G01*
X-04782813Y-06768949D01*
G01*
X-05424310Y-07410447D01*
G01*
X-05426360Y-07409351D01*
G01*
X-05506087Y-07385166D01*
G01*
X-05589000Y-07377000D01*
G01*
X-05671913Y-07385166D01*
G01*
X-05751640Y-07409351D01*
G01*
X-05825117Y-07448625D01*
G01*
X-05889520Y-07501480D01*
G01*
X-05942375Y-07565883D01*
G01*
X-05981649Y-07639360D01*
G01*
X-06005834Y-07719087D01*
G01*
X-06014000Y-07802000D01*
G01*
X-06005834Y-07884913D01*
G01*
X-05981649Y-07964640D01*
G01*
X-05942375Y-08038117D01*
G01*
X-05889520Y-08102520D01*
G01*
X-05825117Y-08155375D01*
G01*
X-05751640Y-08194649D01*
G01*
X-05671913Y-08218834D01*
G01*
X-05589000Y-08227000D01*
G37*
D36*
G36*
X015420000Y-07935226D02*
G01*
X015455336Y-07931746D01*
G01*
X015633549Y-07877686D01*
G01*
X015797792Y-07789896D01*
G01*
X015941751Y-07671751D01*
G01*
X016059896Y-07527792D01*
G01*
X016147686Y-07363549D01*
G01*
X016201746Y-07185336D01*
G01*
X016205226Y-07150000D01*
G01*
X016004472Y-07150000D01*
G01*
X015962910Y-07287013D01*
G01*
X015893602Y-07416678D01*
G01*
X015800330Y-07530330D01*
G01*
X015686678Y-07623602D01*
G01*
X015557013Y-07692910D01*
G01*
X015420000Y-07734472D01*
G01*
X015420000Y-07935226D01*
G37*
D36*
G36*
X000240000Y-11950000D02*
G01*
X002140000Y-11950000D01*
G01*
X002140000Y-10050000D01*
G01*
X000240000Y-10050000D01*
G01*
X000240000Y-11950000D01*
G37*
D36*
G36*
X007874774Y-10850000D02*
G01*
X008075528Y-10850000D01*
G01*
X008117090Y-10712987D01*
G01*
X008186398Y-10583322D01*
G01*
X008279670Y-10469670D01*
G01*
X008393322Y-10376398D01*
G01*
X008522987Y-10307090D01*
G01*
X008660000Y-10265528D01*
G01*
X008660000Y-10064774D01*
G01*
X008624664Y-10068254D01*
G01*
X008446451Y-10122314D01*
G01*
X008282208Y-10210104D01*
G01*
X008138249Y-10328249D01*
G01*
X008020104Y-10472208D01*
G01*
X007932314Y-10636451D01*
G01*
X007878254Y-10814664D01*
G01*
X007874774Y-10850000D01*
G37*
D36*
G36*
X009544472Y-10850000D02*
G01*
X009745226Y-10850000D01*
G01*
X009741746Y-10814664D01*
G01*
X009687686Y-10636451D01*
G01*
X009599896Y-10472208D01*
G01*
X009481751Y-10328249D01*
G01*
X009337792Y-10210104D01*
G01*
X009173549Y-10122314D01*
G01*
X008995336Y-10068254D01*
G01*
X008960000Y-10064774D01*
G01*
X008960000Y-10265528D01*
G01*
X009097013Y-10307090D01*
G01*
X009226678Y-10376398D01*
G01*
X009340330Y-10469670D01*
G01*
X009433602Y-10583322D01*
G01*
X009502910Y-10712987D01*
G01*
X009544472Y-10850000D01*
G37*
D36*
G36*
X008660000Y-11935226D02*
G01*
X008660000Y-11734472D01*
G01*
X008522987Y-11692910D01*
G01*
X008393322Y-11623602D01*
G01*
X008279670Y-11530330D01*
G01*
X008186398Y-11416678D01*
G01*
X008117090Y-11287013D01*
G01*
X008075528Y-11150000D01*
G01*
X007874774Y-11150000D01*
G01*
X007878254Y-11185336D01*
G01*
X007932314Y-11363549D01*
G01*
X008020104Y-11527792D01*
G01*
X008138249Y-11671751D01*
G01*
X008282208Y-11789896D01*
G01*
X008446451Y-11877686D01*
G01*
X008624664Y-11931746D01*
G01*
X008660000Y-11935226D01*
G37*
D36*
G36*
X008960000Y-11935226D02*
G01*
X008995336Y-11931746D01*
G01*
X009173549Y-11877686D01*
G01*
X009337792Y-11789896D01*
G01*
X009481751Y-11671751D01*
G01*
X009599896Y-11527792D01*
G01*
X009687686Y-11363549D01*
G01*
X009741746Y-11185336D01*
G01*
X009745226Y-11150000D01*
G01*
X009544472Y-11150000D01*
G01*
X009502910Y-11287013D01*
G01*
X009433602Y-11416678D01*
G01*
X009340330Y-11530330D01*
G01*
X009226678Y-11623602D01*
G01*
X009097013Y-11692910D01*
G01*
X008960000Y-11734472D01*
G01*
X008960000Y-11935226D01*
G37*
D36*
G36*
X017240000Y-16950000D02*
G01*
X019140000Y-16950000D01*
G01*
X019140000Y-15050000D01*
G01*
X017240000Y-15050000D01*
G01*
X017240000Y-16950000D01*
G37*
D36*
G36*
X025810000Y-16950000D02*
G01*
X025995336Y-16931746D01*
G01*
X026173549Y-16877686D01*
G01*
X026337792Y-16789896D01*
G01*
X026481751Y-16671751D01*
G01*
X026599896Y-16527792D01*
G01*
X026687686Y-16363549D01*
G01*
X026741746Y-16185336D01*
G01*
X026760000Y-16000000D01*
G01*
X026741746Y-15814664D01*
G01*
X026687686Y-15636451D01*
G01*
X026599896Y-15472208D01*
G01*
X026481751Y-15328249D01*
G01*
X026337792Y-15210104D01*
G01*
X026173549Y-15122314D01*
G01*
X025995336Y-15068254D01*
G01*
X025810000Y-15050000D01*
G01*
X025624664Y-15068254D01*
G01*
X025446451Y-15122314D01*
G01*
X025282208Y-15210104D01*
G01*
X025138249Y-15328249D01*
G01*
X025020104Y-15472208D01*
G01*
X024932314Y-15636451D01*
G01*
X024878254Y-15814664D01*
G01*
X024860000Y-16000000D01*
G01*
X024878254Y-16185336D01*
G01*
X024932314Y-16363549D01*
G01*
X025020104Y-16527792D01*
G01*
X025138249Y-16671751D01*
G01*
X025282208Y-16789896D01*
G01*
X025446451Y-16877686D01*
G01*
X025624664Y-16931746D01*
G01*
X025810000Y-16950000D01*
G37*
D36*
G36*
X019794774Y-15850000D02*
G01*
X019995528Y-15850000D01*
G01*
X020037090Y-15712987D01*
G01*
X020106398Y-15583322D01*
G01*
X020199670Y-15469670D01*
G01*
X020313322Y-15376398D01*
G01*
X020442987Y-15307090D01*
G01*
X020580000Y-15265528D01*
G01*
X020580000Y-15064774D01*
G01*
X020544664Y-15068254D01*
G01*
X020366451Y-15122314D01*
G01*
X020202208Y-15210104D01*
G01*
X020058249Y-15328249D01*
G01*
X019940104Y-15472208D01*
G01*
X019852314Y-15636451D01*
G01*
X019798254Y-15814664D01*
G01*
X019794774Y-15850000D01*
G37*
D36*
G36*
X020580000Y-16935226D02*
G01*
X020580000Y-16734472D01*
G01*
X020442987Y-16692910D01*
G01*
X020313322Y-16623602D01*
G01*
X020199670Y-16530330D01*
G01*
X020106398Y-16416678D01*
G01*
X020037090Y-16287013D01*
G01*
X019995528Y-16150000D01*
G01*
X019794774Y-16150000D01*
G01*
X019798254Y-16185336D01*
G01*
X019852314Y-16363549D01*
G01*
X019940104Y-16527792D01*
G01*
X020058249Y-16671751D01*
G01*
X020202208Y-16789896D01*
G01*
X020366451Y-16877686D01*
G01*
X020544664Y-16931746D01*
G01*
X020580000Y-16935226D01*
G37*
D36*
G36*
X-23500000Y-18410000D02*
G01*
X-23314664Y-18391746D01*
G01*
X-23136451Y-18337686D01*
G01*
X-22972208Y-18249896D01*
G01*
X-22828249Y-18131751D01*
G01*
X-22710104Y-17987792D01*
G01*
X-22622314Y-17823549D01*
G01*
X-22568254Y-17645336D01*
G01*
X-22550000Y-17460000D01*
G01*
X-22568254Y-17274664D01*
G01*
X-22622314Y-17096451D01*
G01*
X-22710104Y-16932208D01*
G01*
X-22828249Y-16788249D01*
G01*
X-22972208Y-16670104D01*
G01*
X-23136451Y-16582314D01*
G01*
X-23314664Y-16528254D01*
G01*
X-23500000Y-16510000D01*
G01*
X-23685336Y-16528254D01*
G01*
X-23863549Y-16582314D01*
G01*
X-24027792Y-16670104D01*
G01*
X-24171751Y-16788249D01*
G01*
X-24289896Y-16932208D01*
G01*
X-24377686Y-17096451D01*
G01*
X-24431746Y-17274664D01*
G01*
X-24450000Y-17460000D01*
G01*
X-24431746Y-17645336D01*
G01*
X-24377686Y-17823549D01*
G01*
X-24289896Y-17987792D01*
G01*
X-24171751Y-18131751D01*
G01*
X-24027792Y-18249896D01*
G01*
X-23863549Y-18337686D01*
G01*
X-23685336Y-18391746D01*
G01*
X-23500000Y-18410000D01*
G37*
D36*
G36*
X-19000000Y-18410000D02*
G01*
X-18814664Y-18391746D01*
G01*
X-18636451Y-18337686D01*
G01*
X-18472208Y-18249896D01*
G01*
X-18328249Y-18131751D01*
G01*
X-18210104Y-17987792D01*
G01*
X-18122314Y-17823549D01*
G01*
X-18068254Y-17645336D01*
G01*
X-18050000Y-17460000D01*
G01*
X-18068254Y-17274664D01*
G01*
X-18122314Y-17096451D01*
G01*
X-18210104Y-16932208D01*
G01*
X-18328249Y-16788249D01*
G01*
X-18472208Y-16670104D01*
G01*
X-18636451Y-16582314D01*
G01*
X-18814664Y-16528254D01*
G01*
X-19000000Y-16510000D01*
G01*
X-19185336Y-16528254D01*
G01*
X-19363549Y-16582314D01*
G01*
X-19527792Y-16670104D01*
G01*
X-19671751Y-16788249D01*
G01*
X-19789896Y-16932208D01*
G01*
X-19877686Y-17096451D01*
G01*
X-19931746Y-17274664D01*
G01*
X-19950000Y-17460000D01*
G01*
X-19931746Y-17645336D01*
G01*
X-19877686Y-17823549D01*
G01*
X-19789896Y-17987792D01*
G01*
X-19671751Y-18131751D01*
G01*
X-19527792Y-18249896D01*
G01*
X-19363549Y-18337686D01*
G01*
X-19185336Y-18391746D01*
G01*
X-19000000Y-18410000D01*
G37*
D36*
G36*
X-14000000Y-18410000D02*
G01*
X-13814664Y-18391746D01*
G01*
X-13636451Y-18337686D01*
G01*
X-13472208Y-18249896D01*
G01*
X-13328249Y-18131751D01*
G01*
X-13210104Y-17987792D01*
G01*
X-13122314Y-17823549D01*
G01*
X-13068254Y-17645336D01*
G01*
X-13050000Y-17460000D01*
G01*
X-13068254Y-17274664D01*
G01*
X-13122314Y-17096451D01*
G01*
X-13210104Y-16932208D01*
G01*
X-13328249Y-16788249D01*
G01*
X-13472208Y-16670104D01*
G01*
X-13636451Y-16582314D01*
G01*
X-13814664Y-16528254D01*
G01*
X-14000000Y-16510000D01*
G01*
X-14185336Y-16528254D01*
G01*
X-14363549Y-16582314D01*
G01*
X-14527792Y-16670104D01*
G01*
X-14671751Y-16788249D01*
G01*
X-14789896Y-16932208D01*
G01*
X-14877686Y-17096451D01*
G01*
X-14931746Y-17274664D01*
G01*
X-14950000Y-17460000D01*
G01*
X-14931746Y-17645336D01*
G01*
X-14877686Y-17823549D01*
G01*
X-14789896Y-17987792D01*
G01*
X-14671751Y-18131751D01*
G01*
X-14527792Y-18249896D01*
G01*
X-14363549Y-18337686D01*
G01*
X-14185336Y-18391746D01*
G01*
X-14000000Y-18410000D01*
G37*
D36*
G36*
X-09000000Y-18410000D02*
G01*
X-08814664Y-18391746D01*
G01*
X-08636451Y-18337686D01*
G01*
X-08472208Y-18249896D01*
G01*
X-08328249Y-18131751D01*
G01*
X-08210104Y-17987792D01*
G01*
X-08122314Y-17823549D01*
G01*
X-08068254Y-17645336D01*
G01*
X-08050000Y-17460000D01*
G01*
X-08068254Y-17274664D01*
G01*
X-08122314Y-17096451D01*
G01*
X-08210104Y-16932208D01*
G01*
X-08328249Y-16788249D01*
G01*
X-08472208Y-16670104D01*
G01*
X-08636451Y-16582314D01*
G01*
X-08814664Y-16528254D01*
G01*
X-09000000Y-16510000D01*
G01*
X-09185336Y-16528254D01*
G01*
X-09363549Y-16582314D01*
G01*
X-09527792Y-16670104D01*
G01*
X-09671751Y-16788249D01*
G01*
X-09789896Y-16932208D01*
G01*
X-09877686Y-17096451D01*
G01*
X-09931746Y-17274664D01*
G01*
X-09950000Y-17460000D01*
G01*
X-09931746Y-17645336D01*
G01*
X-09877686Y-17823549D01*
G01*
X-09789896Y-17987792D01*
G01*
X-09671751Y-18131751D01*
G01*
X-09527792Y-18249896D01*
G01*
X-09363549Y-18337686D01*
G01*
X-09185336Y-18391746D01*
G01*
X-09000000Y-18410000D01*
G37*
D36*
G36*
X-23500000Y-20950000D02*
G01*
X-23314664Y-20931746D01*
G01*
X-23136451Y-20877686D01*
G01*
X-22972208Y-20789896D01*
G01*
X-22828249Y-20671751D01*
G01*
X-22710104Y-20527792D01*
G01*
X-22622314Y-20363549D01*
G01*
X-22568254Y-20185336D01*
G01*
X-22550000Y-20000000D01*
G01*
X-22568254Y-19814664D01*
G01*
X-22622314Y-19636451D01*
G01*
X-22710104Y-19472208D01*
G01*
X-22828249Y-19328249D01*
G01*
X-22972208Y-19210104D01*
G01*
X-23136451Y-19122314D01*
G01*
X-23314664Y-19068254D01*
G01*
X-23500000Y-19050000D01*
G01*
X-23685336Y-19068254D01*
G01*
X-23863549Y-19122314D01*
G01*
X-24027792Y-19210104D01*
G01*
X-24171751Y-19328249D01*
G01*
X-24289896Y-19472208D01*
G01*
X-24377686Y-19636451D01*
G01*
X-24431746Y-19814664D01*
G01*
X-24450000Y-20000000D01*
G01*
X-24431746Y-20185336D01*
G01*
X-24377686Y-20363549D01*
G01*
X-24289896Y-20527792D01*
G01*
X-24171751Y-20671751D01*
G01*
X-24027792Y-20789896D01*
G01*
X-23863549Y-20877686D01*
G01*
X-23685336Y-20931746D01*
G01*
X-23500000Y-20950000D01*
G37*
D36*
G36*
X-19000000Y-20950000D02*
G01*
X-18814664Y-20931746D01*
G01*
X-18636451Y-20877686D01*
G01*
X-18472208Y-20789896D01*
G01*
X-18328249Y-20671751D01*
G01*
X-18210104Y-20527792D01*
G01*
X-18122314Y-20363549D01*
G01*
X-18068254Y-20185336D01*
G01*
X-18050000Y-20000000D01*
G01*
X-18068254Y-19814664D01*
G01*
X-18122314Y-19636451D01*
G01*
X-18210104Y-19472208D01*
G01*
X-18328249Y-19328249D01*
G01*
X-18472208Y-19210104D01*
G01*
X-18636451Y-19122314D01*
G01*
X-18814664Y-19068254D01*
G01*
X-19000000Y-19050000D01*
G01*
X-19185336Y-19068254D01*
G01*
X-19363549Y-19122314D01*
G01*
X-19527792Y-19210104D01*
G01*
X-19671751Y-19328249D01*
G01*
X-19789896Y-19472208D01*
G01*
X-19877686Y-19636451D01*
G01*
X-19931746Y-19814664D01*
G01*
X-19950000Y-20000000D01*
G01*
X-19931746Y-20185336D01*
G01*
X-19877686Y-20363549D01*
G01*
X-19789896Y-20527792D01*
G01*
X-19671751Y-20671751D01*
G01*
X-19527792Y-20789896D01*
G01*
X-19363549Y-20877686D01*
G01*
X-19185336Y-20931746D01*
G01*
X-19000000Y-20950000D01*
G37*
D36*
G36*
X-14000000Y-20950000D02*
G01*
X-13814664Y-20931746D01*
G01*
X-13636451Y-20877686D01*
G01*
X-13472208Y-20789896D01*
G01*
X-13328249Y-20671751D01*
G01*
X-13210104Y-20527792D01*
G01*
X-13122314Y-20363549D01*
G01*
X-13068254Y-20185336D01*
G01*
X-13050000Y-20000000D01*
G01*
X-13068254Y-19814664D01*
G01*
X-13122314Y-19636451D01*
G01*
X-13210104Y-19472208D01*
G01*
X-13328249Y-19328249D01*
G01*
X-13472208Y-19210104D01*
G01*
X-13636451Y-19122314D01*
G01*
X-13814664Y-19068254D01*
G01*
X-14000000Y-19050000D01*
G01*
X-14185336Y-19068254D01*
G01*
X-14363549Y-19122314D01*
G01*
X-14527792Y-19210104D01*
G01*
X-14671751Y-19328249D01*
G01*
X-14789896Y-19472208D01*
G01*
X-14877686Y-19636451D01*
G01*
X-14931746Y-19814664D01*
G01*
X-14950000Y-20000000D01*
G01*
X-14931746Y-20185336D01*
G01*
X-14877686Y-20363549D01*
G01*
X-14789896Y-20527792D01*
G01*
X-14671751Y-20671751D01*
G01*
X-14527792Y-20789896D01*
G01*
X-14363549Y-20877686D01*
G01*
X-14185336Y-20931746D01*
G01*
X-14000000Y-20950000D01*
G37*
D36*
G36*
X-09000000Y-20950000D02*
G01*
X-08814664Y-20931746D01*
G01*
X-08636451Y-20877686D01*
G01*
X-08472208Y-20789896D01*
G01*
X-08328249Y-20671751D01*
G01*
X-08210104Y-20527792D01*
G01*
X-08122314Y-20363549D01*
G01*
X-08068254Y-20185336D01*
G01*
X-08050000Y-20000000D01*
G01*
X-08068254Y-19814664D01*
G01*
X-08122314Y-19636451D01*
G01*
X-08210104Y-19472208D01*
G01*
X-08328249Y-19328249D01*
G01*
X-08472208Y-19210104D01*
G01*
X-08636451Y-19122314D01*
G01*
X-08814664Y-19068254D01*
G01*
X-09000000Y-19050000D01*
G01*
X-09185336Y-19068254D01*
G01*
X-09363549Y-19122314D01*
G01*
X-09527792Y-19210104D01*
G01*
X-09671751Y-19328249D01*
G01*
X-09789896Y-19472208D01*
G01*
X-09877686Y-19636451D01*
G01*
X-09931746Y-19814664D01*
G01*
X-09950000Y-20000000D01*
G01*
X-09931746Y-20185336D01*
G01*
X-09877686Y-20363549D01*
G01*
X-09789896Y-20527792D01*
G01*
X-09671751Y-20671751D01*
G01*
X-09527792Y-20789896D01*
G01*
X-09363549Y-20877686D01*
G01*
X-09185336Y-20931746D01*
G01*
X-09000000Y-20950000D01*
G37*
D36*
G36*
X000620000Y-20850000D02*
G01*
X000820000Y-20850000D01*
G01*
X000820000Y-20250000D01*
G01*
X001420000Y-20250000D01*
G01*
X001420000Y-20050000D01*
G01*
X000620000Y-20050000D01*
G01*
X000620000Y-20850000D01*
G37*
D36*
G36*
X002320000Y-20850000D02*
G01*
X002520000Y-20850000D01*
G01*
X002520000Y-20050000D01*
G01*
X001720000Y-20050000D01*
G01*
X001720000Y-20250000D01*
G01*
X002320000Y-20250000D01*
G01*
X002320000Y-20850000D01*
G37*
D36*
G36*
X004110000Y-21950000D02*
G01*
X004295336Y-21931746D01*
G01*
X004473549Y-21877686D01*
G01*
X004637792Y-21789896D01*
G01*
X004781751Y-21671751D01*
G01*
X004899896Y-21527792D01*
G01*
X004987686Y-21363549D01*
G01*
X005041746Y-21185336D01*
G01*
X005060000Y-21000000D01*
G01*
X005041746Y-20814664D01*
G01*
X004987686Y-20636451D01*
G01*
X004899896Y-20472208D01*
G01*
X004781751Y-20328249D01*
G01*
X004637792Y-20210104D01*
G01*
X004473549Y-20122314D01*
G01*
X004295336Y-20068254D01*
G01*
X004110000Y-20050000D01*
G01*
X003924664Y-20068254D01*
G01*
X003746451Y-20122314D01*
G01*
X003582208Y-20210104D01*
G01*
X003438249Y-20328249D01*
G01*
X003320104Y-20472208D01*
G01*
X003232314Y-20636451D01*
G01*
X003178254Y-20814664D01*
G01*
X003160000Y-21000000D01*
G01*
X003178254Y-21185336D01*
G01*
X003232314Y-21363549D01*
G01*
X003320104Y-21527792D01*
G01*
X003438249Y-21671751D01*
G01*
X003582208Y-21789896D01*
G01*
X003746451Y-21877686D01*
G01*
X003924664Y-21931746D01*
G01*
X004110000Y-21950000D01*
G37*
D36*
G36*
X016810000Y-21950000D02*
G01*
X016995336Y-21931746D01*
G01*
X017173549Y-21877686D01*
G01*
X017337792Y-21789896D01*
G01*
X017481751Y-21671751D01*
G01*
X017599896Y-21527792D01*
G01*
X017687686Y-21363549D01*
G01*
X017741746Y-21185336D01*
G01*
X017760000Y-21000000D01*
G01*
X017741746Y-20814664D01*
G01*
X017687686Y-20636451D01*
G01*
X017599896Y-20472208D01*
G01*
X017481751Y-20328249D01*
G01*
X017337792Y-20210104D01*
G01*
X017173549Y-20122314D01*
G01*
X016995336Y-20068254D01*
G01*
X016810000Y-20050000D01*
G01*
X016624664Y-20068254D01*
G01*
X016446451Y-20122314D01*
G01*
X016282208Y-20210104D01*
G01*
X016138249Y-20328249D01*
G01*
X016020104Y-20472208D01*
G01*
X015932314Y-20636451D01*
G01*
X015878254Y-20814664D01*
G01*
X015860000Y-21000000D01*
G01*
X015878254Y-21185336D01*
G01*
X015932314Y-21363549D01*
G01*
X016020104Y-21527792D01*
G01*
X016138249Y-21671751D01*
G01*
X016282208Y-21789896D01*
G01*
X016446451Y-21877686D01*
G01*
X016624664Y-21931746D01*
G01*
X016810000Y-21950000D01*
G37*
D36*
G36*
X019350000Y-21950000D02*
G01*
X019535336Y-21931746D01*
G01*
X019713549Y-21877686D01*
G01*
X019877792Y-21789896D01*
G01*
X020021751Y-21671751D01*
G01*
X020139896Y-21527792D01*
G01*
X020227686Y-21363549D01*
G01*
X020281746Y-21185336D01*
G01*
X020300000Y-21000000D01*
G01*
X020281746Y-20814664D01*
G01*
X020227686Y-20636451D01*
G01*
X020139896Y-20472208D01*
G01*
X020021751Y-20328249D01*
G01*
X019877792Y-20210104D01*
G01*
X019713549Y-20122314D01*
G01*
X019535336Y-20068254D01*
G01*
X019350000Y-20050000D01*
G01*
X019164664Y-20068254D01*
G01*
X018986451Y-20122314D01*
G01*
X018822208Y-20210104D01*
G01*
X018678249Y-20328249D01*
G01*
X018560104Y-20472208D01*
G01*
X018472314Y-20636451D01*
G01*
X018418254Y-20814664D01*
G01*
X018400000Y-21000000D01*
G01*
X018418254Y-21185336D01*
G01*
X018472314Y-21363549D01*
G01*
X018560104Y-21527792D01*
G01*
X018678249Y-21671751D01*
G01*
X018822208Y-21789896D01*
G01*
X018986451Y-21877686D01*
G01*
X019164664Y-21931746D01*
G01*
X019350000Y-21950000D01*
G37*
D36*
G36*
X-29500000Y-23550000D02*
G01*
X-29197610Y-23520217D01*
G01*
X-28906841Y-23432013D01*
G01*
X-28638866Y-23288778D01*
G01*
X-28403984Y-23096016D01*
G01*
X-28211222Y-22861134D01*
G01*
X-28067987Y-22593159D01*
G01*
X-27979783Y-22302390D01*
G01*
X-27950000Y-22000000D01*
G01*
X-27979783Y-21697610D01*
G01*
X-28067987Y-21406841D01*
G01*
X-28211222Y-21138866D01*
G01*
X-28403984Y-20903984D01*
G01*
X-28638866Y-20711222D01*
G01*
X-28906841Y-20567987D01*
G01*
X-29197610Y-20479783D01*
G01*
X-29500000Y-20450000D01*
G01*
X-29802390Y-20479783D01*
G01*
X-30093159Y-20567987D01*
G01*
X-30361134Y-20711222D01*
G01*
X-30596016Y-20903984D01*
G01*
X-30788778Y-21138866D01*
G01*
X-30932013Y-21406841D01*
G01*
X-31020217Y-21697610D01*
G01*
X-31050000Y-22000000D01*
G01*
X-31020217Y-22302390D01*
G01*
X-30932013Y-22593159D01*
G01*
X-30788778Y-22861134D01*
G01*
X-30596016Y-23096016D01*
G01*
X-30361134Y-23288778D01*
G01*
X-30093159Y-23432013D01*
G01*
X-29802390Y-23520217D01*
G01*
X-29500000Y-23550000D01*
G37*
D36*
G36*
X029000000Y-23550000D02*
G01*
X029302390Y-23520217D01*
G01*
X029593159Y-23432013D01*
G01*
X029861134Y-23288778D01*
G01*
X030096016Y-23096016D01*
G01*
X030288778Y-22861134D01*
G01*
X030432013Y-22593159D01*
G01*
X030520217Y-22302390D01*
G01*
X030550000Y-22000000D01*
G01*
X030520217Y-21697610D01*
G01*
X030432013Y-21406841D01*
G01*
X030288778Y-21138866D01*
G01*
X030096016Y-20903984D01*
G01*
X029861134Y-20711222D01*
G01*
X029593159Y-20567987D01*
G01*
X029302390Y-20479783D01*
G01*
X029000000Y-20450000D01*
G01*
X028697610Y-20479783D01*
G01*
X028406841Y-20567987D01*
G01*
X028138866Y-20711222D01*
G01*
X027903984Y-20903984D01*
G01*
X027711222Y-21138866D01*
G01*
X027567987Y-21406841D01*
G01*
X027479783Y-21697610D01*
G01*
X027450000Y-22000000D01*
G01*
X027479783Y-22302390D01*
G01*
X027567987Y-22593159D01*
G01*
X027711222Y-22861134D01*
G01*
X027903984Y-23096016D01*
G01*
X028138866Y-23288778D01*
G01*
X028406841Y-23432013D01*
G01*
X028697610Y-23520217D01*
G01*
X029000000Y-23550000D01*
G37*
D36*
G36*
X000620000Y-21950000D02*
G01*
X001420000Y-21950000D01*
G01*
X001420000Y-21750000D01*
G01*
X000820000Y-21750000D01*
G01*
X000820000Y-21150000D01*
G01*
X000620000Y-21150000D01*
G01*
X000620000Y-21950000D01*
G37*
D36*
G36*
X001720000Y-21950000D02*
G01*
X002520000Y-21950000D01*
G01*
X002520000Y-21150000D01*
G01*
X002320000Y-21150000D01*
G01*
X002320000Y-21750000D01*
G01*
X001720000Y-21750000D01*
G01*
X001720000Y-21950000D01*
G37*
D36*
G36*
X-24450000Y-22390000D02*
G01*
X-24250000Y-22390000D01*
G01*
X-24250000Y-21790000D01*
G01*
X-23650000Y-21790000D01*
G01*
X-23650000Y-21590000D01*
G01*
X-24450000Y-21590000D01*
G01*
X-24450000Y-22390000D01*
G37*
D36*
G36*
X-22750000Y-22390000D02*
G01*
X-22550000Y-22390000D01*
G01*
X-22550000Y-21590000D01*
G01*
X-23350000Y-21590000D01*
G01*
X-23350000Y-21790000D01*
G01*
X-22750000Y-21790000D01*
G01*
X-22750000Y-22390000D01*
G37*
D36*
G36*
X-19950000Y-22390000D02*
G01*
X-19750000Y-22390000D01*
G01*
X-19750000Y-21790000D01*
G01*
X-19150000Y-21790000D01*
G01*
X-19150000Y-21590000D01*
G01*
X-19950000Y-21590000D01*
G01*
X-19950000Y-22390000D01*
G37*
D36*
G36*
X-18250000Y-22390000D02*
G01*
X-18050000Y-22390000D01*
G01*
X-18050000Y-21590000D01*
G01*
X-18850000Y-21590000D01*
G01*
X-18850000Y-21790000D01*
G01*
X-18250000Y-21790000D01*
G01*
X-18250000Y-22390000D01*
G37*
D36*
G36*
X-14950000Y-22390000D02*
G01*
X-14750000Y-22390000D01*
G01*
X-14750000Y-21790000D01*
G01*
X-14150000Y-21790000D01*
G01*
X-14150000Y-21590000D01*
G01*
X-14950000Y-21590000D01*
G01*
X-14950000Y-22390000D01*
G37*
D36*
G36*
X-13250000Y-22390000D02*
G01*
X-13050000Y-22390000D01*
G01*
X-13050000Y-21590000D01*
G01*
X-13850000Y-21590000D01*
G01*
X-13850000Y-21790000D01*
G01*
X-13250000Y-21790000D01*
G01*
X-13250000Y-22390000D01*
G37*
D36*
G36*
X-09950000Y-22390000D02*
G01*
X-09750000Y-22390000D01*
G01*
X-09750000Y-21790000D01*
G01*
X-09150000Y-21790000D01*
G01*
X-09150000Y-21590000D01*
G01*
X-09950000Y-21590000D01*
G01*
X-09950000Y-22390000D01*
G37*
D36*
G36*
X-08250000Y-22390000D02*
G01*
X-08050000Y-22390000D01*
G01*
X-08050000Y-21590000D01*
G01*
X-08850000Y-21590000D01*
G01*
X-08850000Y-21790000D01*
G01*
X-08250000Y-21790000D01*
G01*
X-08250000Y-22390000D01*
G37*
D36*
G36*
X-24450000Y-23490000D02*
G01*
X-23650000Y-23490000D01*
G01*
X-23650000Y-23290000D01*
G01*
X-24250000Y-23290000D01*
G01*
X-24250000Y-22690000D01*
G01*
X-24450000Y-22690000D01*
G01*
X-24450000Y-23490000D01*
G37*
D36*
G36*
X-23350000Y-23490000D02*
G01*
X-22550000Y-23490000D01*
G01*
X-22550000Y-22690000D01*
G01*
X-22750000Y-22690000D01*
G01*
X-22750000Y-23290000D01*
G01*
X-23350000Y-23290000D01*
G01*
X-23350000Y-23490000D01*
G37*
D36*
G36*
X-19950000Y-23490000D02*
G01*
X-19150000Y-23490000D01*
G01*
X-19150000Y-23290000D01*
G01*
X-19750000Y-23290000D01*
G01*
X-19750000Y-22690000D01*
G01*
X-19950000Y-22690000D01*
G01*
X-19950000Y-23490000D01*
G37*
D36*
G36*
X-18850000Y-23490000D02*
G01*
X-18050000Y-23490000D01*
G01*
X-18050000Y-22690000D01*
G01*
X-18250000Y-22690000D01*
G01*
X-18250000Y-23290000D01*
G01*
X-18850000Y-23290000D01*
G01*
X-18850000Y-23490000D01*
G37*
D36*
G36*
X-14950000Y-23490000D02*
G01*
X-14150000Y-23490000D01*
G01*
X-14150000Y-23290000D01*
G01*
X-14750000Y-23290000D01*
G01*
X-14750000Y-22690000D01*
G01*
X-14950000Y-22690000D01*
G01*
X-14950000Y-23490000D01*
G37*
D36*
G36*
X-13850000Y-23490000D02*
G01*
X-13050000Y-23490000D01*
G01*
X-13050000Y-22690000D01*
G01*
X-13250000Y-22690000D01*
G01*
X-13250000Y-23290000D01*
G01*
X-13850000Y-23290000D01*
G01*
X-13850000Y-23490000D01*
G37*
D36*
G36*
X-09950000Y-23490000D02*
G01*
X-09150000Y-23490000D01*
G01*
X-09150000Y-23290000D01*
G01*
X-09750000Y-23290000D01*
G01*
X-09750000Y-22690000D01*
G01*
X-09950000Y-22690000D01*
G01*
X-09950000Y-23490000D01*
G37*
D36*
G36*
X-08850000Y-23490000D02*
G01*
X-08050000Y-23490000D01*
G01*
X-08050000Y-22690000D01*
G01*
X-08250000Y-22690000D01*
G01*
X-08250000Y-23290000D01*
G01*
X-08850000Y-23290000D01*
G01*
X-08850000Y-23490000D01*
G37*
%LPD*%
D36*
G36*
X022742208Y-15210104D02*
G01*
X022906451Y-15122314D01*
G01*
X022995000Y-15095453D01*
G01*
X022995000Y-11188844D01*
G01*
X023000284Y-11135194D01*
G01*
X023015933Y-11083606D01*
G01*
X023041346Y-11036062D01*
G01*
X023075546Y-10994390D01*
G01*
X023094553Y-10978791D01*
G01*
X023093711Y-10977782D01*
G01*
X023797296Y-10390113D01*
G01*
X023804038Y-10270575D01*
G01*
X023805000Y-10075254D01*
G01*
X023805000Y-09771000D01*
G01*
X023805000Y-09618475D01*
G01*
X023712860Y-09375931D01*
G01*
X023510420Y-09173491D01*
G01*
X023458259Y-09121330D01*
G01*
X023425404Y-09124566D01*
G01*
X023342491Y-09116400D01*
G01*
X023262764Y-09092215D01*
G01*
X023189287Y-09052941D01*
G01*
X023124884Y-09000087D01*
G01*
X023072029Y-08935684D01*
G01*
X023032755Y-08862207D01*
G01*
X023008570Y-08782480D01*
G01*
X023000404Y-08699566D01*
G01*
X023008570Y-08616653D01*
G01*
X023032755Y-08536926D01*
G01*
X023072029Y-08463449D01*
G01*
X023124884Y-08399046D01*
G01*
X023189287Y-08346192D01*
G01*
X023262764Y-08306918D01*
G01*
X023342491Y-08282733D01*
G01*
X023425404Y-08274566D01*
G01*
X023508317Y-08282733D01*
G01*
X023588044Y-08306918D01*
G01*
X023661521Y-08346192D01*
G01*
X023725924Y-08399046D01*
G01*
X023778779Y-08463449D01*
G01*
X023818053Y-08536926D01*
G01*
X023842238Y-08616653D01*
G01*
X023850404Y-08699566D01*
G01*
X023849964Y-08704036D01*
G01*
X023987099Y-08704036D01*
G01*
X023955351Y-08644640D01*
G01*
X023931166Y-08564913D01*
G01*
X023923000Y-08482000D01*
G01*
X023931166Y-08399087D01*
G01*
X023955351Y-08319360D01*
G01*
X023994625Y-08245883D01*
G01*
X024047480Y-08181480D01*
G01*
X024073000Y-08160536D01*
G01*
X024073000Y-03485676D01*
G01*
X024078284Y-03432026D01*
G01*
X024093933Y-03380438D01*
G01*
X024117443Y-03336455D01*
G01*
X024091351Y-03287640D01*
G01*
X024067166Y-03207913D01*
G01*
X024059000Y-03125000D01*
G01*
X024067166Y-03042087D01*
G01*
X024091351Y-02962360D01*
G01*
X024130625Y-02888883D01*
G01*
X024183480Y-02824480D01*
G01*
X024247883Y-02771625D01*
G01*
X024321360Y-02732351D01*
G01*
X024356200Y-02721782D01*
G01*
X024041500Y-02407083D01*
G01*
X018645726Y-02407083D01*
G01*
X018624782Y-02432603D01*
G01*
X018560379Y-02485457D01*
G01*
X018486902Y-02524731D01*
G01*
X018407175Y-02548916D01*
G01*
X018324262Y-02557083D01*
G01*
X018241348Y-02548916D01*
G01*
X018161621Y-02524731D01*
G01*
X018088144Y-02485457D01*
G01*
X018035461Y-02442221D01*
G01*
X014039302Y-02442221D01*
G01*
X013985652Y-02436937D01*
G01*
X013964001Y-02430369D01*
G01*
X022521060Y-10987428D01*
G01*
X022555259Y-11029101D01*
G01*
X022580672Y-11076644D01*
G01*
X022596321Y-11128232D01*
G01*
X022601605Y-11181882D01*
G01*
X022601605Y-15325495D01*
G01*
X022742208Y-15210104D01*
G37*
D36*
G36*
X007002478Y-05499235D02*
G01*
X007007762Y-05445585D01*
G01*
X007023411Y-05393997D01*
G01*
X007048824Y-05346453D01*
G01*
X007083024Y-05304780D01*
G01*
X007208452Y-05179353D01*
G01*
X007208452Y-03037900D01*
G01*
X007095276Y-02924724D01*
G01*
X007061076Y-02883052D01*
G01*
X007035663Y-02835508D01*
G01*
X007020014Y-02783920D01*
G01*
X007014730Y-02730270D01*
G01*
X007020014Y-02676620D01*
G01*
X007035663Y-02625032D01*
G01*
X007061076Y-02577488D01*
G01*
X007073631Y-02562190D01*
G01*
X007080340Y-02494069D01*
G01*
X007104525Y-02414342D01*
G01*
X007143799Y-02340865D01*
G01*
X007196653Y-02276462D01*
G01*
X007261056Y-02223608D01*
G01*
X007334533Y-02184334D01*
G01*
X007414260Y-02160149D01*
G01*
X007497174Y-02151983D01*
G01*
X007580087Y-02160149D01*
G01*
X007659814Y-02184334D01*
G01*
X007733291Y-02223608D01*
G01*
X007797694Y-02276462D01*
G01*
X007850548Y-02340865D01*
G01*
X007889822Y-02414342D01*
G01*
X007914007Y-02494069D01*
G01*
X007922174Y-02576983D01*
G01*
X007914007Y-02659896D01*
G01*
X007889822Y-02739623D01*
G01*
X007850548Y-02813100D01*
G01*
X007797694Y-02877503D01*
G01*
X007757150Y-02910776D01*
G01*
X007758452Y-02923991D01*
G01*
X007758452Y-05293261D01*
G01*
X007753168Y-05346911D01*
G01*
X007737519Y-05398499D01*
G01*
X007712106Y-05446043D01*
G01*
X007677906Y-05487716D01*
G01*
X007552478Y-05613144D01*
G01*
X007552478Y-06607858D01*
G01*
X007583360Y-06591351D01*
G01*
X007663087Y-06567166D01*
G01*
X007746000Y-06559000D01*
G01*
X007778856Y-06562236D01*
G01*
X008796785Y-05544306D01*
G01*
X008796785Y-03270463D01*
G01*
X008777445Y-03254591D01*
G01*
X008764040Y-03238257D01*
G01*
X008748262Y-03290270D01*
G01*
X008708988Y-03363747D01*
G01*
X008656134Y-03428150D01*
G01*
X008591731Y-03481004D01*
G01*
X008518254Y-03520278D01*
G01*
X008438527Y-03544463D01*
G01*
X008355613Y-03552629D01*
G01*
X008272700Y-03544463D01*
G01*
X008192973Y-03520278D01*
G01*
X008119496Y-03481004D01*
G01*
X008055093Y-03428150D01*
G01*
X008002239Y-03363747D01*
G01*
X007962965Y-03290270D01*
G01*
X007938780Y-03210543D01*
G01*
X007930613Y-03127629D01*
G01*
X007938780Y-03044716D01*
G01*
X007962965Y-02964989D01*
G01*
X008002239Y-02891512D01*
G01*
X008055093Y-02827109D01*
G01*
X008080613Y-02806165D01*
G01*
X008080613Y-02388181D01*
G01*
X007000546Y-01308113D01*
G01*
X006966346Y-01266441D01*
G01*
X006940933Y-01218897D01*
G01*
X006925284Y-01167309D01*
G01*
X006920000Y-01113659D01*
G01*
X006920000Y000587943D01*
G01*
X006194828Y001313115D01*
G01*
X006166375Y001259883D01*
G01*
X006113520Y001195480D01*
G01*
X006049117Y001142625D01*
G01*
X005991470Y001111812D01*
G01*
X005991470Y-05928738D01*
G01*
X007002478Y-06939746D01*
G01*
X007002478Y-05499235D01*
G37*
D36*
G36*
X004456218Y008680509D02*
G01*
X004509072Y008744912D01*
G01*
X004573475Y008797767D01*
G01*
X004646952Y008837041D01*
G01*
X004726679Y008861226D01*
G01*
X004809592Y008869392D01*
G01*
X004892506Y008861226D01*
G01*
X004972233Y008837041D01*
G01*
X005045710Y008797767D01*
G01*
X005074218Y008774371D01*
G01*
X005095955Y008815039D01*
G01*
X005130155Y008856711D01*
G01*
X006413825Y010140381D01*
G01*
X006455497Y010174581D01*
G01*
X006503041Y010199993D01*
G01*
X006554629Y010215642D01*
G01*
X006605980Y010220700D01*
G01*
X007683176Y011297896D01*
G01*
X007683176Y011933399D01*
G01*
X007527261Y012089314D01*
G01*
X007501375Y012040883D01*
G01*
X007448520Y011976480D01*
G01*
X007384117Y011923625D01*
G01*
X007310640Y011884351D01*
G01*
X007230913Y011860166D01*
G01*
X007148000Y011852000D01*
G01*
X007065087Y011860166D01*
G01*
X007021103Y011873509D01*
G01*
X004463943Y009316349D01*
G01*
X004470319Y009251607D01*
G01*
X004462153Y009168694D01*
G01*
X004437968Y009088967D01*
G01*
X004398694Y009015490D01*
G01*
X004345840Y008951087D01*
G01*
X004281437Y008898233D01*
G01*
X004242260Y008877293D01*
G01*
X004450236Y008669317D01*
G01*
X004456218Y008680509D01*
G37*
D36*
G36*
X003962406Y009668441D02*
G01*
X004045319Y009676607D01*
G01*
X004046289Y009676511D01*
G01*
X006731808Y012362030D01*
G01*
X006755351Y012439640D01*
G01*
X006794625Y012513117D01*
G01*
X006847480Y012577520D01*
G01*
X006911883Y012630375D01*
G01*
X006960314Y012656261D01*
G01*
X006721021Y012895554D01*
G01*
X006682117Y012863625D01*
G01*
X006608640Y012824351D01*
G01*
X006528913Y012800166D01*
G01*
X006446000Y012792000D01*
G01*
X006363087Y012800166D01*
G01*
X006283360Y012824351D01*
G01*
X006209883Y012863625D01*
G01*
X006145480Y012916480D01*
G01*
X006092625Y012980883D01*
G01*
X006053351Y013054360D01*
G01*
X006029166Y013134087D01*
G01*
X006021000Y013217000D01*
G01*
X006029166Y013299913D01*
G01*
X006053351Y013379640D01*
G01*
X006086192Y013441083D01*
G01*
X005715038Y013421840D01*
G01*
X005680124Y013379298D01*
G01*
X005615721Y013326443D01*
G01*
X005542244Y013287169D01*
G01*
X005462517Y013262984D01*
G01*
X005379604Y013254818D01*
G01*
X005296691Y013262984D01*
G01*
X005216964Y013287169D01*
G01*
X005143487Y013326443D01*
G01*
X005091279Y013369289D01*
G01*
X005103969Y011845231D01*
G01*
X005103754Y011845229D01*
G01*
X005103979Y011842941D01*
G01*
X005098695Y011789291D01*
G01*
X005083046Y011737703D01*
G01*
X005057633Y011690159D01*
G01*
X005023433Y011648487D01*
G01*
X003901738Y010526792D01*
G01*
X003901738Y009650038D01*
G01*
X003962406Y009668441D01*
G37*
D20*
X011230000Y021000000D03*
D21*
X013770000Y021000000D03*
D20*
X012730000Y-07000000D03*
D21*
X015270000Y-07000000D03*
D20*
X001190000Y-11000000D03*
D21*
X003730000Y-11000000D03*
D21*
X006270000Y-11000000D03*
D21*
X008810000Y-11000000D03*
%ADD37C,1.199998*%
D37*
X016674888Y022474130D03*
X016674888Y022474130D02*
X016674888Y021874131D01*
X016674888Y021874131D03*
D37*
X016674888Y018394306D03*
X016674888Y018394306D02*
X016674888Y017594308D01*
X016674888Y017594308D03*
D37*
X025325112Y018394306D03*
X025325112Y018394306D02*
X025325112Y017594308D01*
X025325112Y017594308D03*
D37*
X025325112Y022474130D03*
X025325112Y022474130D02*
X025325112Y021874131D01*
X025325112Y021874131D03*
D20*
X-12270000Y020000000D03*
D21*
X-09730000Y020000000D03*
D20*
X-23750000Y020000000D03*
D21*
X-20250000Y020000000D03*
D20*
X-28000000Y006250000D03*
D21*
X-28000000Y009750000D03*
D20*
X-28000000Y-05750000D03*
D21*
X-28000000Y-02250000D03*
D20*
X-10810000Y007000000D03*
D21*
X-08270000Y007000000D03*
D21*
X-05730000Y007000000D03*
D21*
X-03190000Y007000000D03*
D20*
X-10810000Y000000000D03*
D21*
X-08270000Y000000000D03*
D21*
X-05730000Y000000000D03*
D21*
X-03190000Y000000000D03*
D20*
X018190000Y-16000000D03*
D21*
X020730000Y-16000000D03*
D21*
X023270000Y-16000000D03*
D21*
X025810000Y-16000000D03*
D20*
X-23500000Y-22540000D03*
D21*
X-23500000Y-20000000D03*
D21*
X-23500000Y-17460000D03*
D20*
X-19000000Y-22540000D03*
D21*
X-19000000Y-20000000D03*
D21*
X-19000000Y-17460000D03*
D20*
X-14000000Y-22540000D03*
D21*
X-14000000Y-20000000D03*
D21*
X-14000000Y-17460000D03*
D20*
X-09000000Y-22540000D03*
D21*
X-09000000Y-20000000D03*
D21*
X-09000000Y-17460000D03*
D20*
X001570000Y-21000000D03*
D21*
X004110000Y-21000000D03*
D21*
X006650000Y-21000000D03*
D21*
X009190000Y-21000000D03*
D21*
X011730000Y-21000000D03*
D21*
X014270000Y-21000000D03*
D21*
X016810000Y-21000000D03*
D21*
X019350000Y-21000000D03*
D21*
X021890000Y-21000000D03*
D21*
X024430000Y-21000000D03*
D11*
X-25000000Y012000000D03*
D11*
X-25000000Y000000000D03*
D11*
X-18000000Y006000000D03*
D11*
X-18000000Y-06000000D03*
D11*
X-17000000Y018000000D03*
D11*
X-03000000Y010000000D03*
D11*
X016000000Y017000000D03*
D11*
X017000000Y-09000000D03*
D11*
X024000000Y-12000000D03*
D11*
X001000000Y-09000000D03*
D11*
X000000000Y018000000D03*
D11*
X027000000Y003000000D03*
D33*
X006400000Y003400000D03*
D33*
X006400000Y004600000D03*
D33*
X007600000Y003400000D03*
D33*
X007600000Y004600000D03*
D33*
X-21400000Y008000000D03*
D33*
X-20600000Y008000000D03*
D33*
X-21400000Y-04000000D03*
D33*
X-20600000Y-04000000D03*
D10*
X-05730000Y007000000D02*
X-08130000Y004600000D01*
D10*
X-08130000Y004600000D02*
X-12200000Y004600000D01*
D11*
X-25348000Y-05365000D02*
X-25914750Y-05365000D01*
D11*
X-25914750Y-05365000D02*
X-26481500Y-05365000D01*
D11*
X-26481500Y-05365000D02*
X-27048250Y-05365000D01*
D11*
X-27048250Y-05365000D02*
X-27615000Y-05365000D01*
D11*
X-27615000Y-05365000D02*
X-28000000Y-05750000D01*
D11*
X-22877943Y008229463D02*
X-23326754Y007833570D01*
D11*
X-23326754Y007833570D02*
X-24910325Y006250000D01*
D11*
X-24910325Y006250000D02*
X-28000000Y006250000D01*
D12*
X-25199000Y008863000D02*
X-25199000Y008828000D01*
D12*
X-25199000Y008828000D02*
X-25824000Y008203000D01*
D10*
X017000000Y010800000D02*
X017000000Y010925177D01*
D10*
X017000000Y010925177D02*
X015129798Y012795379D01*
D10*
X015129798Y012795379D02*
X015129798Y012887628D01*
D10*
X015129798Y012887628D02*
X009061562Y012887628D01*
D10*
X009061562Y012887628D02*
X008757969Y013191221D01*
D10*
X008757969Y013191221D02*
X008209692Y013739499D01*
D10*
X008209692Y013739499D02*
X008211262Y013799306D01*
D10*
X007142862Y015363025D02*
X007129878Y015350041D01*
D10*
X007129878Y015350041D02*
X007032822Y015350041D01*
D10*
X007032822Y015350041D02*
X006958491Y015275710D01*
D10*
X006958491Y015275710D02*
X006044403Y015295849D01*
D10*
X006044403Y015295849D02*
X003586947Y012833869D01*
D10*
X003586947Y012833869D02*
X-01415000Y012816000D01*
D10*
X019340000Y014020000D02*
X019382865Y014062865D01*
D10*
X019382865Y014062865D02*
X020947000Y015627000D01*
D10*
X020947000Y015627000D02*
X021733000Y015627000D01*
D10*
X019340000Y014020000D02*
X019325447Y014005447D01*
D10*
X019325447Y014005447D02*
X016118553Y014005447D01*
D10*
X016118553Y014005447D02*
X015586000Y014538000D01*
D10*
X018840000Y015871000D02*
X016840466Y015871000D01*
D10*
X016840466Y015871000D02*
X016636000Y015871000D01*
D10*
X016636000Y015871000D02*
X016626000Y015861000D01*
D10*
X024400000Y020400000D02*
X025540420Y019259580D01*
D10*
X025540420Y019259580D02*
X027175183Y019259580D01*
D10*
X027175183Y019259580D02*
X028163009Y018271754D01*
D10*
X028163009Y018271754D02*
X028163009Y017821954D01*
D10*
X028163009Y017821954D02*
X028163009Y017763991D01*
D10*
X028163009Y017763991D02*
X028196000Y017731000D01*
D10*
X022320000Y016341000D02*
X022260875Y016400125D01*
D10*
X022260875Y016400125D02*
X022190066Y016400125D01*
D10*
X022190066Y016400125D02*
X021016166Y016400125D01*
D10*
X021016166Y016400125D02*
X019019614Y014403573D01*
D10*
X019019614Y014403573D02*
X017359427Y014403573D01*
D10*
X017359427Y014403573D02*
X015566000Y016197000D01*
D10*
X022634144Y013209061D02*
X022644888Y013198317D01*
D10*
X022644888Y013198317D02*
X022663113Y013198317D01*
D10*
X022663113Y013198317D02*
X023956430Y011905000D01*
D10*
X023956430Y011905000D02*
X025876000Y011905000D01*
D10*
X017970000Y014932000D02*
X017973594Y014935594D01*
D10*
X017973594Y014935594D02*
X018189984Y015151984D01*
D10*
X018189984Y015151984D02*
X018879812Y015151984D01*
D10*
X018879812Y015151984D02*
X021834786Y018106959D01*
D10*
X021834786Y018106959D02*
X021834786Y018426497D01*
D10*
X023400000Y019200000D02*
X023400000Y013947955D01*
D10*
X023400000Y013947955D02*
X022666299Y013214253D01*
D10*
X022666299Y013214253D02*
X022639337Y013214253D01*
D10*
X022639337Y013214253D02*
X022634144Y013209061D01*
D10*
X009601412Y001543310D02*
X022326605Y-11181882D01*
D10*
X022326605Y-11181882D02*
X022326605Y-18762648D01*
D10*
X022326605Y-18762648D02*
X022326605Y-18896605D01*
D10*
X022326605Y-18896605D02*
X024430000Y-21000000D01*
D10*
X011193000Y005473000D02*
X008869727Y003174727D01*
D10*
X008869727Y003174727D02*
X008869727Y001682273D01*
D10*
X008869727Y001682273D02*
X012185876Y-01633876D01*
D10*
X012185876Y-01633876D02*
X012243672Y-01633876D01*
D10*
X012243672Y-01633876D02*
X021890000Y-11280204D01*
D10*
X021890000Y-11280204D02*
X021890000Y-21000000D01*
D10*
X015625975Y003653322D02*
X015625975Y003476025D01*
D10*
X015625975Y003476025D02*
X017795721Y001306279D01*
D10*
X017795721Y001306279D02*
X017896000Y001206000D01*
D10*
X018984032Y-00849361D02*
X015014639Y-00849361D01*
D10*
X015014639Y-00849361D02*
X014822626Y-01041374D01*
D10*
X014822626Y-01041374D02*
X014814000Y-01050000D01*
D10*
X011752562Y003428725D02*
X014611133Y003428725D01*
D10*
X014611133Y003428725D02*
X015946041Y004763633D01*
D10*
X015946041Y004763633D02*
X016269911Y004763633D01*
D10*
X016269911Y004763633D02*
X019752143Y001281401D01*
D10*
X019752143Y001281401D02*
X019752143Y001276857D01*
D10*
X019752143Y001276857D02*
X019817000Y001212000D01*
D10*
X024348000Y-08482000D02*
X024348000Y-03485676D01*
D10*
X024348000Y-03485676D02*
X024497774Y-03335902D01*
D10*
X024497774Y-03335902D02*
X024497774Y-03138774D01*
D10*
X024497774Y-03138774D02*
X024484000Y-03125000D01*
D10*
X009398822Y002601181D02*
X014277739Y002601181D01*
D10*
X014277739Y002601181D02*
X016837304Y000041616D01*
D10*
X016837304Y000041616D02*
X019883798Y000041616D01*
D10*
X019883798Y000041616D02*
X021315483Y-01390069D01*
D10*
X021315483Y-01390069D02*
X021391931Y-01390069D01*
D10*
X021391931Y-01390069D02*
X021430000Y-01352000D01*
D10*
X023425404Y-08699566D02*
X023402117Y-08676280D01*
D10*
X023402117Y-08676280D02*
X023704874Y-08979036D01*
D10*
X023704874Y-08979036D02*
X024916775Y-08979036D01*
D10*
X024916775Y-08979036D02*
X024916775Y-04899067D01*
D10*
X024916775Y-04899067D02*
X025919584Y-03896258D01*
D10*
X025919584Y-03896258D02*
X024155408Y-02132083D01*
D10*
X024155408Y-02132083D02*
X018324262Y-02132083D01*
D10*
X023425404Y-08699566D02*
X023949000Y-09223162D01*
D10*
X023949000Y-09223162D02*
X024080000Y-09568000D01*
D10*
X024080000Y-09568000D02*
X024080000Y-09771000D01*
D10*
X024080000Y-09771000D02*
X024080000Y-10076000D01*
D10*
X024080000Y-10076000D02*
X024079000Y-10279000D01*
D10*
X024079000Y-10279000D02*
X024065142Y-10524702D01*
D10*
X024065142Y-10524702D02*
X023270000Y-11188844D01*
D10*
X023270000Y-11188844D02*
X023270000Y-16000000D01*
D10*
X009729216Y002142865D02*
X014039302Y-02167221D01*
D10*
X014039302Y-02167221D02*
X018288292Y-02167221D01*
D10*
X018288292Y-02167221D02*
X018289123Y-02167221D01*
D10*
X018289123Y-02167221D02*
X018324262Y-02132083D01*
D10*
X012705000Y000840000D02*
X012983746Y000840000D01*
D10*
X012983746Y000840000D02*
X013491061Y000332685D01*
D10*
X013491061Y000332685D02*
X013491061Y000330939D01*
D10*
X013491061Y000330939D02*
X013528000Y000294000D01*
D10*
X013419000Y-04198000D02*
X014270000Y-05049000D01*
D10*
X014270000Y-05049000D02*
X014270000Y-21000000D01*
D10*
X009958000Y-00797000D02*
X010015035Y-00854035D01*
D10*
X010015035Y-00854035D02*
X010015035Y-00875911D01*
D10*
X010015035Y-00875911D02*
X011313000Y-02173877D01*
D10*
X011313000Y-02173877D02*
X011313000Y-09591000D01*
D10*
X011455226Y-14620241D02*
X011574497Y-14739513D01*
D10*
X011574497Y-14739513D02*
X011574497Y-14814471D01*
D10*
X011574497Y-14814471D02*
X011730000Y-14969974D01*
D10*
X011730000Y-14969974D02*
X011730000Y-21000000D01*
D10*
X009434000Y-01105000D02*
X009533135Y-01204135D01*
D10*
X009533135Y-01204135D02*
X009533135Y-01235117D01*
D10*
X009533135Y-01235117D02*
X010550000Y-02251982D01*
D10*
X010550000Y-02251982D02*
X010550000Y-02313628D01*
D10*
X010550000Y-02313628D02*
X010550000Y-19640000D01*
D10*
X010550000Y-19640000D02*
X009190000Y-21000000D01*
D10*
X005813000Y001496000D02*
X005716470Y001399470D01*
D10*
X005716470Y001399470D02*
X005716470Y001357251D01*
D10*
X005716470Y001357251D02*
X005716470Y-06042647D01*
D10*
X005716470Y-06042647D02*
X007200328Y-07526505D01*
D10*
X007200328Y-07526505D02*
X007200328Y-11821631D01*
D10*
X007200328Y-11821631D02*
X007089740Y-11932219D01*
D10*
X007089740Y-11932219D02*
X006650000Y-12371959D01*
D10*
X006650000Y-12371959D02*
X006650000Y-21000000D01*
D10*
X001200000Y-05799000D02*
X001199533Y-05799467D01*
D10*
X001199533Y-05799467D02*
X001038621Y-05799467D01*
D10*
X001038621Y-05799467D02*
X-03508000Y-10346088D01*
D10*
X-03508000Y-10346088D02*
X-03508000Y-15150000D01*
D10*
X-04359000Y-06781000D02*
X-04434691Y-06856691D01*
D10*
X-04434691Y-06856691D02*
X-04481646Y-06856691D01*
D10*
X-04481646Y-06856691D02*
X-05426955Y-07802000D01*
D10*
X-05426955Y-07802000D02*
X-05589000Y-07802000D01*
D10*
X-05969000Y-05604000D02*
X-06054679Y-05689679D01*
D10*
X-06054679Y-05689679D02*
X-06057485Y-05689679D01*
D10*
X-06057485Y-05689679D02*
X-06641169Y-06273363D01*
D10*
X-06641169Y-06273363D02*
X-06814316Y-06273363D01*
D10*
X-06814316Y-06273363D02*
X-16140954Y-15600000D01*
D10*
X-16140954Y-15600000D02*
X-17200000Y-15600000D01*
D10*
X-01337000Y-03903000D02*
X-01500488Y-03903000D01*
D10*
X-01500488Y-03903000D02*
X-03602025Y-06004537D01*
D10*
X-03602025Y-06004537D02*
X-03627974Y-06004537D01*
D10*
X-03627974Y-06004537D02*
X-05953537Y-06004537D01*
D10*
X-05953537Y-06004537D02*
X-09609000Y-09660000D01*
D10*
X-11200000Y-09793000D02*
X-11276269Y-09869269D01*
D10*
X-11276269Y-09869269D02*
X-11276931Y-09869269D01*
D10*
X-11276931Y-09869269D02*
X-14453662Y-13046000D01*
D10*
X-14453662Y-13046000D02*
X-18960000Y-13046000D01*
D10*
X-00456000Y000916000D02*
X-00504793Y000867207D01*
D10*
X-00504793Y000867207D02*
X-00611064Y000867207D01*
D10*
X-00611064Y000867207D02*
X-01781003Y-00302732D01*
D10*
X-01781003Y-00302732D02*
X-01781003Y-00395661D01*
D10*
X-01781003Y-00395661D02*
X-02319390Y-00934048D01*
D10*
X-02319390Y-00934048D02*
X-06548141Y-00934048D01*
D10*
X-06548141Y-00934048D02*
X-06850000Y-00632189D01*
D10*
X-06850000Y-00632189D02*
X-06850000Y000330560D01*
D10*
X-06850000Y000330560D02*
X-09322523Y002803082D01*
D10*
X-09322523Y002803082D02*
X-14271288Y002803082D01*
D10*
X002813000Y001872000D02*
X002777590Y001781590D01*
D10*
X002777590Y001781590D02*
X002777590Y001720050D01*
D10*
X002777590Y001720050D02*
X002477682Y001420143D01*
D10*
X002477682Y001420143D02*
X002477682Y001345930D01*
D10*
X002477682Y001345930D02*
X002477682Y-05953682D01*
D10*
X002477682Y-05953682D02*
X004914000Y-08390000D01*
D10*
X004776000Y002743000D02*
X004846959Y002672041D01*
D10*
X004846959Y002672041D02*
X004846959Y002621308D01*
D10*
X004846959Y002621308D02*
X005423969Y002044298D01*
D10*
X005423969Y002044298D02*
X005852553Y002044298D01*
D10*
X005852553Y002044298D02*
X007195000Y000701851D01*
D10*
X007195000Y000701851D02*
X007195000Y-01113659D01*
D10*
X007195000Y-01113659D02*
X008355613Y-02274272D01*
D10*
X008355613Y-02274272D02*
X008355613Y-03127629D01*
D10*
X012265000Y-14177000D02*
X012232382Y-14209618D01*
D10*
X012232382Y-14209618D02*
X012056786Y-14209618D01*
D10*
X012056786Y-14209618D02*
X011280745Y-14209618D01*
D10*
X011280745Y-14209618D02*
X011123037Y-14367325D01*
D10*
X011123037Y-14367325D02*
X011013000Y-14477363D01*
D10*
X011013000Y-14477363D02*
X011013000Y-15571000D01*
D10*
X002805000Y003709000D02*
X002870000Y002527986D01*
D10*
X002870000Y002527986D02*
X003271244Y002126742D01*
D10*
X003271244Y002126742D02*
X003271244Y000666955D01*
D10*
X003271244Y000666955D02*
X003298942Y000639257D01*
D10*
X003298942Y000639257D02*
X003282882Y000639257D01*
D10*
X003282882Y000639257D02*
X003154103Y000510477D01*
D10*
X-08628000Y-03613000D02*
X-07728261Y-03613000D01*
D10*
X-07728261Y-03613000D02*
X-07481282Y-03366021D01*
D10*
X-07481282Y-03366021D02*
X-07420021Y-03366021D01*
D10*
X-07420021Y-03366021D02*
X-07337000Y-03283000D01*
D10*
X004438080Y003825242D02*
X004140889Y003825242D01*
D10*
X004140889Y003825242D02*
X003523026Y003207380D01*
D10*
X003523026Y003207380D02*
X003523026Y001458191D01*
D10*
X003523026Y001458191D02*
X003873592Y001107626D01*
D10*
X003873592Y001107626D02*
X003873592Y000969892D01*
D10*
X003873592Y000969892D02*
X003863322Y000959621D01*
D10*
X-09251000Y003395000D02*
X-04485445Y003395000D01*
D10*
X-04485445Y003395000D02*
X-04220649Y003130204D01*
D10*
X-04220649Y003130204D02*
X-04220649Y003089283D01*
D10*
X-04220649Y003089283D02*
X-04173470Y003042103D01*
D10*
X004406000Y004648000D02*
X004400918Y004653082D01*
D10*
X004400918Y004653082D02*
X004268779Y004653082D01*
D10*
X004268779Y004653082D02*
X003285976Y005635885D01*
D10*
X003285976Y005635885D02*
X001251037Y005635885D01*
D10*
X001251037Y005635885D02*
X-01342745Y003042103D01*
D10*
X-01342745Y003042103D02*
X-04173470Y003042103D01*
D10*
X005041000Y004593000D02*
X005081737Y004552263D01*
D10*
X005081737Y004552263D02*
X005081737Y004437212D01*
D10*
X005081737Y004437212D02*
X005010900Y004366376D01*
D10*
X005010900Y004366376D02*
X005010900Y003722017D01*
D10*
X005010900Y003722017D02*
X004601263Y003312380D01*
D10*
X004601263Y003312380D02*
X004203815Y003312380D01*
D10*
X004203815Y003312380D02*
X004203815Y001192218D01*
D10*
X004203815Y001192218D02*
X004455650Y000940382D01*
D10*
X004455650Y000940382D02*
X003222268Y-00293000D01*
D10*
X003222268Y-00293000D02*
X002970000Y-00293000D01*
D10*
X001413000Y-01337000D02*
X001409000Y-01341000D01*
D10*
X001409000Y-01341000D02*
X001199828Y-01341000D01*
D10*
X001199828Y-01341000D02*
X001091597Y-01449231D01*
D10*
X001091597Y-01449231D02*
X000495298Y-01449231D01*
D10*
X000495298Y-01449231D02*
X-03255471Y-05200000D01*
D10*
X-03255471Y-05200000D02*
X-17200000Y-05200000D01*
D10*
X000570000Y004247000D02*
X000503210Y004180210D01*
D10*
X000503210Y004180210D02*
X000503210Y004060263D01*
D10*
X000503210Y004060263D02*
X000217000Y003774053D01*
D10*
X000217000Y003774053D02*
X000217000Y002183000D01*
D10*
X-03344000Y-01399000D02*
X-03418765Y-01473765D01*
D10*
X-03418765Y-01473765D02*
X-03425840Y-01473765D01*
D10*
X-03425840Y-01473765D02*
X-06353075Y-04401000D01*
D10*
X-06353075Y-04401000D02*
X-18709000Y-04401000D01*
D10*
X004325000Y005800000D02*
X002179946Y007945054D01*
D10*
X002179946Y007945054D02*
X-14989158Y007945054D01*
D10*
X-14989158Y007945054D02*
X-17523660Y005410552D01*
D10*
X-17523660Y005410552D02*
X-19075238Y005410552D01*
D10*
X-19075238Y005410552D02*
X-19251872Y005587185D01*
D10*
X-19251872Y005587185D02*
X-19251872Y005612872D01*
D10*
X-19251872Y005612872D02*
X-19390000Y005751000D01*
D10*
X004993000Y005897000D02*
X004858221Y006031779D01*
D10*
X004858221Y006031779D02*
X004693188Y006196812D01*
D10*
X004693188Y006196812D02*
X004677638Y006196812D01*
D10*
X004677638Y006196812D02*
X004391814Y006196812D01*
D10*
X004391814Y006196812D02*
X002297690Y008290936D01*
D10*
X002297690Y008290936D02*
X-05926323Y008290936D01*
D10*
X-05926323Y008290936D02*
X-07357859Y009722472D01*
D10*
X-07357859Y009722472D02*
X-16680493Y009722472D01*
D10*
X-16680493Y009722472D02*
X-18922727Y007480238D01*
D10*
X004055802Y007709297D02*
X004071620Y007693478D01*
D10*
X004071620Y007693478D02*
X004081682Y007693478D01*
D10*
X004081682Y007693478D02*
X004191421Y007583739D01*
D10*
X004191421Y007583739D02*
X004284203Y007583739D01*
D10*
X004284203Y007583739D02*
X006305416Y007583739D01*
D10*
X006305416Y007583739D02*
X006374746Y007653069D01*
D10*
X006374746Y007653069D02*
X010000000Y011278322D01*
D10*
X010000000Y011278322D02*
X010000000Y012400000D01*
D10*
X009080232Y013471638D02*
X009233985Y013625391D01*
D10*
X009233985Y013625391D02*
X009233985Y016156181D01*
D10*
X009233985Y016156181D02*
X009233985Y016232117D01*
D10*
X009233985Y016232117D02*
X008933102Y016533000D01*
D10*
X008933102Y016533000D02*
X008280000Y016533000D01*
D10*
X004045319Y009251607D02*
X004158239Y009364527D01*
D10*
X004158239Y009364527D02*
X004158239Y009399553D01*
D10*
X004158239Y009399553D02*
X007035686Y012277000D01*
D10*
X007035686Y012277000D02*
X007148000Y012277000D01*
D10*
X007674000Y014190000D02*
X007710000Y014225000D01*
D10*
X007710000Y014225000D02*
X007788000Y014279000D01*
D10*
X007788000Y014279000D02*
X007878000Y014307000D01*
D10*
X007878000Y014307000D02*
X007974000Y014325000D01*
D10*
X007974000Y014325000D02*
X008074000Y014340000D01*
D10*
X008074000Y014340000D02*
X008182997Y014443988D01*
D10*
X008182997Y014443988D02*
X008285324Y014426205D01*
D10*
X008285324Y014426205D02*
X008333573Y014353409D01*
D10*
X008333573Y014353409D02*
X008351340Y014335642D01*
D10*
X008351340Y014335642D02*
X008825116Y014335642D01*
D10*
X004809592Y008444392D02*
X004825162Y008264378D01*
D10*
X004825162Y008264378D02*
X004805710Y008244925D01*
D10*
X004805710Y008244925D02*
X004805710Y007924935D01*
D10*
X004805710Y007924935D02*
X003626738Y009103906D01*
D10*
X003626738Y009103906D02*
X003626738Y009183749D01*
D10*
X003626738Y009183749D02*
X003626738Y010640700D01*
D10*
X003626738Y010640700D02*
X003654210Y010668172D01*
D10*
X003654210Y010668172D02*
X004828979Y011842941D01*
D10*
X004828979Y011842941D02*
X004813566Y013694061D01*
D10*
X004813566Y013694061D02*
X005427254Y014316452D01*
D10*
X005427254Y014316452D02*
X005501542Y014296709D01*
D10*
X005501542Y014296709D02*
X006999709Y014296709D01*
D10*
X006999709Y014296709D02*
X008768000Y016065000D01*
D10*
X005704000Y006731000D02*
X005661867Y006808133D01*
D10*
X005661867Y006808133D02*
X005396241Y007073759D01*
D10*
X005396241Y007073759D02*
X004103448Y007073759D01*
D10*
X004103448Y007073759D02*
X003344573Y007832634D01*
D10*
X003344573Y007832634D02*
X003344573Y008002217D01*
D10*
X003344573Y008002217D02*
X003344573Y011600573D01*
D10*
X003344573Y011600573D02*
X003976000Y012232000D01*
D10*
X005441495Y008442879D02*
X005324610Y008454390D01*
D10*
X005324610Y008454390D02*
X005324610Y008662257D01*
D10*
X005324610Y008662257D02*
X006608279Y009945926D01*
D10*
X006608279Y009945926D02*
X006720115Y009945926D01*
D10*
X006720115Y009945926D02*
X007958176Y011183987D01*
D10*
X007958176Y011183987D02*
X007958176Y012047308D01*
D10*
X007958176Y012047308D02*
X006788484Y013217000D01*
D10*
X006788484Y013217000D02*
X006446000Y013217000D01*
D10*
X005590230Y015459799D02*
X005520039Y015389608D01*
D10*
X005520039Y015389608D02*
X005479727Y015389608D01*
D10*
X005479727Y015389608D02*
X005109035Y015018915D01*
D10*
X005109035Y015018915D02*
X004884328Y015018915D01*
D10*
X006333430Y008192747D02*
X006335808Y008206808D01*
D10*
X006335808Y008206808D02*
X006335808Y008339797D01*
D10*
X006335808Y008339797D02*
X009050164Y011054153D01*
D10*
X009050164Y011054153D02*
X009050164Y011460594D01*
D10*
X009050164Y011460594D02*
X006759403Y013751355D01*
D10*
X006759403Y013751355D02*
X005379604Y013679818D01*
D10*
X012323000Y006399000D02*
X012447069Y006274931D01*
D10*
X012447069Y006274931D02*
X012447069Y006274789D01*
D10*
X012447069Y006274789D02*
X012447069Y004603444D01*
D10*
X012447069Y004603444D02*
X012078663Y004235038D01*
D10*
X009077966Y-02954070D02*
X009071785Y-03089785D01*
D10*
X009071785Y-03089785D02*
X009071785Y-05658215D01*
D10*
X009071785Y-05658215D02*
X007746000Y-06984000D01*
D10*
X006714000Y-08221000D02*
X006635093Y-08299907D01*
D10*
X006635093Y-08299907D02*
X006635093Y-08356897D01*
D10*
X006635093Y-08356897D02*
X003991990Y-11000000D01*
D10*
X003991990Y-11000000D02*
X003730000Y-11000000D01*
D10*
X007497174Y-02576983D02*
X007289730Y-02730270D01*
D10*
X007289730Y-02730270D02*
X007483452Y-02923991D01*
D10*
X007483452Y-02923991D02*
X007483452Y-05293261D01*
D10*
X007483452Y-05293261D02*
X007277478Y-05499235D01*
D10*
X007277478Y-05499235D02*
X007277478Y-07188022D01*
D10*
X007277478Y-07188022D02*
X007524893Y-07435436D01*
D10*
X007524893Y-07435436D02*
X007524893Y-12327177D01*
D10*
X008803761Y006576835D02*
X008785518Y006595078D01*
D10*
X008785518Y006595078D02*
X008778475Y006602121D01*
D10*
X008778475Y006602121D02*
X006789102Y006602121D01*
D10*
X007930802Y-00375784D02*
X009831238Y-02276220D01*
D10*
X009831238Y-02276220D02*
X009831238Y-03086238D01*
D10*
X009831238Y-03086238D02*
X009864000Y-03119000D01*
D10*
X008803761Y006576835D02*
X008847256Y006620329D01*
D10*
X008847256Y006620329D02*
X008847256Y006794689D01*
D10*
X008847256Y006794689D02*
X009442809Y007390242D01*
D10*
X009442809Y007390242D02*
X009848765Y007390242D01*
D10*
X009848765Y007390242D02*
X012010421Y005228586D01*
D10*
X012010421Y005228586D02*
X012010421Y004800314D01*
D10*
X007211749Y001579742D02*
X007192677Y001598814D01*
D10*
X007192677Y001598814D02*
X007192677Y001651511D01*
D10*
X007192677Y001651511D02*
X006789102Y002055086D01*
D10*
X006789102Y002055086D02*
X006789102Y006602121D01*
D10*
X002067000Y003616000D02*
X002013236Y003669764D01*
D10*
X002013236Y003669764D02*
X002013236Y003766640D01*
D10*
X002013236Y003766640D02*
X002279516Y004032920D01*
D10*
X002279516Y004032920D02*
X002279516Y004904955D01*
D10*
X011186923Y003150911D02*
X011186923Y004650219D01*
D10*
X011186923Y004650219D02*
X011186923Y004671220D01*
D10*
X011186923Y004671220D02*
X011303142Y004787439D01*
D10*
X-05553000Y015351000D02*
X-02351346Y015351000D01*
D10*
X-02351346Y015351000D02*
X-01800173Y014799827D01*
D10*
X-01800173Y014799827D02*
X-01800000Y014800000D01*
D10*
X007671000Y-00901000D02*
X007797835Y-01027835D01*
D10*
X007797835Y-01027835D02*
X007797835Y-01040409D01*
D10*
X007797835Y-01040409D02*
X008741051Y-01983624D01*
D10*
X008741051Y-01983624D02*
X008776261Y-02095310D01*
D10*
X-17076000Y-02585000D02*
X-12702963Y-02585000D01*
D10*
X-12702963Y-02585000D02*
X-12639481Y-02521519D01*
D10*
X-12639481Y-02521519D02*
X-12577000Y-02584000D01*
D10*
X-16135000Y008550000D02*
X-16059603Y008625397D01*
D10*
X-16059603Y008625397D02*
X-15506668Y009178332D01*
D10*
X-15506668Y009178332D02*
X-11565596Y009178332D01*
D10*
X-06013000Y013124000D02*
X-06039590Y013097410D01*
D10*
X-06039590Y013097410D02*
X-06044447Y013097410D01*
D10*
X-06044447Y013097410D02*
X-06681431Y012460426D01*
D10*
X-06681431Y012460426D02*
X-07029515Y012460426D01*
D35*
X008876000Y004200000D03*
D35*
X006125000Y-00300000D03*
D35*
X026251111Y020084219D03*
D35*
X026251111Y024264043D03*
D35*
X025325560Y015136045D03*
D35*
X016674888Y024264043D03*
D35*
X016674888Y020084219D03*
D35*
X017300376Y023495591D03*
D35*
X023926000Y-07500000D03*
D35*
X022750000Y-04740000D03*
D35*
X022250000Y-06740000D03*
D35*
X001570000Y-22270000D03*
D35*
X-22900000Y007250000D03*
D35*
X-22900000Y-04750000D03*
D35*
X-20050000Y009626000D03*
D35*
X-20050000Y-02374000D03*
D35*
X014060000Y017546000D03*
D35*
X023475000Y011000000D03*
D35*
X-04475000Y014000000D03*
D35*
X020730000Y-17270000D03*
D35*
X008810000Y-12270000D03*
D35*
X009200000Y-06776000D03*
D35*
X-09540000Y007000000D03*
D35*
X-09540000Y000000000D03*
D35*
X007000000Y-05000000D03*
D35*
X-19000000Y-23810000D03*
D35*
X-14000000Y-23810000D03*
D35*
X-09000000Y-23810000D03*
D35*
X-24770000Y-22540000D03*
D35*
X028650000Y011000000D03*
D35*
X027646000Y018020000D03*
D35*
X025646000Y-05980000D03*
D35*
X-24825000Y010825000D03*
D35*
X-24825000Y-01175000D03*
D35*
X023650000Y-10000000D03*
D35*
X013770000Y022270000D03*
D35*
X-22000000Y015000000D03*
D35*
X-22000000Y020000000D03*
D35*
X-21000000Y012000000D03*
D35*
X-21000000Y000000000D03*
D35*
X019646000Y-05980000D03*
D35*
X-18646000Y010020000D03*
D35*
X-18646000Y-01980000D03*
D35*
X015510000Y018106000D03*
D35*
X014825000Y-14825000D03*
D35*
X017106000Y000510000D03*
D35*
X016606000Y006510000D03*
D35*
X-16646000Y003020000D03*
D35*
X016106000Y009010000D03*
D35*
X000325000Y014825000D03*
D35*
X013646000Y003020000D03*
D35*
X013646000Y007020000D03*
D35*
X-14000000Y-11000000D03*
D35*
X010020000Y-09146000D03*
D35*
X002020000Y012146000D03*
D35*
X006020000Y-08146000D03*
D35*
X007220000Y011146000D03*
D35*
X005020000Y011146000D03*
D35*
X015270000Y-08270000D03*
D35*
X012520000Y010646000D03*
D35*
X-11000000Y020000000D03*
D35*
X012020000Y-05146000D03*
D35*
X-07500000Y014000000D03*
D35*
X-05646000Y004720000D03*
D35*
X-05646000Y-02280000D03*
D35*
X012020000Y-02146000D03*
D35*
X-02646000Y004720000D03*
D35*
X-02646000Y-02280000D03*
D35*
X001354000Y007020000D03*
D35*
X001354000Y003020000D03*
D35*
X-12200000Y004600000D03*
D35*
X-25348000Y-05365000D03*
D35*
X-22877943Y008229463D03*
D35*
X-25199000Y008863000D03*
D35*
X-25824000Y008203000D03*
D35*
X017000000Y010800000D03*
D35*
X008211262Y013799306D03*
D35*
X007142862Y015363025D03*
D35*
X-01415000Y012816000D03*
D35*
X019340000Y014020000D03*
D35*
X021733000Y015627000D03*
D35*
X019340000Y014020000D03*
D35*
X015586000Y014538000D03*
D35*
X018840000Y015871000D03*
D35*
X016626000Y015861000D03*
D35*
X024400000Y020400000D03*
D35*
X028196000Y017731000D03*
D35*
X022320000Y016341000D03*
D35*
X015566000Y016197000D03*
D35*
X022634144Y013209061D03*
D35*
X025876000Y011905000D03*
D35*
X017970000Y014932000D03*
D35*
X021834786Y018426497D03*
D35*
X023400000Y019200000D03*
D35*
X022634144Y013209061D03*
D35*
X009601412Y001543310D03*
D35*
X011193000Y005473000D03*
D35*
X015625975Y003653322D03*
D35*
X017896000Y001206000D03*
D35*
X018984032Y-00849361D03*
D35*
X014814000Y-01050000D03*
D35*
X011752562Y003428725D03*
D35*
X019817000Y001212000D03*
D35*
X024348000Y-08482000D03*
D35*
X024484000Y-03125000D03*
D35*
X009398822Y002601181D03*
D35*
X021430000Y-01352000D03*
D35*
X023425404Y-08699566D03*
D35*
X018324262Y-02132083D03*
D35*
X023425404Y-08699566D03*
D35*
X009729216Y002142865D03*
D35*
X018324262Y-02132083D03*
D35*
X012705000Y000840000D03*
D35*
X013528000Y000294000D03*
D35*
X013419000Y-04198000D03*
D35*
X009958000Y-00797000D03*
D35*
X011313000Y-09591000D03*
D35*
X011455226Y-14620241D03*
D35*
X009434000Y-01105000D03*
D35*
X005813000Y001496000D03*
D35*
X001200000Y-05799000D03*
D35*
X-03508000Y-15150000D03*
D35*
X-04359000Y-06781000D03*
D35*
X-05589000Y-07802000D03*
D35*
X-05969000Y-05604000D03*
D35*
X-17200000Y-15600000D03*
D35*
X-01337000Y-03903000D03*
D35*
X-09609000Y-09660000D03*
D35*
X-11200000Y-09793000D03*
D35*
X-18960000Y-13046000D03*
D35*
X-00456000Y000916000D03*
D35*
X-14271288Y002803082D03*
D35*
X002813000Y001872000D03*
D35*
X004914000Y-08390000D03*
D35*
X004776000Y002743000D03*
D35*
X008355613Y-03127629D03*
D35*
X012265000Y-14177000D03*
D35*
X011013000Y-15571000D03*
D35*
X002805000Y003709000D03*
D35*
X003154103Y000510477D03*
D35*
X-08628000Y-03613000D03*
D35*
X-07337000Y-03283000D03*
D35*
X004438080Y003825242D03*
D35*
X003863322Y000959621D03*
D35*
X-09251000Y003395000D03*
D35*
X-04173470Y003042103D03*
D35*
X004406000Y004648000D03*
D35*
X-04173470Y003042103D03*
D35*
X005041000Y004593000D03*
D35*
X002970000Y-00293000D03*
D35*
X001413000Y-01337000D03*
D35*
X-17200000Y-05200000D03*
D35*
X000570000Y004247000D03*
D35*
X000217000Y002183000D03*
D35*
X-03344000Y-01399000D03*
D35*
X-18709000Y-04401000D03*
D35*
X004325000Y005800000D03*
D35*
X-19390000Y005751000D03*
D35*
X004993000Y005897000D03*
D35*
X-18922727Y007480238D03*
D35*
X004055802Y007709297D03*
D35*
X010000000Y012400000D03*
D35*
X009080232Y013471638D03*
D35*
X008280000Y016533000D03*
D35*
X004045319Y009251607D03*
D35*
X007148000Y012277000D03*
D35*
X007674000Y014190000D03*
D35*
X008825116Y014335642D03*
D35*
X004809592Y008444392D03*
D35*
X008768000Y016065000D03*
D35*
X005704000Y006731000D03*
D35*
X003976000Y012232000D03*
D35*
X005441495Y008442879D03*
D35*
X006446000Y013217000D03*
D35*
X005590230Y015459799D03*
D35*
X004884328Y015018915D03*
D35*
X006333430Y008192747D03*
D35*
X005379604Y013679818D03*
D35*
X012323000Y006399000D03*
D35*
X012078663Y004235038D03*
D35*
X009077966Y-02954070D03*
D35*
X007746000Y-06984000D03*
D35*
X006714000Y-08221000D03*
D35*
X007497174Y-02576983D03*
D35*
X007524893Y-12327177D03*
D35*
X008803761Y006576835D03*
D35*
X006789102Y006602121D03*
D35*
X007930802Y-00375784D03*
D35*
X009864000Y-03119000D03*
D35*
X008803761Y006576835D03*
D35*
X012010421Y004800314D03*
D35*
X007211749Y001579742D03*
D35*
X006789102Y006602121D03*
D35*
X002067000Y003616000D03*
D35*
X002279516Y004904955D03*
D35*
X011186923Y003150911D03*
D35*
X011303142Y004787439D03*
D35*
X-05553000Y015351000D03*
D35*
X-01800000Y014800000D03*
D35*
X007671000Y-00901000D03*
D35*
X008776261Y-02095310D03*
D35*
X-17076000Y-02585000D03*
D35*
X-12577000Y-02584000D03*
D35*
X-16135000Y008550000D03*
D35*
X-11565596Y009178332D03*
D35*
X-06013000Y013124000D03*
D35*
X-07029515Y012460426D03*
%LPC*%
D22*
X023899918Y018494433D03*
%LPD*%
%LPC*%
D22*
X018100082Y018494433D03*
%LPD*%
%LPC*%
D31*
X-29000000Y022000000D03*
%LPD*%
%LPC*%
D31*
X029000000Y022000000D03*
%LPD*%
%LPC*%
D31*
X-29500000Y-22000000D03*
%LPD*%
%LPC*%
D31*
X029000000Y-22000000D03*
%LPD*%
M02*