M48
; DRILL file {tscircuit} date 2026-09-06T11:44:54.935Z
; FORMAT={-:-/ absolute / metric / decimal}
; #@! TF.CreationDate,2026-09-06T11:44:54.935Z
; #@! TF.GenerationSoftware,tscircuit
; #@! TF.FileFunction,Plated,1,2,PTH
FMAT,2
METRIC
; #@! TA.AperFunction,Plated,PTH,ComponentDrill
T10C1.000000
; #@! TA.AperFunction,Plated,PTH,ComponentDrill
T11C0.799998
; #@! TA.AperFunction,Plated,PTH,ComponentDrill
T12C0.300000
; #@! TA.AperFunction,Plated,PTH,ComponentDrill
T13C0.200000
%
G90
G05
T10
X11.2300Y21.0000
X13.7700Y21.0000
X12.7300Y-7.0000
X15.2700Y-7.0000
X1.1900Y-11.0000
X3.7300Y-11.0000
X6.2700Y-11.0000
X8.8100Y-11.0000
X-12.2700Y20.0000
X-9.7300Y20.0000
X-23.7500Y20.0000
X-20.2500Y20.0000
X-28.0000Y6.2500
X-28.0000Y9.7500
X-28.0000Y-5.7500
X-28.0000Y-2.2500
X-10.8100Y7.0000
X-8.2700Y7.0000
X-5.7300Y7.0000
X-3.1900Y7.0000
X-10.8100Y0.0000
X-8.2700Y0.0000
X-5.7300Y0.0000
X-3.1900Y0.0000
X18.1900Y-16.0000
X20.7300Y-16.0000
X23.2700Y-16.0000
X25.8100Y-16.0000
X-23.5000Y-22.5400
X-23.5000Y-20.0000
X-23.5000Y-17.4600
X-19.0000Y-22.5400
X-19.0000Y-20.0000
X-19.0000Y-17.4600
X-14.0000Y-22.5400
X-14.0000Y-20.0000
X-14.0000Y-17.4600
X-9.0000Y-22.5400
X-9.0000Y-20.0000
X-9.0000Y-17.4600
X1.5700Y-21.0000
X4.1100Y-21.0000
X6.6500Y-21.0000
X9.1900Y-21.0000
X11.7300Y-21.0000
X14.2700Y-21.0000
X16.8100Y-21.0000
X19.3500Y-21.0000
X21.8900Y-21.0000
X24.4300Y-21.0000
T11
X16.6749Y22.4741
G85X16.675Y21.874
X16.6749Y18.3943
G85X16.675Y17.594
X25.3251Y18.3943
G85X25.325Y17.594
X25.3251Y22.4741
G85X25.325Y21.874
T12
X-25.0000Y12.0000
X-25.0000Y0.0000
X-18.0000Y6.0000
X-18.0000Y-6.0000
X-17.0000Y18.0000
X-3.0000Y10.0000
X16.0000Y17.0000
X17.0000Y-9.0000
X24.0000Y-12.0000
X1.0000Y-9.0000
X0.0000Y18.0000
X27.0000Y3.0000
T13
X6.4000Y3.4000
X6.4000Y4.6000
X7.6000Y3.4000
X7.6000Y4.6000
X-21.4000Y8.0000
X-20.6000Y8.0000
X-21.4000Y-4.0000
X-20.6000Y-4.0000
X8.8760Y4.2000
X6.1250Y-0.3000
X26.2511Y20.0842
X26.2511Y24.2640
X25.3256Y15.1360
X16.6749Y24.2640
X16.6749Y20.0842
X17.3004Y23.4956
X23.9260Y-7.5000
X22.7500Y-4.7400
X22.2500Y-6.7400
X1.5700Y-22.2700
X-22.9000Y7.2500
X-22.9000Y-4.7500
X-20.0500Y9.6260
X-20.0500Y-2.3740
X14.0600Y17.5460
X23.4750Y11.0000
X-4.4750Y14.0000
X20.7300Y-17.2700
X8.8100Y-12.2700
X9.2000Y-6.7760
X-9.5400Y7.0000
X-9.5400Y0.0000
X7.0000Y-5.0000
X-19.0000Y-23.8100
X-14.0000Y-23.8100
X-9.0000Y-23.8100
X-24.7700Y-22.5400
X28.6500Y11.0000
X27.6460Y18.0200
X25.6460Y-5.9800
X-24.8250Y10.8250
X-24.8250Y-1.1750
X23.6500Y-10.0000
X13.7700Y22.2700
X-22.0000Y15.0000
X-22.0000Y20.0000
X-21.0000Y12.0000
X-21.0000Y0.0000
X19.6460Y-5.9800
X-18.6460Y10.0200
X-18.6460Y-1.9800
X15.5100Y18.1060
X14.8250Y-14.8250
X17.1060Y0.5100
X16.6060Y6.5100
X-16.6460Y3.0200
X16.1060Y9.0100
X0.3250Y14.8250
X13.6460Y3.0200
X13.6460Y7.0200
X-14.0000Y-11.0000
X10.0200Y-9.1460
X2.0200Y12.1460
X6.0200Y-8.1460
X7.2200Y11.1460
X5.0200Y11.1460
X15.2700Y-8.2700
X12.5200Y10.6460
X-11.0000Y20.0000
X12.0200Y-5.1460
X-7.5000Y14.0000
X-5.6460Y4.7200
X-5.6460Y-2.2800
X12.0200Y-2.1460
X-2.6460Y4.7200
X-2.6460Y-2.2800
X1.3540Y7.0200
X1.3540Y3.0200
X-12.2000Y4.6000
X-25.3480Y-5.3650
X-22.8779Y8.2295
X-25.1990Y8.8630
X-25.8240Y8.2030
X17.0000Y10.8000
X8.2113Y13.7993
X7.1429Y15.3630
X-1.4150Y12.8160
X19.3400Y14.0200
X21.7330Y15.6270
X15.5860Y14.5380
X18.8400Y15.8710
X16.6260Y15.8610
X24.4000Y20.4000
X28.1960Y17.7310
X22.3200Y16.3410
X15.5660Y16.1970
X22.6341Y13.2091
X25.8760Y11.9050
X17.9700Y14.9320
X21.8348Y18.4265
X23.4000Y19.2000
X9.6014Y1.5433
X11.1930Y5.4730
X15.6260Y3.6533
X17.8960Y1.2060
X18.9840Y-0.8494
X14.8140Y-1.0500
X11.7526Y3.4287
X19.8170Y1.2120
X24.3480Y-8.4820
X24.4840Y-3.1250
X9.3988Y2.6012
X21.4300Y-1.3520
X23.4254Y-8.6996
X18.3243Y-2.1321
X9.7292Y2.1429
X12.7050Y0.8400
X13.5280Y0.2940
X13.4190Y-4.1980
X9.9580Y-0.7970
X11.3130Y-9.5910
X11.4552Y-14.6202
X9.4340Y-1.1050
X5.8130Y1.4960
X1.2000Y-5.7990
X-3.5080Y-15.1500
X-4.3590Y-6.7810
X-5.5890Y-7.8020
X-5.9690Y-5.6040
X-17.2000Y-15.6000
X-1.3370Y-3.9030
X-9.6090Y-9.6600
X-11.2000Y-9.7930
X-18.9600Y-13.0460
X-0.4560Y0.9160
X-14.2713Y2.8031
X2.8130Y1.8720
X4.9140Y-8.3900
X4.7760Y2.7430
X8.3556Y-3.1276
X12.2650Y-14.1770
X11.0130Y-15.5710
X2.8050Y3.7090
X3.1541Y0.5105
X-8.6280Y-3.6130
X-7.3370Y-3.2830
X4.4381Y3.8252
X3.8633Y0.9596
X-9.2510Y3.3950
X-4.1735Y3.0421
X4.4060Y4.6480
X5.0410Y4.5930
X2.9700Y-0.2930
X1.4130Y-1.3370
X-17.2000Y-5.2000
X0.5700Y4.2470
X0.2170Y2.1830
X-3.3440Y-1.3990
X-18.7090Y-4.4010
X4.3250Y5.8000
X-19.3900Y5.7510
X4.9930Y5.8970
X-18.9227Y7.4802
X4.0558Y7.7093
X10.0000Y12.4000
X9.0802Y13.4716
X8.2800Y16.5330
X4.0453Y9.2516
X7.1480Y12.2770
X7.6740Y14.1900
X8.8251Y14.3356
X4.8096Y8.4444
X8.7680Y16.0650
X5.7040Y6.7310
X3.9760Y12.2320
X5.4415Y8.4429
X6.4460Y13.2170
X5.5902Y15.4598
X4.8843Y15.0189
X6.3334Y8.1927
X5.3796Y13.6798
X12.3230Y6.3990
X12.0787Y4.2350
X9.0780Y-2.9541
X7.7460Y-6.9840
X6.7140Y-8.2210
X7.4972Y-2.5770
X7.5249Y-12.3272
X8.8038Y6.5768
X6.7891Y6.6021
X7.9308Y-0.3758
X9.8640Y-3.1190
X12.0104Y4.8003
X7.2117Y1.5797
X2.0670Y3.6160
X2.2795Y4.9050
X11.1869Y3.1509
X11.3031Y4.7874
X-5.5530Y15.3510
X-1.8000Y14.8000
X7.6710Y-0.9010
X8.7763Y-2.0953
X-17.0760Y-2.5850
X-12.5770Y-2.5840
X-16.1350Y8.5500
X-11.5656Y9.1783
X-6.0130Y13.1240
X-7.0295Y12.4604
M30